M48
; DRILL file {KiCad 9.0.7} date 2026-04-27T20:04:34+0200
; FORMAT={-:-/ absolute / metric / decimal}
; #@! TF.CreationDate,2026-04-27T20:04:34+02:00
; #@! TF.GenerationSoftware,Kicad,Pcbnew,9.0.7
; #@! TF.FileFunction,Plated,1,2,PTH
FMAT,2
METRIC
; #@! TA.AperFunction,Plated,PTH,ComponentDrill
T1C0.920
; #@! TA.AperFunction,Plated,PTH,ComponentDrill
T2C1.300
; #@! TA.AperFunction,Plated,PTH,ComponentDrill
T3C1.400
; #@! TA.AperFunction,Plated,PTH,ComponentDrill
T4C1.500
; #@! TA.AperFunction,Plated,PTH,ComponentDrill
T5C4.000
%
G90
G05
T1
X169.39Y-105.3
X169.39Y-116.7
X169.49Y-71.8
X169.49Y-83.1
X169.49Y-94.3
X171.39Y-105.3
X171.39Y-116.7
X171.49Y-71.8
X171.49Y-83.1
X171.49Y-94.3
X173.39Y-105.3
X173.39Y-116.7
X173.49Y-71.8
X173.49Y-83.1
X173.49Y-94.3
X175.39Y-105.3
X175.39Y-116.7
X175.49Y-71.8
X175.49Y-83.1
X175.49Y-94.3
T2
X181.8Y-71.9
X181.8Y-83.05
X181.8Y-94.2
X181.8Y-105.35
X181.8Y-116.5
X204.3Y-71.9
X204.3Y-83.05
X204.3Y-94.2
X204.3Y-105.35
X204.3Y-116.5
T3
X211.355Y-78.623
X216.435Y-78.623
T4
X168.66Y-102.58
X168.66Y-108.02
X168.66Y-113.98
X168.66Y-119.42
X168.76Y-69.08
X168.76Y-74.52
X168.76Y-80.38
X168.76Y-85.82
X168.76Y-91.58
X168.76Y-97.02
X175.66Y-102.58
X175.66Y-108.02
X175.66Y-113.98
X175.66Y-119.42
X175.76Y-69.08
X175.76Y-74.52
X175.76Y-80.38
X175.76Y-85.82
X175.76Y-91.58
X175.76Y-97.02
T5
X172.3Y-63.3
X172.5Y-126.0
X213.8Y-63.2
X213.9Y-126.2
M30
