%TF.GenerationSoftware,KiCad,Pcbnew,9.0.7*%
%TF.CreationDate,2026-04-27T20:04:16+02:00*%
%TF.ProjectId,USB-HUBx5,5553422d-4855-4427-9835-2e6b69636164,rev?*%
%TF.SameCoordinates,Original*%
%TF.FileFunction,Soldermask,Top*%
%TF.FilePolarity,Negative*%
%FSLAX46Y46*%
G04 Gerber Fmt 4.6, Leading zero omitted, Abs format (unit mm)*
G04 Created by KiCad (PCBNEW 9.0.7) date 2026-04-27 20:04:16*
%MOMM*%
%LPD*%
G01*
G04 APERTURE LIST*
G04 Aperture macros list*
%AMRoundRect*
0 Rectangle with rounded corners*
0 $1 Rounding radius*
0 $2 $3 $4 $5 $6 $7 $8 $9 X,Y pos of 4 corners*
0 Add a 4 corners polygon primitive as box body*
4,1,4,$2,$3,$4,$5,$6,$7,$8,$9,$2,$3,0*
0 Add four circle primitives for the rounded corners*
1,1,$1+$1,$2,$3*
1,1,$1+$1,$4,$5*
1,1,$1+$1,$6,$7*
1,1,$1+$1,$8,$9*
0 Add four rect primitives between the rounded corners*
20,1,$1+$1,$2,$3,$4,$5,0*
20,1,$1+$1,$4,$5,$6,$7,0*
20,1,$1+$1,$6,$7,$8,$9,0*
20,1,$1+$1,$8,$9,$2,$3,0*%
G04 Aperture macros list end*
%ADD10C,6.000000*%
%ADD11R,1.600000X1.600000*%
%ADD12C,1.600000*%
%ADD13C,2.150000*%
%ADD14C,2.700000*%
%ADD15C,3.000000*%
%ADD16RoundRect,0.249999X-0.790001X-1.550001X0.790001X-1.550001X0.790001X1.550001X-0.790001X1.550001X0*%
%ADD17O,2.080000X3.600000*%
G04 APERTURE END LIST*
D10*
%TO.C,*%
X213900000Y-126200000D03*
%TD*%
%TO.C,J7*%
X172300000Y-63300000D03*
%TD*%
D11*
%TO.C,J5*%
X169390000Y-116700000D03*
D12*
X171390000Y-116700000D03*
X173390000Y-116700000D03*
X175390000Y-116700000D03*
D13*
X168660000Y-113980000D03*
X168660000Y-119420000D03*
X175660000Y-113980000D03*
X175660000Y-119420000D03*
%TD*%
D14*
%TO.C,F5*%
X193050000Y-116500000D03*
D15*
X181800000Y-116500000D03*
X204300000Y-116500000D03*
%TD*%
D14*
%TO.C,F2*%
X193050000Y-83050000D03*
D15*
X181800000Y-83050000D03*
X204300000Y-83050000D03*
%TD*%
D14*
%TO.C,F4*%
X193050000Y-105350000D03*
D15*
X181800000Y-105350000D03*
X204300000Y-105350000D03*
%TD*%
D11*
%TO.C,J2*%
X169490000Y-83100000D03*
D12*
X171490000Y-83100000D03*
X173490000Y-83100000D03*
X175490000Y-83100000D03*
D13*
X168760000Y-80380000D03*
X168760000Y-85820000D03*
X175760000Y-80380000D03*
X175760000Y-85820000D03*
%TD*%
D14*
%TO.C,F1*%
X193050000Y-71900000D03*
D15*
X181800000Y-71900000D03*
X204300000Y-71900000D03*
%TD*%
D11*
%TO.C,J4*%
X169390000Y-105300000D03*
D12*
X171390000Y-105300000D03*
X173390000Y-105300000D03*
X175390000Y-105300000D03*
D13*
X168660000Y-102580000D03*
X168660000Y-108020000D03*
X175660000Y-102580000D03*
X175660000Y-108020000D03*
%TD*%
D11*
%TO.C,J3*%
X169490000Y-94300000D03*
D12*
X171490000Y-94300000D03*
X173490000Y-94300000D03*
X175490000Y-94300000D03*
D13*
X168760000Y-91580000D03*
X168760000Y-97020000D03*
X175760000Y-91580000D03*
X175760000Y-97020000D03*
%TD*%
D16*
%TO.C,J6*%
X211355000Y-78622500D03*
D17*
X216435000Y-78622500D03*
%TD*%
D14*
%TO.C,F3*%
X193050000Y-94200000D03*
D15*
X181800000Y-94200000D03*
X204300000Y-94200000D03*
%TD*%
D10*
%TO.C,J8*%
X172500000Y-126000000D03*
%TD*%
%TO.C,*%
X213800000Y-63200000D03*
%TD*%
D11*
%TO.C,J1*%
X169490000Y-71800000D03*
D12*
X171490000Y-71800000D03*
X173490000Y-71800000D03*
X175490000Y-71800000D03*
D13*
X168760000Y-69080000D03*
X168760000Y-74520000D03*
X175760000Y-69080000D03*
X175760000Y-74520000D03*
%TD*%
M02*
