M48
; DRILL file {KiCad 9.0.7} date 2026-07-07T22:21:24+0200
; FORMAT={-:-/ absolute / metric / decimal}
; #@! TF.CreationDate,2026-07-07T22:21:24+02:00
; #@! TF.GenerationSoftware,Kicad,Pcbnew,9.0.7
; #@! TF.FileFunction,Plated,1,2,PTH
FMAT,2
METRIC
; #@! TA.AperFunction,Plated,PTH,ViaDrill
T1C0.300
; #@! TA.AperFunction,Plated,PTH,ViaDrill
T2C0.600
; #@! TA.AperFunction,Plated,PTH,ComponentDrill
T3C0.900
; #@! TA.AperFunction,Plated,PTH,ComponentDrill
T4C1.200
; #@! TA.AperFunction,Plated,PTH,ComponentDrill
T5C1.400
%
G90
G05
T1
X175.3Y-114.7
X200.4Y-112.1
T2
X172.6Y-117.4
X175.3Y-114.7
X178.65Y-101.45
X189.51Y-112.01
X200.4Y-112.0
T3
X142.312Y-58.315
X142.312Y-60.855
X142.312Y-63.395
X142.312Y-65.935
X142.312Y-68.475
X142.312Y-71.015
X142.312Y-73.555
X142.312Y-76.095
X142.312Y-78.635
X142.312Y-81.175
X142.312Y-83.715
X142.312Y-86.255
X142.312Y-88.795
X142.312Y-91.335
X142.312Y-93.875
X142.312Y-96.415
X142.312Y-98.955
X142.312Y-101.495
X142.312Y-104.035
X167.713Y-58.315
X167.713Y-60.855
X167.713Y-63.395
X167.713Y-65.935
X167.713Y-68.475
X167.713Y-71.015
X167.713Y-73.555
X167.713Y-76.095
X167.713Y-78.635
X167.713Y-81.175
X167.713Y-83.715
X167.713Y-86.255
X167.713Y-88.795
X167.713Y-91.335
X167.713Y-93.875
X167.713Y-96.415
X167.713Y-98.955
X167.713Y-101.495
X167.713Y-104.035
X189.8Y-70.7
X189.8Y-85.7
X194.8Y-85.7
X199.8Y-70.7
X199.8Y-85.7
X204.8Y-70.7
X204.8Y-85.7
X214.06Y-120.85
X214.06Y-122.89
X214.06Y-124.93
X216.6Y-121.87
X216.6Y-123.91
X216.6Y-125.95
T4
X132.3Y-56.67
X132.3Y-60.48
X132.3Y-64.29
X132.3Y-68.1
X132.3Y-80.19
X132.3Y-84.0
X140.0Y-125.5
X143.81Y-125.5
X147.62Y-125.5
X151.43Y-125.5
X167.812Y-125.042
X171.623Y-125.042
T5
X194.32Y-59.4
X199.4Y-59.4
M30
