%TF.GenerationSoftware,KiCad,Pcbnew,9.0.7*%
%TF.CreationDate,2026-07-07T23:03:13+02:00*%
%TF.ProjectId,Routeur_solaire,526f7574-6575-4725-9f73-6f6c61697265,rev?*%
%TF.SameCoordinates,Original*%
%TF.FileFunction,Soldermask,Top*%
%TF.FilePolarity,Negative*%
%FSLAX46Y46*%
G04 Gerber Fmt 4.6, Leading zero omitted, Abs format (unit mm)*
G04 Created by KiCad (PCBNEW 9.0.7) date 2026-07-07 23:03:13*
%MOMM*%
%LPD*%
G01*
G04 APERTURE LIST*
G04 Aperture macros list*
%AMRoundRect*
0 Rectangle with rounded corners*
0 $1 Rounding radius*
0 $2 $3 $4 $5 $6 $7 $8 $9 X,Y pos of 4 corners*
0 Add a 4 corners polygon primitive as box body*
4,1,4,$2,$3,$4,$5,$6,$7,$8,$9,$2,$3,0*
0 Add four circle primitives for the rounded corners*
1,1,$1+$1,$2,$3*
1,1,$1+$1,$4,$5*
1,1,$1+$1,$6,$7*
1,1,$1+$1,$8,$9*
0 Add four rect primitives between the rounded corners*
20,1,$1+$1,$2,$3,$4,$5,0*
20,1,$1+$1,$4,$5,$6,$7,0*
20,1,$1+$1,$6,$7,$8,$9,0*
20,1,$1+$1,$8,$9,$2,$3,0*%
G04 Aperture macros list end*
%ADD10RoundRect,0.237500X0.237500X-0.250000X0.237500X0.250000X-0.237500X0.250000X-0.237500X-0.250000X0*%
%ADD11RoundRect,0.249999X-0.790001X-1.550001X0.790001X-1.550001X0.790001X1.550001X-0.790001X1.550001X0*%
%ADD12O,2.080000X3.600000*%
%ADD13RoundRect,0.250000X-0.650000X-1.550000X0.650000X-1.550000X0.650000X1.550000X-0.650000X1.550000X0*%
%ADD14O,1.800000X3.600000*%
%ADD15RoundRect,0.237500X-0.237500X0.250000X-0.237500X-0.250000X0.237500X-0.250000X0.237500X0.250000X0*%
%ADD16R,2.000000X2.000000*%
%ADD17C,2.000000*%
%ADD18RoundRect,0.250000X-1.550000X0.650000X-1.550000X-0.650000X1.550000X-0.650000X1.550000X0.650000X0*%
%ADD19O,3.600000X1.800000*%
%ADD20RoundRect,0.150000X0.750000X0.150000X-0.750000X0.150000X-0.750000X-0.150000X0.750000X-0.150000X0*%
%ADD21R,1.800000X1.800000*%
%ADD22C,1.800000*%
%ADD23RoundRect,0.250000X-0.700000X1.950000X-0.700000X-1.950000X0.700000X-1.950000X0.700000X1.950000X0*%
%ADD24RoundRect,0.237500X-0.250000X-0.237500X0.250000X-0.237500X0.250000X0.237500X-0.250000X0.237500X0*%
%ADD25RoundRect,0.250000X-0.450000X0.325000X-0.450000X-0.325000X0.450000X-0.325000X0.450000X0.325000X0*%
%ADD26RoundRect,0.250000X-0.550000X1.500000X-0.550000X-1.500000X0.550000X-1.500000X0.550000X1.500000X0*%
%ADD27C,2.300000*%
%ADD28R,1.520000X1.520000*%
%ADD29C,1.520000*%
%ADD30RoundRect,0.150000X-0.587500X-0.150000X0.587500X-0.150000X0.587500X0.150000X-0.587500X0.150000X0*%
G04 APERTURE END LIST*
D10*
%TO.C,R2*%
X177300000Y-58900000D03*
X177300000Y-57075000D03*
%TD*%
D11*
%TO.C,J6*%
X194320000Y-59400000D03*
D12*
X199400000Y-59400000D03*
%TD*%
D13*
%TO.C,J4*%
X167812500Y-125042500D03*
D14*
X171622500Y-125042500D03*
%TD*%
D15*
%TO.C,R10*%
X189800000Y-93275000D03*
X189800000Y-95100000D03*
%TD*%
D16*
%TO.C,TR1*%
X204800000Y-70700000D03*
D17*
X199800000Y-70700000D03*
X189800000Y-70700000D03*
X189800000Y-85700000D03*
X194800000Y-85700000D03*
X199800000Y-85700000D03*
X204800000Y-85700000D03*
%TD*%
D18*
%TO.C,J5*%
X132300000Y-80190000D03*
D19*
X132300000Y-84000000D03*
%TD*%
D20*
%TO.C,U2*%
X197700000Y-123740000D03*
X197700000Y-121200000D03*
X191400000Y-121200000D03*
X191400000Y-123740000D03*
%TD*%
D21*
%TO.C,U3*%
X142312500Y-58315000D03*
D22*
X142312500Y-60855000D03*
X142312500Y-63395000D03*
X142312500Y-65935000D03*
X142312500Y-68475000D03*
X142312500Y-71015000D03*
X142312500Y-73555000D03*
X142312500Y-76095000D03*
X142312500Y-78635000D03*
X142312500Y-81175000D03*
X142312500Y-83715000D03*
X142312500Y-86255000D03*
X142312500Y-88795000D03*
X142312500Y-91335000D03*
X142312500Y-93875000D03*
X142312500Y-96415000D03*
X142312500Y-98955000D03*
X142312500Y-101495000D03*
X142312500Y-104035000D03*
X167712500Y-104035000D03*
X167712500Y-101495000D03*
X167712500Y-98955000D03*
X167712500Y-96415000D03*
X167712500Y-93875000D03*
X167712500Y-91335000D03*
X167712500Y-88795000D03*
X167712500Y-86255000D03*
X167712500Y-83715000D03*
X167712500Y-81175000D03*
X167712500Y-78635000D03*
X167712500Y-76095000D03*
X167712500Y-73555000D03*
X167712500Y-71015000D03*
X167712500Y-68475000D03*
X167712500Y-65935000D03*
X167712500Y-63395000D03*
X167712500Y-60855000D03*
X167712500Y-58315000D03*
%TD*%
D23*
%TO.C,C2*%
X197500000Y-103250000D03*
X197500000Y-111950000D03*
%TD*%
D24*
%TO.C,R3*%
X140600000Y-117500000D03*
X142425000Y-117500000D03*
%TD*%
D25*
%TO.C,D1*%
X173900000Y-52650000D03*
X173900000Y-54700000D03*
%TD*%
D10*
%TO.C,R1*%
X174000000Y-58925000D03*
X174000000Y-57100000D03*
%TD*%
D15*
%TO.C,R6*%
X182000000Y-95000000D03*
X182000000Y-96825000D03*
%TD*%
D26*
%TO.C,C1*%
X209300000Y-93400000D03*
X209300000Y-98800000D03*
%TD*%
D15*
%TO.C,R8*%
X200400000Y-93375000D03*
X200400000Y-95200000D03*
%TD*%
D25*
%TO.C,D2*%
X177300000Y-52650000D03*
X177300000Y-54700000D03*
%TD*%
D18*
%TO.C,J2*%
X132300000Y-56670000D03*
D19*
X132300000Y-60480000D03*
X132300000Y-64290000D03*
X132300000Y-68100000D03*
%TD*%
D15*
%TO.C,R5*%
X193600000Y-115375000D03*
X193600000Y-117200000D03*
%TD*%
D27*
%TO.C,J1*%
X218900000Y-129400000D03*
X218900000Y-117400000D03*
D28*
X214060000Y-120850000D03*
D29*
X216600000Y-121870000D03*
X214060000Y-122890000D03*
X216600000Y-123910000D03*
X214060000Y-124930000D03*
X216600000Y-125950000D03*
%TD*%
D10*
%TO.C,R9*%
X138900000Y-76700000D03*
X138900000Y-74875000D03*
%TD*%
D30*
%TO.C,Q1*%
X181925000Y-99550000D03*
X181925000Y-101450000D03*
X183800000Y-100500000D03*
%TD*%
D13*
%TO.C,J3*%
X140000000Y-125500000D03*
D14*
X143810000Y-125500000D03*
X147620000Y-125500000D03*
X151430000Y-125500000D03*
%TD*%
D24*
%TO.C,R4*%
X204675000Y-123900000D03*
X206500000Y-123900000D03*
%TD*%
D10*
%TO.C,R7*%
X197500000Y-95200000D03*
X197500000Y-93375000D03*
%TD*%
%TO.C,R11*%
X192300000Y-95100000D03*
X192300000Y-93275000D03*
%TD*%
M02*
