%TF.GenerationSoftware,KiCad,Pcbnew,9.0.7*%
%TF.CreationDate,2026-07-07T23:03:13+02:00*%
%TF.ProjectId,Routeur_solaire,526f7574-6575-4725-9f73-6f6c61697265,rev?*%
%TF.SameCoordinates,Original*%
%TF.FileFunction,Legend,Top*%
%TF.FilePolarity,Positive*%
%FSLAX46Y46*%
G04 Gerber Fmt 4.6, Leading zero omitted, Abs format (unit mm)*
G04 Created by KiCad (PCBNEW 9.0.7) date 2026-07-07 23:03:13*
%MOMM*%
%LPD*%
G01*
G04 APERTURE LIST*
%ADD10C,0.300000*%
%ADD11C,0.200000*%
%ADD12C,0.150000*%
%ADD13C,0.100000*%
%ADD14C,0.120000*%
G04 APERTURE END LIST*
D10*
X204878320Y-58230114D02*
X204973558Y-58134876D01*
X204973558Y-58134876D02*
X205164034Y-58039638D01*
X205164034Y-58039638D02*
X205640225Y-58039638D01*
X205640225Y-58039638D02*
X205830701Y-58134876D01*
X205830701Y-58134876D02*
X205925939Y-58230114D01*
X205925939Y-58230114D02*
X206021177Y-58420590D01*
X206021177Y-58420590D02*
X206021177Y-58611066D01*
X206021177Y-58611066D02*
X205925939Y-58896780D01*
X205925939Y-58896780D02*
X204783082Y-60039638D01*
X204783082Y-60039638D02*
X206021177Y-60039638D01*
X206783082Y-58230114D02*
X206878320Y-58134876D01*
X206878320Y-58134876D02*
X207068796Y-58039638D01*
X207068796Y-58039638D02*
X207544987Y-58039638D01*
X207544987Y-58039638D02*
X207735463Y-58134876D01*
X207735463Y-58134876D02*
X207830701Y-58230114D01*
X207830701Y-58230114D02*
X207925939Y-58420590D01*
X207925939Y-58420590D02*
X207925939Y-58611066D01*
X207925939Y-58611066D02*
X207830701Y-58896780D01*
X207830701Y-58896780D02*
X206687844Y-60039638D01*
X206687844Y-60039638D02*
X207925939Y-60039638D01*
X209164034Y-58039638D02*
X209354511Y-58039638D01*
X209354511Y-58039638D02*
X209544987Y-58134876D01*
X209544987Y-58134876D02*
X209640225Y-58230114D01*
X209640225Y-58230114D02*
X209735463Y-58420590D01*
X209735463Y-58420590D02*
X209830701Y-58801542D01*
X209830701Y-58801542D02*
X209830701Y-59277733D01*
X209830701Y-59277733D02*
X209735463Y-59658685D01*
X209735463Y-59658685D02*
X209640225Y-59849161D01*
X209640225Y-59849161D02*
X209544987Y-59944400D01*
X209544987Y-59944400D02*
X209354511Y-60039638D01*
X209354511Y-60039638D02*
X209164034Y-60039638D01*
X209164034Y-60039638D02*
X208973558Y-59944400D01*
X208973558Y-59944400D02*
X208878320Y-59849161D01*
X208878320Y-59849161D02*
X208783082Y-59658685D01*
X208783082Y-59658685D02*
X208687844Y-59277733D01*
X208687844Y-59277733D02*
X208687844Y-58801542D01*
X208687844Y-58801542D02*
X208783082Y-58420590D01*
X208783082Y-58420590D02*
X208878320Y-58230114D01*
X208878320Y-58230114D02*
X208973558Y-58134876D01*
X208973558Y-58134876D02*
X209164034Y-58039638D01*
X210402130Y-58039638D02*
X211068796Y-60039638D01*
X211068796Y-60039638D02*
X211735463Y-58039638D01*
D11*
X212510149Y-113794838D02*
X211557768Y-113794838D01*
X211557768Y-113794838D02*
X211557768Y-111794838D01*
X213176816Y-113794838D02*
X213176816Y-111794838D01*
X214129197Y-113794838D02*
X214129197Y-111794838D01*
X214129197Y-111794838D02*
X215272054Y-113794838D01*
X215272054Y-113794838D02*
X215272054Y-111794838D01*
X216224435Y-113794838D02*
X216224435Y-111794838D01*
X217367292Y-113794838D02*
X216510149Y-112651980D01*
X217367292Y-111794838D02*
X216224435Y-112937695D01*
X218605387Y-112842457D02*
X218605387Y-113794838D01*
X217938721Y-111794838D02*
X218605387Y-112842457D01*
X218605387Y-112842457D02*
X219272054Y-111794838D01*
X168424435Y-130597219D02*
X167757768Y-130597219D01*
X167757768Y-131644838D02*
X167757768Y-129644838D01*
X167757768Y-129644838D02*
X168710149Y-129644838D01*
X169376816Y-131073409D02*
X170329197Y-131073409D01*
X169186340Y-131644838D02*
X169853006Y-129644838D01*
X169853006Y-129644838D02*
X170519673Y-131644838D01*
X171186340Y-131644838D02*
X171186340Y-129644838D01*
X171186340Y-129644838D02*
X172329197Y-131644838D01*
X172329197Y-131644838D02*
X172329197Y-129644838D01*
D10*
X214026441Y-51460361D02*
X214026441Y-53460361D01*
X214026441Y-53460361D02*
X213550251Y-53460361D01*
X213550251Y-53460361D02*
X213264536Y-53365123D01*
X213264536Y-53365123D02*
X213074060Y-53174647D01*
X213074060Y-53174647D02*
X212978822Y-52984171D01*
X212978822Y-52984171D02*
X212883584Y-52603219D01*
X212883584Y-52603219D02*
X212883584Y-52317504D01*
X212883584Y-52317504D02*
X212978822Y-51936552D01*
X212978822Y-51936552D02*
X213074060Y-51746076D01*
X213074060Y-51746076D02*
X213264536Y-51555600D01*
X213264536Y-51555600D02*
X213550251Y-51460361D01*
X213550251Y-51460361D02*
X214026441Y-51460361D01*
X212121679Y-52031790D02*
X211169298Y-52031790D01*
X212312155Y-51460361D02*
X211645489Y-53460361D01*
X211645489Y-53460361D02*
X210978822Y-51460361D01*
X210312155Y-51460361D02*
X210312155Y-53460361D01*
X210312155Y-53460361D02*
X209169298Y-51460361D01*
X209169298Y-51460361D02*
X209169298Y-53460361D01*
X207169298Y-53365123D02*
X207359774Y-53460361D01*
X207359774Y-53460361D02*
X207645488Y-53460361D01*
X207645488Y-53460361D02*
X207931203Y-53365123D01*
X207931203Y-53365123D02*
X208121679Y-53174647D01*
X208121679Y-53174647D02*
X208216917Y-52984171D01*
X208216917Y-52984171D02*
X208312155Y-52603219D01*
X208312155Y-52603219D02*
X208312155Y-52317504D01*
X208312155Y-52317504D02*
X208216917Y-51936552D01*
X208216917Y-51936552D02*
X208121679Y-51746076D01*
X208121679Y-51746076D02*
X207931203Y-51555600D01*
X207931203Y-51555600D02*
X207645488Y-51460361D01*
X207645488Y-51460361D02*
X207455012Y-51460361D01*
X207455012Y-51460361D02*
X207169298Y-51555600D01*
X207169298Y-51555600D02*
X207074060Y-51650838D01*
X207074060Y-51650838D02*
X207074060Y-52317504D01*
X207074060Y-52317504D02*
X207455012Y-52317504D01*
X206216917Y-52507980D02*
X205550250Y-52507980D01*
X205264536Y-51460361D02*
X206216917Y-51460361D01*
X206216917Y-51460361D02*
X206216917Y-53460361D01*
X206216917Y-53460361D02*
X205264536Y-53460361D01*
X203264536Y-51460361D02*
X203931203Y-52412742D01*
X204407393Y-51460361D02*
X204407393Y-53460361D01*
X204407393Y-53460361D02*
X203645488Y-53460361D01*
X203645488Y-53460361D02*
X203455012Y-53365123D01*
X203455012Y-53365123D02*
X203359774Y-53269885D01*
X203359774Y-53269885D02*
X203264536Y-53079409D01*
X203264536Y-53079409D02*
X203264536Y-52793695D01*
X203264536Y-52793695D02*
X203359774Y-52603219D01*
X203359774Y-52603219D02*
X203455012Y-52507980D01*
X203455012Y-52507980D02*
X203645488Y-52412742D01*
X203645488Y-52412742D02*
X204407393Y-52412742D01*
X182010361Y-60123558D02*
X184010361Y-60123558D01*
X184010361Y-60123558D02*
X184010361Y-60599748D01*
X184010361Y-60599748D02*
X183915123Y-60885463D01*
X183915123Y-60885463D02*
X183724647Y-61075939D01*
X183724647Y-61075939D02*
X183534171Y-61171177D01*
X183534171Y-61171177D02*
X183153219Y-61266415D01*
X183153219Y-61266415D02*
X182867504Y-61266415D01*
X182867504Y-61266415D02*
X182486552Y-61171177D01*
X182486552Y-61171177D02*
X182296076Y-61075939D01*
X182296076Y-61075939D02*
X182105600Y-60885463D01*
X182105600Y-60885463D02*
X182010361Y-60599748D01*
X182010361Y-60599748D02*
X182010361Y-60123558D01*
X182581790Y-62028320D02*
X182581790Y-62980701D01*
X182010361Y-61837844D02*
X184010361Y-62504510D01*
X184010361Y-62504510D02*
X182010361Y-63171177D01*
X182010361Y-63837844D02*
X184010361Y-63837844D01*
X184010361Y-63837844D02*
X182010361Y-64980701D01*
X182010361Y-64980701D02*
X184010361Y-64980701D01*
X183915123Y-66980701D02*
X184010361Y-66790225D01*
X184010361Y-66790225D02*
X184010361Y-66504511D01*
X184010361Y-66504511D02*
X183915123Y-66218796D01*
X183915123Y-66218796D02*
X183724647Y-66028320D01*
X183724647Y-66028320D02*
X183534171Y-65933082D01*
X183534171Y-65933082D02*
X183153219Y-65837844D01*
X183153219Y-65837844D02*
X182867504Y-65837844D01*
X182867504Y-65837844D02*
X182486552Y-65933082D01*
X182486552Y-65933082D02*
X182296076Y-66028320D01*
X182296076Y-66028320D02*
X182105600Y-66218796D01*
X182105600Y-66218796D02*
X182010361Y-66504511D01*
X182010361Y-66504511D02*
X182010361Y-66694987D01*
X182010361Y-66694987D02*
X182105600Y-66980701D01*
X182105600Y-66980701D02*
X182200838Y-67075939D01*
X182200838Y-67075939D02*
X182867504Y-67075939D01*
X182867504Y-67075939D02*
X182867504Y-66694987D01*
X183057980Y-67933082D02*
X183057980Y-68599749D01*
X182010361Y-68885463D02*
X182010361Y-67933082D01*
X182010361Y-67933082D02*
X184010361Y-67933082D01*
X184010361Y-67933082D02*
X184010361Y-68885463D01*
X182010361Y-70885463D02*
X182962742Y-70218796D01*
X182010361Y-69742606D02*
X184010361Y-69742606D01*
X184010361Y-69742606D02*
X184010361Y-70504511D01*
X184010361Y-70504511D02*
X183915123Y-70694987D01*
X183915123Y-70694987D02*
X183819885Y-70790225D01*
X183819885Y-70790225D02*
X183629409Y-70885463D01*
X183629409Y-70885463D02*
X183343695Y-70885463D01*
X183343695Y-70885463D02*
X183153219Y-70790225D01*
X183153219Y-70790225D02*
X183057980Y-70694987D01*
X183057980Y-70694987D02*
X182962742Y-70504511D01*
X182962742Y-70504511D02*
X182962742Y-69742606D01*
X216239638Y-71726441D02*
X214239638Y-71726441D01*
X214239638Y-71726441D02*
X214239638Y-71250251D01*
X214239638Y-71250251D02*
X214334876Y-70964536D01*
X214334876Y-70964536D02*
X214525352Y-70774060D01*
X214525352Y-70774060D02*
X214715828Y-70678822D01*
X214715828Y-70678822D02*
X215096780Y-70583584D01*
X215096780Y-70583584D02*
X215382495Y-70583584D01*
X215382495Y-70583584D02*
X215763447Y-70678822D01*
X215763447Y-70678822D02*
X215953923Y-70774060D01*
X215953923Y-70774060D02*
X216144400Y-70964536D01*
X216144400Y-70964536D02*
X216239638Y-71250251D01*
X216239638Y-71250251D02*
X216239638Y-71726441D01*
X215668209Y-69821679D02*
X215668209Y-68869298D01*
X216239638Y-70012155D02*
X214239638Y-69345489D01*
X214239638Y-69345489D02*
X216239638Y-68678822D01*
X216239638Y-68012155D02*
X214239638Y-68012155D01*
X214239638Y-68012155D02*
X216239638Y-66869298D01*
X216239638Y-66869298D02*
X214239638Y-66869298D01*
X214334876Y-64869298D02*
X214239638Y-65059774D01*
X214239638Y-65059774D02*
X214239638Y-65345488D01*
X214239638Y-65345488D02*
X214334876Y-65631203D01*
X214334876Y-65631203D02*
X214525352Y-65821679D01*
X214525352Y-65821679D02*
X214715828Y-65916917D01*
X214715828Y-65916917D02*
X215096780Y-66012155D01*
X215096780Y-66012155D02*
X215382495Y-66012155D01*
X215382495Y-66012155D02*
X215763447Y-65916917D01*
X215763447Y-65916917D02*
X215953923Y-65821679D01*
X215953923Y-65821679D02*
X216144400Y-65631203D01*
X216144400Y-65631203D02*
X216239638Y-65345488D01*
X216239638Y-65345488D02*
X216239638Y-65155012D01*
X216239638Y-65155012D02*
X216144400Y-64869298D01*
X216144400Y-64869298D02*
X216049161Y-64774060D01*
X216049161Y-64774060D02*
X215382495Y-64774060D01*
X215382495Y-64774060D02*
X215382495Y-65155012D01*
X215192019Y-63916917D02*
X215192019Y-63250250D01*
X216239638Y-62964536D02*
X216239638Y-63916917D01*
X216239638Y-63916917D02*
X214239638Y-63916917D01*
X214239638Y-63916917D02*
X214239638Y-62964536D01*
X216239638Y-60964536D02*
X215287257Y-61631203D01*
X216239638Y-62107393D02*
X214239638Y-62107393D01*
X214239638Y-62107393D02*
X214239638Y-61345488D01*
X214239638Y-61345488D02*
X214334876Y-61155012D01*
X214334876Y-61155012D02*
X214430114Y-61059774D01*
X214430114Y-61059774D02*
X214620590Y-60964536D01*
X214620590Y-60964536D02*
X214906304Y-60964536D01*
X214906304Y-60964536D02*
X215096780Y-61059774D01*
X215096780Y-61059774D02*
X215192019Y-61155012D01*
X215192019Y-61155012D02*
X215287257Y-61345488D01*
X215287257Y-61345488D02*
X215287257Y-62107393D01*
D11*
X130205062Y-115226874D02*
X129252681Y-115893541D01*
X130205062Y-116369731D02*
X128205062Y-116369731D01*
X128205062Y-116369731D02*
X128205062Y-115607826D01*
X128205062Y-115607826D02*
X128300300Y-115417350D01*
X128300300Y-115417350D02*
X128395538Y-115322112D01*
X128395538Y-115322112D02*
X128586014Y-115226874D01*
X128586014Y-115226874D02*
X128871728Y-115226874D01*
X128871728Y-115226874D02*
X129062204Y-115322112D01*
X129062204Y-115322112D02*
X129157443Y-115417350D01*
X129157443Y-115417350D02*
X129252681Y-115607826D01*
X129252681Y-115607826D02*
X129252681Y-116369731D01*
X128205062Y-113988779D02*
X128205062Y-113607826D01*
X128205062Y-113607826D02*
X128300300Y-113417350D01*
X128300300Y-113417350D02*
X128490776Y-113226874D01*
X128490776Y-113226874D02*
X128871728Y-113131636D01*
X128871728Y-113131636D02*
X129538395Y-113131636D01*
X129538395Y-113131636D02*
X129919347Y-113226874D01*
X129919347Y-113226874D02*
X130109824Y-113417350D01*
X130109824Y-113417350D02*
X130205062Y-113607826D01*
X130205062Y-113607826D02*
X130205062Y-113988779D01*
X130205062Y-113988779D02*
X130109824Y-114179255D01*
X130109824Y-114179255D02*
X129919347Y-114369731D01*
X129919347Y-114369731D02*
X129538395Y-114464969D01*
X129538395Y-114464969D02*
X128871728Y-114464969D01*
X128871728Y-114464969D02*
X128490776Y-114369731D01*
X128490776Y-114369731D02*
X128300300Y-114179255D01*
X128300300Y-114179255D02*
X128205062Y-113988779D01*
X128205062Y-112274493D02*
X129824109Y-112274493D01*
X129824109Y-112274493D02*
X130014585Y-112179255D01*
X130014585Y-112179255D02*
X130109824Y-112084017D01*
X130109824Y-112084017D02*
X130205062Y-111893541D01*
X130205062Y-111893541D02*
X130205062Y-111512588D01*
X130205062Y-111512588D02*
X130109824Y-111322112D01*
X130109824Y-111322112D02*
X130014585Y-111226874D01*
X130014585Y-111226874D02*
X129824109Y-111131636D01*
X129824109Y-111131636D02*
X128205062Y-111131636D01*
X128205062Y-110464969D02*
X128205062Y-109322112D01*
X130205062Y-109893541D02*
X128205062Y-109893541D01*
X129157443Y-108655445D02*
X129157443Y-107988778D01*
X130205062Y-107703064D02*
X130205062Y-108655445D01*
X130205062Y-108655445D02*
X128205062Y-108655445D01*
X128205062Y-108655445D02*
X128205062Y-107703064D01*
X128205062Y-106845921D02*
X129824109Y-106845921D01*
X129824109Y-106845921D02*
X130014585Y-106750683D01*
X130014585Y-106750683D02*
X130109824Y-106655445D01*
X130109824Y-106655445D02*
X130205062Y-106464969D01*
X130205062Y-106464969D02*
X130205062Y-106084016D01*
X130205062Y-106084016D02*
X130109824Y-105893540D01*
X130109824Y-105893540D02*
X130014585Y-105798302D01*
X130014585Y-105798302D02*
X129824109Y-105703064D01*
X129824109Y-105703064D02*
X128205062Y-105703064D01*
X130205062Y-103607826D02*
X129252681Y-104274493D01*
X130205062Y-104750683D02*
X128205062Y-104750683D01*
X128205062Y-104750683D02*
X128205062Y-103988778D01*
X128205062Y-103988778D02*
X128300300Y-103798302D01*
X128300300Y-103798302D02*
X128395538Y-103703064D01*
X128395538Y-103703064D02*
X128586014Y-103607826D01*
X128586014Y-103607826D02*
X128871728Y-103607826D01*
X128871728Y-103607826D02*
X129062204Y-103703064D01*
X129062204Y-103703064D02*
X129157443Y-103798302D01*
X129157443Y-103798302D02*
X129252681Y-103988778D01*
X129252681Y-103988778D02*
X129252681Y-104750683D01*
X130109824Y-101322111D02*
X130205062Y-101036397D01*
X130205062Y-101036397D02*
X130205062Y-100560206D01*
X130205062Y-100560206D02*
X130109824Y-100369730D01*
X130109824Y-100369730D02*
X130014585Y-100274492D01*
X130014585Y-100274492D02*
X129824109Y-100179254D01*
X129824109Y-100179254D02*
X129633633Y-100179254D01*
X129633633Y-100179254D02*
X129443157Y-100274492D01*
X129443157Y-100274492D02*
X129347919Y-100369730D01*
X129347919Y-100369730D02*
X129252681Y-100560206D01*
X129252681Y-100560206D02*
X129157443Y-100941159D01*
X129157443Y-100941159D02*
X129062204Y-101131635D01*
X129062204Y-101131635D02*
X128966966Y-101226873D01*
X128966966Y-101226873D02*
X128776490Y-101322111D01*
X128776490Y-101322111D02*
X128586014Y-101322111D01*
X128586014Y-101322111D02*
X128395538Y-101226873D01*
X128395538Y-101226873D02*
X128300300Y-101131635D01*
X128300300Y-101131635D02*
X128205062Y-100941159D01*
X128205062Y-100941159D02*
X128205062Y-100464968D01*
X128205062Y-100464968D02*
X128300300Y-100179254D01*
X128205062Y-98941159D02*
X128205062Y-98560206D01*
X128205062Y-98560206D02*
X128300300Y-98369730D01*
X128300300Y-98369730D02*
X128490776Y-98179254D01*
X128490776Y-98179254D02*
X128871728Y-98084016D01*
X128871728Y-98084016D02*
X129538395Y-98084016D01*
X129538395Y-98084016D02*
X129919347Y-98179254D01*
X129919347Y-98179254D02*
X130109824Y-98369730D01*
X130109824Y-98369730D02*
X130205062Y-98560206D01*
X130205062Y-98560206D02*
X130205062Y-98941159D01*
X130205062Y-98941159D02*
X130109824Y-99131635D01*
X130109824Y-99131635D02*
X129919347Y-99322111D01*
X129919347Y-99322111D02*
X129538395Y-99417349D01*
X129538395Y-99417349D02*
X128871728Y-99417349D01*
X128871728Y-99417349D02*
X128490776Y-99322111D01*
X128490776Y-99322111D02*
X128300300Y-99131635D01*
X128300300Y-99131635D02*
X128205062Y-98941159D01*
X130205062Y-96274492D02*
X130205062Y-97226873D01*
X130205062Y-97226873D02*
X128205062Y-97226873D01*
X129633633Y-95703063D02*
X129633633Y-94750682D01*
X130205062Y-95893539D02*
X128205062Y-95226873D01*
X128205062Y-95226873D02*
X130205062Y-94560206D01*
X130205062Y-93893539D02*
X128205062Y-93893539D01*
X130205062Y-91798301D02*
X129252681Y-92464968D01*
X130205062Y-92941158D02*
X128205062Y-92941158D01*
X128205062Y-92941158D02*
X128205062Y-92179253D01*
X128205062Y-92179253D02*
X128300300Y-91988777D01*
X128300300Y-91988777D02*
X128395538Y-91893539D01*
X128395538Y-91893539D02*
X128586014Y-91798301D01*
X128586014Y-91798301D02*
X128871728Y-91798301D01*
X128871728Y-91798301D02*
X129062204Y-91893539D01*
X129062204Y-91893539D02*
X129157443Y-91988777D01*
X129157443Y-91988777D02*
X129252681Y-92179253D01*
X129252681Y-92179253D02*
X129252681Y-92941158D01*
X129157443Y-90941158D02*
X129157443Y-90274491D01*
X130205062Y-89988777D02*
X130205062Y-90941158D01*
X130205062Y-90941158D02*
X128205062Y-90941158D01*
X128205062Y-90941158D02*
X128205062Y-89988777D01*
X131424950Y-116655445D02*
X133424950Y-115988779D01*
X133424950Y-115988779D02*
X131424950Y-115322112D01*
X133424950Y-113607826D02*
X133424950Y-114750683D01*
X133424950Y-114179255D02*
X131424950Y-114179255D01*
X131424950Y-114179255D02*
X131710664Y-114369731D01*
X131710664Y-114369731D02*
X131901140Y-114560207D01*
X131901140Y-114560207D02*
X131996378Y-114750683D01*
X133234473Y-112750683D02*
X133329712Y-112655445D01*
X133329712Y-112655445D02*
X133424950Y-112750683D01*
X133424950Y-112750683D02*
X133329712Y-112845921D01*
X133329712Y-112845921D02*
X133234473Y-112750683D01*
X133234473Y-112750683D02*
X133424950Y-112750683D01*
X131424950Y-111417350D02*
X131424950Y-111226873D01*
X131424950Y-111226873D02*
X131520188Y-111036397D01*
X131520188Y-111036397D02*
X131615426Y-110941159D01*
X131615426Y-110941159D02*
X131805902Y-110845921D01*
X131805902Y-110845921D02*
X132186854Y-110750683D01*
X132186854Y-110750683D02*
X132663045Y-110750683D01*
X132663045Y-110750683D02*
X133043997Y-110845921D01*
X133043997Y-110845921D02*
X133234473Y-110941159D01*
X133234473Y-110941159D02*
X133329712Y-111036397D01*
X133329712Y-111036397D02*
X133424950Y-111226873D01*
X133424950Y-111226873D02*
X133424950Y-111417350D01*
X133424950Y-111417350D02*
X133329712Y-111607826D01*
X133329712Y-111607826D02*
X133234473Y-111703064D01*
X133234473Y-111703064D02*
X133043997Y-111798302D01*
X133043997Y-111798302D02*
X132663045Y-111893540D01*
X132663045Y-111893540D02*
X132186854Y-111893540D01*
X132186854Y-111893540D02*
X131805902Y-111798302D01*
X131805902Y-111798302D02*
X131615426Y-111703064D01*
X131615426Y-111703064D02*
X131520188Y-111607826D01*
X131520188Y-111607826D02*
X131424950Y-111417350D01*
X131424950Y-109512588D02*
X131424950Y-109322111D01*
X131424950Y-109322111D02*
X131520188Y-109131635D01*
X131520188Y-109131635D02*
X131615426Y-109036397D01*
X131615426Y-109036397D02*
X131805902Y-108941159D01*
X131805902Y-108941159D02*
X132186854Y-108845921D01*
X132186854Y-108845921D02*
X132663045Y-108845921D01*
X132663045Y-108845921D02*
X133043997Y-108941159D01*
X133043997Y-108941159D02*
X133234473Y-109036397D01*
X133234473Y-109036397D02*
X133329712Y-109131635D01*
X133329712Y-109131635D02*
X133424950Y-109322111D01*
X133424950Y-109322111D02*
X133424950Y-109512588D01*
X133424950Y-109512588D02*
X133329712Y-109703064D01*
X133329712Y-109703064D02*
X133234473Y-109798302D01*
X133234473Y-109798302D02*
X133043997Y-109893540D01*
X133043997Y-109893540D02*
X132663045Y-109988778D01*
X132663045Y-109988778D02*
X132186854Y-109988778D01*
X132186854Y-109988778D02*
X131805902Y-109893540D01*
X131805902Y-109893540D02*
X131615426Y-109798302D01*
X131615426Y-109798302D02*
X131520188Y-109703064D01*
X131520188Y-109703064D02*
X131424950Y-109512588D01*
X131424950Y-106084016D02*
X131424950Y-105893539D01*
X131424950Y-105893539D02*
X131520188Y-105703063D01*
X131520188Y-105703063D02*
X131615426Y-105607825D01*
X131615426Y-105607825D02*
X131805902Y-105512587D01*
X131805902Y-105512587D02*
X132186854Y-105417349D01*
X132186854Y-105417349D02*
X132663045Y-105417349D01*
X132663045Y-105417349D02*
X133043997Y-105512587D01*
X133043997Y-105512587D02*
X133234473Y-105607825D01*
X133234473Y-105607825D02*
X133329712Y-105703063D01*
X133329712Y-105703063D02*
X133424950Y-105893539D01*
X133424950Y-105893539D02*
X133424950Y-106084016D01*
X133424950Y-106084016D02*
X133329712Y-106274492D01*
X133329712Y-106274492D02*
X133234473Y-106369730D01*
X133234473Y-106369730D02*
X133043997Y-106464968D01*
X133043997Y-106464968D02*
X132663045Y-106560206D01*
X132663045Y-106560206D02*
X132186854Y-106560206D01*
X132186854Y-106560206D02*
X131805902Y-106464968D01*
X131805902Y-106464968D02*
X131615426Y-106369730D01*
X131615426Y-106369730D02*
X131520188Y-106274492D01*
X131520188Y-106274492D02*
X131424950Y-106084016D01*
X131424950Y-104750682D02*
X131424950Y-103417349D01*
X131424950Y-103417349D02*
X133424950Y-104274492D01*
X131329712Y-101226873D02*
X133901140Y-102941158D01*
X131615426Y-100655444D02*
X131520188Y-100560206D01*
X131520188Y-100560206D02*
X131424950Y-100369730D01*
X131424950Y-100369730D02*
X131424950Y-99893539D01*
X131424950Y-99893539D02*
X131520188Y-99703063D01*
X131520188Y-99703063D02*
X131615426Y-99607825D01*
X131615426Y-99607825D02*
X131805902Y-99512587D01*
X131805902Y-99512587D02*
X131996378Y-99512587D01*
X131996378Y-99512587D02*
X132282092Y-99607825D01*
X132282092Y-99607825D02*
X133424950Y-100750682D01*
X133424950Y-100750682D02*
X133424950Y-99512587D01*
X131424950Y-98274492D02*
X131424950Y-98084015D01*
X131424950Y-98084015D02*
X131520188Y-97893539D01*
X131520188Y-97893539D02*
X131615426Y-97798301D01*
X131615426Y-97798301D02*
X131805902Y-97703063D01*
X131805902Y-97703063D02*
X132186854Y-97607825D01*
X132186854Y-97607825D02*
X132663045Y-97607825D01*
X132663045Y-97607825D02*
X133043997Y-97703063D01*
X133043997Y-97703063D02*
X133234473Y-97798301D01*
X133234473Y-97798301D02*
X133329712Y-97893539D01*
X133329712Y-97893539D02*
X133424950Y-98084015D01*
X133424950Y-98084015D02*
X133424950Y-98274492D01*
X133424950Y-98274492D02*
X133329712Y-98464968D01*
X133329712Y-98464968D02*
X133234473Y-98560206D01*
X133234473Y-98560206D02*
X133043997Y-98655444D01*
X133043997Y-98655444D02*
X132663045Y-98750682D01*
X132663045Y-98750682D02*
X132186854Y-98750682D01*
X132186854Y-98750682D02*
X131805902Y-98655444D01*
X131805902Y-98655444D02*
X131615426Y-98560206D01*
X131615426Y-98560206D02*
X131520188Y-98464968D01*
X131520188Y-98464968D02*
X131424950Y-98274492D01*
X131615426Y-96845920D02*
X131520188Y-96750682D01*
X131520188Y-96750682D02*
X131424950Y-96560206D01*
X131424950Y-96560206D02*
X131424950Y-96084015D01*
X131424950Y-96084015D02*
X131520188Y-95893539D01*
X131520188Y-95893539D02*
X131615426Y-95798301D01*
X131615426Y-95798301D02*
X131805902Y-95703063D01*
X131805902Y-95703063D02*
X131996378Y-95703063D01*
X131996378Y-95703063D02*
X132282092Y-95798301D01*
X132282092Y-95798301D02*
X133424950Y-96941158D01*
X133424950Y-96941158D02*
X133424950Y-95703063D01*
X131424950Y-93988777D02*
X131424950Y-94369730D01*
X131424950Y-94369730D02*
X131520188Y-94560206D01*
X131520188Y-94560206D02*
X131615426Y-94655444D01*
X131615426Y-94655444D02*
X131901140Y-94845920D01*
X131901140Y-94845920D02*
X132282092Y-94941158D01*
X132282092Y-94941158D02*
X133043997Y-94941158D01*
X133043997Y-94941158D02*
X133234473Y-94845920D01*
X133234473Y-94845920D02*
X133329712Y-94750682D01*
X133329712Y-94750682D02*
X133424950Y-94560206D01*
X133424950Y-94560206D02*
X133424950Y-94179253D01*
X133424950Y-94179253D02*
X133329712Y-93988777D01*
X133329712Y-93988777D02*
X133234473Y-93893539D01*
X133234473Y-93893539D02*
X133043997Y-93798301D01*
X133043997Y-93798301D02*
X132567807Y-93798301D01*
X132567807Y-93798301D02*
X132377331Y-93893539D01*
X132377331Y-93893539D02*
X132282092Y-93988777D01*
X132282092Y-93988777D02*
X132186854Y-94179253D01*
X132186854Y-94179253D02*
X132186854Y-94560206D01*
X132186854Y-94560206D02*
X132282092Y-94750682D01*
X132282092Y-94750682D02*
X132377331Y-94845920D01*
X132377331Y-94845920D02*
X132567807Y-94941158D01*
X136454361Y-115226874D02*
X136549600Y-115322112D01*
X136549600Y-115322112D02*
X136644838Y-115607826D01*
X136644838Y-115607826D02*
X136644838Y-115798302D01*
X136644838Y-115798302D02*
X136549600Y-116084017D01*
X136549600Y-116084017D02*
X136359123Y-116274493D01*
X136359123Y-116274493D02*
X136168647Y-116369731D01*
X136168647Y-116369731D02*
X135787695Y-116464969D01*
X135787695Y-116464969D02*
X135501980Y-116464969D01*
X135501980Y-116464969D02*
X135121028Y-116369731D01*
X135121028Y-116369731D02*
X134930552Y-116274493D01*
X134930552Y-116274493D02*
X134740076Y-116084017D01*
X134740076Y-116084017D02*
X134644838Y-115798302D01*
X134644838Y-115798302D02*
X134644838Y-115607826D01*
X134644838Y-115607826D02*
X134740076Y-115322112D01*
X134740076Y-115322112D02*
X134835314Y-115226874D01*
X136644838Y-114369731D02*
X134644838Y-114369731D01*
X134644838Y-114369731D02*
X136073409Y-113703064D01*
X136073409Y-113703064D02*
X134644838Y-113036398D01*
X134644838Y-113036398D02*
X136644838Y-113036398D01*
X134644838Y-111703065D02*
X134644838Y-111322112D01*
X134644838Y-111322112D02*
X134740076Y-111131636D01*
X134740076Y-111131636D02*
X134930552Y-110941160D01*
X134930552Y-110941160D02*
X135311504Y-110845922D01*
X135311504Y-110845922D02*
X135978171Y-110845922D01*
X135978171Y-110845922D02*
X136359123Y-110941160D01*
X136359123Y-110941160D02*
X136549600Y-111131636D01*
X136549600Y-111131636D02*
X136644838Y-111322112D01*
X136644838Y-111322112D02*
X136644838Y-111703065D01*
X136644838Y-111703065D02*
X136549600Y-111893541D01*
X136549600Y-111893541D02*
X136359123Y-112084017D01*
X136359123Y-112084017D02*
X135978171Y-112179255D01*
X135978171Y-112179255D02*
X135311504Y-112179255D01*
X135311504Y-112179255D02*
X134930552Y-112084017D01*
X134930552Y-112084017D02*
X134740076Y-111893541D01*
X134740076Y-111893541D02*
X134644838Y-111703065D01*
X136549600Y-110084017D02*
X136644838Y-109798303D01*
X136644838Y-109798303D02*
X136644838Y-109322112D01*
X136644838Y-109322112D02*
X136549600Y-109131636D01*
X136549600Y-109131636D02*
X136454361Y-109036398D01*
X136454361Y-109036398D02*
X136263885Y-108941160D01*
X136263885Y-108941160D02*
X136073409Y-108941160D01*
X136073409Y-108941160D02*
X135882933Y-109036398D01*
X135882933Y-109036398D02*
X135787695Y-109131636D01*
X135787695Y-109131636D02*
X135692457Y-109322112D01*
X135692457Y-109322112D02*
X135597219Y-109703065D01*
X135597219Y-109703065D02*
X135501980Y-109893541D01*
X135501980Y-109893541D02*
X135406742Y-109988779D01*
X135406742Y-109988779D02*
X135216266Y-110084017D01*
X135216266Y-110084017D02*
X135025790Y-110084017D01*
X135025790Y-110084017D02*
X134835314Y-109988779D01*
X134835314Y-109988779D02*
X134740076Y-109893541D01*
X134740076Y-109893541D02*
X134644838Y-109703065D01*
X134644838Y-109703065D02*
X134644838Y-109226874D01*
X134644838Y-109226874D02*
X134740076Y-108941160D01*
X134644838Y-108274493D02*
X134644838Y-106941160D01*
X134644838Y-106941160D02*
X136644838Y-107798303D01*
X135311504Y-105322112D02*
X136644838Y-105322112D01*
X134549600Y-105798303D02*
X135978171Y-106274493D01*
X135978171Y-106274493D02*
X135978171Y-105036398D01*
X134549600Y-102845922D02*
X137121028Y-104560207D01*
X135597219Y-101512588D02*
X135597219Y-102179255D01*
X136644838Y-102179255D02*
X134644838Y-102179255D01*
X134644838Y-102179255D02*
X134644838Y-101226874D01*
X135311504Y-99607826D02*
X136644838Y-99607826D01*
X134549600Y-100084017D02*
X135978171Y-100560207D01*
X135978171Y-100560207D02*
X135978171Y-99322112D01*
X136644838Y-98560207D02*
X134644838Y-98560207D01*
X134644838Y-98560207D02*
X134644838Y-98084017D01*
X134644838Y-98084017D02*
X134740076Y-97798302D01*
X134740076Y-97798302D02*
X134930552Y-97607826D01*
X134930552Y-97607826D02*
X135121028Y-97512588D01*
X135121028Y-97512588D02*
X135501980Y-97417350D01*
X135501980Y-97417350D02*
X135787695Y-97417350D01*
X135787695Y-97417350D02*
X136168647Y-97512588D01*
X136168647Y-97512588D02*
X136359123Y-97607826D01*
X136359123Y-97607826D02*
X136549600Y-97798302D01*
X136549600Y-97798302D02*
X136644838Y-98084017D01*
X136644838Y-98084017D02*
X136644838Y-98560207D01*
X135597219Y-96560207D02*
X135597219Y-95893540D01*
X136644838Y-95607826D02*
X136644838Y-96560207D01*
X136644838Y-96560207D02*
X134644838Y-96560207D01*
X134644838Y-96560207D02*
X134644838Y-95607826D01*
X135597219Y-94084016D02*
X135692457Y-93798302D01*
X135692457Y-93798302D02*
X135787695Y-93703064D01*
X135787695Y-93703064D02*
X135978171Y-93607826D01*
X135978171Y-93607826D02*
X136263885Y-93607826D01*
X136263885Y-93607826D02*
X136454361Y-93703064D01*
X136454361Y-93703064D02*
X136549600Y-93798302D01*
X136549600Y-93798302D02*
X136644838Y-93988778D01*
X136644838Y-93988778D02*
X136644838Y-94750683D01*
X136644838Y-94750683D02*
X134644838Y-94750683D01*
X134644838Y-94750683D02*
X134644838Y-94084016D01*
X134644838Y-94084016D02*
X134740076Y-93893540D01*
X134740076Y-93893540D02*
X134835314Y-93798302D01*
X134835314Y-93798302D02*
X135025790Y-93703064D01*
X135025790Y-93703064D02*
X135216266Y-93703064D01*
X135216266Y-93703064D02*
X135406742Y-93798302D01*
X135406742Y-93798302D02*
X135501980Y-93893540D01*
X135501980Y-93893540D02*
X135597219Y-94084016D01*
X135597219Y-94084016D02*
X135597219Y-94750683D01*
X139757768Y-132094838D02*
X139757768Y-130094838D01*
X139757768Y-130094838D02*
X140233958Y-130094838D01*
X140233958Y-130094838D02*
X140519673Y-130190076D01*
X140519673Y-130190076D02*
X140710149Y-130380552D01*
X140710149Y-130380552D02*
X140805387Y-130571028D01*
X140805387Y-130571028D02*
X140900625Y-130951980D01*
X140900625Y-130951980D02*
X140900625Y-131237695D01*
X140900625Y-131237695D02*
X140805387Y-131618647D01*
X140805387Y-131618647D02*
X140710149Y-131809123D01*
X140710149Y-131809123D02*
X140519673Y-131999600D01*
X140519673Y-131999600D02*
X140233958Y-132094838D01*
X140233958Y-132094838D02*
X139757768Y-132094838D01*
X141662530Y-131999600D02*
X141948244Y-132094838D01*
X141948244Y-132094838D02*
X142424435Y-132094838D01*
X142424435Y-132094838D02*
X142614911Y-131999600D01*
X142614911Y-131999600D02*
X142710149Y-131904361D01*
X142710149Y-131904361D02*
X142805387Y-131713885D01*
X142805387Y-131713885D02*
X142805387Y-131523409D01*
X142805387Y-131523409D02*
X142710149Y-131332933D01*
X142710149Y-131332933D02*
X142614911Y-131237695D01*
X142614911Y-131237695D02*
X142424435Y-131142457D01*
X142424435Y-131142457D02*
X142043482Y-131047219D01*
X142043482Y-131047219D02*
X141853006Y-130951980D01*
X141853006Y-130951980D02*
X141757768Y-130856742D01*
X141757768Y-130856742D02*
X141662530Y-130666266D01*
X141662530Y-130666266D02*
X141662530Y-130475790D01*
X141662530Y-130475790D02*
X141757768Y-130285314D01*
X141757768Y-130285314D02*
X141853006Y-130190076D01*
X141853006Y-130190076D02*
X142043482Y-130094838D01*
X142043482Y-130094838D02*
X142519673Y-130094838D01*
X142519673Y-130094838D02*
X142805387Y-130190076D01*
X144710149Y-132094838D02*
X143567292Y-132094838D01*
X144138720Y-132094838D02*
X144138720Y-130094838D01*
X144138720Y-130094838D02*
X143948244Y-130380552D01*
X143948244Y-130380552D02*
X143757768Y-130571028D01*
X143757768Y-130571028D02*
X143567292Y-130666266D01*
X145853006Y-130951980D02*
X145662530Y-130856742D01*
X145662530Y-130856742D02*
X145567292Y-130761504D01*
X145567292Y-130761504D02*
X145472054Y-130571028D01*
X145472054Y-130571028D02*
X145472054Y-130475790D01*
X145472054Y-130475790D02*
X145567292Y-130285314D01*
X145567292Y-130285314D02*
X145662530Y-130190076D01*
X145662530Y-130190076D02*
X145853006Y-130094838D01*
X145853006Y-130094838D02*
X146233959Y-130094838D01*
X146233959Y-130094838D02*
X146424435Y-130190076D01*
X146424435Y-130190076D02*
X146519673Y-130285314D01*
X146519673Y-130285314D02*
X146614911Y-130475790D01*
X146614911Y-130475790D02*
X146614911Y-130571028D01*
X146614911Y-130571028D02*
X146519673Y-130761504D01*
X146519673Y-130761504D02*
X146424435Y-130856742D01*
X146424435Y-130856742D02*
X146233959Y-130951980D01*
X146233959Y-130951980D02*
X145853006Y-130951980D01*
X145853006Y-130951980D02*
X145662530Y-131047219D01*
X145662530Y-131047219D02*
X145567292Y-131142457D01*
X145567292Y-131142457D02*
X145472054Y-131332933D01*
X145472054Y-131332933D02*
X145472054Y-131713885D01*
X145472054Y-131713885D02*
X145567292Y-131904361D01*
X145567292Y-131904361D02*
X145662530Y-131999600D01*
X145662530Y-131999600D02*
X145853006Y-132094838D01*
X145853006Y-132094838D02*
X146233959Y-132094838D01*
X146233959Y-132094838D02*
X146424435Y-131999600D01*
X146424435Y-131999600D02*
X146519673Y-131904361D01*
X146519673Y-131904361D02*
X146614911Y-131713885D01*
X146614911Y-131713885D02*
X146614911Y-131332933D01*
X146614911Y-131332933D02*
X146519673Y-131142457D01*
X146519673Y-131142457D02*
X146424435Y-131047219D01*
X146424435Y-131047219D02*
X146233959Y-130951980D01*
X148138721Y-131047219D02*
X148424435Y-131142457D01*
X148424435Y-131142457D02*
X148519673Y-131237695D01*
X148519673Y-131237695D02*
X148614911Y-131428171D01*
X148614911Y-131428171D02*
X148614911Y-131713885D01*
X148614911Y-131713885D02*
X148519673Y-131904361D01*
X148519673Y-131904361D02*
X148424435Y-131999600D01*
X148424435Y-131999600D02*
X148233959Y-132094838D01*
X148233959Y-132094838D02*
X147472054Y-132094838D01*
X147472054Y-132094838D02*
X147472054Y-130094838D01*
X147472054Y-130094838D02*
X148138721Y-130094838D01*
X148138721Y-130094838D02*
X148329197Y-130190076D01*
X148329197Y-130190076D02*
X148424435Y-130285314D01*
X148424435Y-130285314D02*
X148519673Y-130475790D01*
X148519673Y-130475790D02*
X148519673Y-130666266D01*
X148519673Y-130666266D02*
X148424435Y-130856742D01*
X148424435Y-130856742D02*
X148329197Y-130951980D01*
X148329197Y-130951980D02*
X148138721Y-131047219D01*
X148138721Y-131047219D02*
X147472054Y-131047219D01*
X149376816Y-130285314D02*
X149472054Y-130190076D01*
X149472054Y-130190076D02*
X149662530Y-130094838D01*
X149662530Y-130094838D02*
X150138721Y-130094838D01*
X150138721Y-130094838D02*
X150329197Y-130190076D01*
X150329197Y-130190076D02*
X150424435Y-130285314D01*
X150424435Y-130285314D02*
X150519673Y-130475790D01*
X150519673Y-130475790D02*
X150519673Y-130666266D01*
X150519673Y-130666266D02*
X150424435Y-130951980D01*
X150424435Y-130951980D02*
X149281578Y-132094838D01*
X149281578Y-132094838D02*
X150519673Y-132094838D01*
X151757768Y-130094838D02*
X151948245Y-130094838D01*
X151948245Y-130094838D02*
X152138721Y-130190076D01*
X152138721Y-130190076D02*
X152233959Y-130285314D01*
X152233959Y-130285314D02*
X152329197Y-130475790D01*
X152329197Y-130475790D02*
X152424435Y-130856742D01*
X152424435Y-130856742D02*
X152424435Y-131332933D01*
X152424435Y-131332933D02*
X152329197Y-131713885D01*
X152329197Y-131713885D02*
X152233959Y-131904361D01*
X152233959Y-131904361D02*
X152138721Y-131999600D01*
X152138721Y-131999600D02*
X151948245Y-132094838D01*
X151948245Y-132094838D02*
X151757768Y-132094838D01*
X151757768Y-132094838D02*
X151567292Y-131999600D01*
X151567292Y-131999600D02*
X151472054Y-131904361D01*
X151472054Y-131904361D02*
X151376816Y-131713885D01*
X151376816Y-131713885D02*
X151281578Y-131332933D01*
X151281578Y-131332933D02*
X151281578Y-130856742D01*
X151281578Y-130856742D02*
X151376816Y-130475790D01*
X151376816Y-130475790D02*
X151472054Y-130285314D01*
X151472054Y-130285314D02*
X151567292Y-130190076D01*
X151567292Y-130190076D02*
X151757768Y-130094838D01*
X127855161Y-60422054D02*
X127855161Y-61564911D01*
X125855161Y-60993482D02*
X127855161Y-60993482D01*
X125855161Y-63374435D02*
X126807542Y-62707768D01*
X125855161Y-62231578D02*
X127855161Y-62231578D01*
X127855161Y-62231578D02*
X127855161Y-62993483D01*
X127855161Y-62993483D02*
X127759923Y-63183959D01*
X127759923Y-63183959D02*
X127664685Y-63279197D01*
X127664685Y-63279197D02*
X127474209Y-63374435D01*
X127474209Y-63374435D02*
X127188495Y-63374435D01*
X127188495Y-63374435D02*
X126998019Y-63279197D01*
X126998019Y-63279197D02*
X126902780Y-63183959D01*
X126902780Y-63183959D02*
X126807542Y-62993483D01*
X126807542Y-62993483D02*
X126807542Y-62231578D01*
X125855161Y-64231578D02*
X127855161Y-64231578D01*
X126426590Y-65088721D02*
X126426590Y-66041102D01*
X125855161Y-64898245D02*
X127855161Y-65564911D01*
X127855161Y-65564911D02*
X125855161Y-66231578D01*
X126045638Y-68041102D02*
X125950400Y-67945864D01*
X125950400Y-67945864D02*
X125855161Y-67660150D01*
X125855161Y-67660150D02*
X125855161Y-67469674D01*
X125855161Y-67469674D02*
X125950400Y-67183959D01*
X125950400Y-67183959D02*
X126140876Y-66993483D01*
X126140876Y-66993483D02*
X126331352Y-66898245D01*
X126331352Y-66898245D02*
X126712304Y-66803007D01*
X126712304Y-66803007D02*
X126998019Y-66803007D01*
X126998019Y-66803007D02*
X127378971Y-66898245D01*
X127378971Y-66898245D02*
X127569447Y-66993483D01*
X127569447Y-66993483D02*
X127759923Y-67183959D01*
X127759923Y-67183959D02*
X127855161Y-67469674D01*
X127855161Y-67469674D02*
X127855161Y-67660150D01*
X127855161Y-67660150D02*
X127759923Y-67945864D01*
X127759923Y-67945864D02*
X127664685Y-68041102D01*
X127455161Y-79007768D02*
X125836114Y-79007768D01*
X125836114Y-79007768D02*
X125645638Y-79103006D01*
X125645638Y-79103006D02*
X125550400Y-79198244D01*
X125550400Y-79198244D02*
X125455161Y-79388720D01*
X125455161Y-79388720D02*
X125455161Y-79769673D01*
X125455161Y-79769673D02*
X125550400Y-79960149D01*
X125550400Y-79960149D02*
X125645638Y-80055387D01*
X125645638Y-80055387D02*
X125836114Y-80150625D01*
X125836114Y-80150625D02*
X127455161Y-80150625D01*
X127455161Y-80912530D02*
X125455161Y-82245863D01*
X127455161Y-82245863D02*
X125455161Y-80912530D01*
X125455161Y-83960149D02*
X125455161Y-83007768D01*
X125455161Y-83007768D02*
X127455161Y-83007768D01*
X125455161Y-85674435D02*
X125455161Y-84531578D01*
X125455161Y-85103006D02*
X127455161Y-85103006D01*
X127455161Y-85103006D02*
X127169447Y-84912530D01*
X127169447Y-84912530D02*
X126978971Y-84722054D01*
X126978971Y-84722054D02*
X126883733Y-84531578D01*
D12*
X176324819Y-58154166D02*
X175848628Y-58487499D01*
X176324819Y-58725594D02*
X175324819Y-58725594D01*
X175324819Y-58725594D02*
X175324819Y-58344642D01*
X175324819Y-58344642D02*
X175372438Y-58249404D01*
X175372438Y-58249404D02*
X175420057Y-58201785D01*
X175420057Y-58201785D02*
X175515295Y-58154166D01*
X175515295Y-58154166D02*
X175658152Y-58154166D01*
X175658152Y-58154166D02*
X175753390Y-58201785D01*
X175753390Y-58201785D02*
X175801009Y-58249404D01*
X175801009Y-58249404D02*
X175848628Y-58344642D01*
X175848628Y-58344642D02*
X175848628Y-58725594D01*
X175420057Y-57773213D02*
X175372438Y-57725594D01*
X175372438Y-57725594D02*
X175324819Y-57630356D01*
X175324819Y-57630356D02*
X175324819Y-57392261D01*
X175324819Y-57392261D02*
X175372438Y-57297023D01*
X175372438Y-57297023D02*
X175420057Y-57249404D01*
X175420057Y-57249404D02*
X175515295Y-57201785D01*
X175515295Y-57201785D02*
X175610533Y-57201785D01*
X175610533Y-57201785D02*
X175753390Y-57249404D01*
X175753390Y-57249404D02*
X176324819Y-57820832D01*
X176324819Y-57820832D02*
X176324819Y-57201785D01*
X196526666Y-52854819D02*
X196526666Y-53569104D01*
X196526666Y-53569104D02*
X196479047Y-53711961D01*
X196479047Y-53711961D02*
X196383809Y-53807200D01*
X196383809Y-53807200D02*
X196240952Y-53854819D01*
X196240952Y-53854819D02*
X196145714Y-53854819D01*
X197431428Y-52854819D02*
X197240952Y-52854819D01*
X197240952Y-52854819D02*
X197145714Y-52902438D01*
X197145714Y-52902438D02*
X197098095Y-52950057D01*
X197098095Y-52950057D02*
X197002857Y-53092914D01*
X197002857Y-53092914D02*
X196955238Y-53283390D01*
X196955238Y-53283390D02*
X196955238Y-53664342D01*
X196955238Y-53664342D02*
X197002857Y-53759580D01*
X197002857Y-53759580D02*
X197050476Y-53807200D01*
X197050476Y-53807200D02*
X197145714Y-53854819D01*
X197145714Y-53854819D02*
X197336190Y-53854819D01*
X197336190Y-53854819D02*
X197431428Y-53807200D01*
X197431428Y-53807200D02*
X197479047Y-53759580D01*
X197479047Y-53759580D02*
X197526666Y-53664342D01*
X197526666Y-53664342D02*
X197526666Y-53426247D01*
X197526666Y-53426247D02*
X197479047Y-53331009D01*
X197479047Y-53331009D02*
X197431428Y-53283390D01*
X197431428Y-53283390D02*
X197336190Y-53235771D01*
X197336190Y-53235771D02*
X197145714Y-53235771D01*
X197145714Y-53235771D02*
X197050476Y-53283390D01*
X197050476Y-53283390D02*
X197002857Y-53331009D01*
X197002857Y-53331009D02*
X196955238Y-53426247D01*
X169379166Y-119047319D02*
X169379166Y-119761604D01*
X169379166Y-119761604D02*
X169331547Y-119904461D01*
X169331547Y-119904461D02*
X169236309Y-119999700D01*
X169236309Y-119999700D02*
X169093452Y-120047319D01*
X169093452Y-120047319D02*
X168998214Y-120047319D01*
X170283928Y-119380652D02*
X170283928Y-120047319D01*
X170045833Y-118999700D02*
X169807738Y-119713985D01*
X169807738Y-119713985D02*
X170426785Y-119713985D01*
X191684819Y-94830357D02*
X191208628Y-95163690D01*
X191684819Y-95401785D02*
X190684819Y-95401785D01*
X190684819Y-95401785D02*
X190684819Y-95020833D01*
X190684819Y-95020833D02*
X190732438Y-94925595D01*
X190732438Y-94925595D02*
X190780057Y-94877976D01*
X190780057Y-94877976D02*
X190875295Y-94830357D01*
X190875295Y-94830357D02*
X191018152Y-94830357D01*
X191018152Y-94830357D02*
X191113390Y-94877976D01*
X191113390Y-94877976D02*
X191161009Y-94925595D01*
X191161009Y-94925595D02*
X191208628Y-95020833D01*
X191208628Y-95020833D02*
X191208628Y-95401785D01*
X191684819Y-93877976D02*
X191684819Y-94449404D01*
X191684819Y-94163690D02*
X190684819Y-94163690D01*
X190684819Y-94163690D02*
X190827676Y-94258928D01*
X190827676Y-94258928D02*
X190922914Y-94354166D01*
X190922914Y-94354166D02*
X190970533Y-94449404D01*
X190684819Y-93258928D02*
X190684819Y-93163690D01*
X190684819Y-93163690D02*
X190732438Y-93068452D01*
X190732438Y-93068452D02*
X190780057Y-93020833D01*
X190780057Y-93020833D02*
X190875295Y-92973214D01*
X190875295Y-92973214D02*
X191065771Y-92925595D01*
X191065771Y-92925595D02*
X191303866Y-92925595D01*
X191303866Y-92925595D02*
X191494342Y-92973214D01*
X191494342Y-92973214D02*
X191589580Y-93020833D01*
X191589580Y-93020833D02*
X191637200Y-93068452D01*
X191637200Y-93068452D02*
X191684819Y-93163690D01*
X191684819Y-93163690D02*
X191684819Y-93258928D01*
X191684819Y-93258928D02*
X191637200Y-93354166D01*
X191637200Y-93354166D02*
X191589580Y-93401785D01*
X191589580Y-93401785D02*
X191494342Y-93449404D01*
X191494342Y-93449404D02*
X191303866Y-93497023D01*
X191303866Y-93497023D02*
X191065771Y-93497023D01*
X191065771Y-93497023D02*
X190875295Y-93449404D01*
X190875295Y-93449404D02*
X190780057Y-93401785D01*
X190780057Y-93401785D02*
X190732438Y-93354166D01*
X190732438Y-93354166D02*
X190684819Y-93258928D01*
X196038095Y-90154819D02*
X196609523Y-90154819D01*
X196323809Y-91154819D02*
X196323809Y-90154819D01*
X197514285Y-91154819D02*
X197180952Y-90678628D01*
X196942857Y-91154819D02*
X196942857Y-90154819D01*
X196942857Y-90154819D02*
X197323809Y-90154819D01*
X197323809Y-90154819D02*
X197419047Y-90202438D01*
X197419047Y-90202438D02*
X197466666Y-90250057D01*
X197466666Y-90250057D02*
X197514285Y-90345295D01*
X197514285Y-90345295D02*
X197514285Y-90488152D01*
X197514285Y-90488152D02*
X197466666Y-90583390D01*
X197466666Y-90583390D02*
X197419047Y-90631009D01*
X197419047Y-90631009D02*
X197323809Y-90678628D01*
X197323809Y-90678628D02*
X196942857Y-90678628D01*
X198466666Y-91154819D02*
X197895238Y-91154819D01*
X198180952Y-91154819D02*
X198180952Y-90154819D01*
X198180952Y-90154819D02*
X198085714Y-90297676D01*
X198085714Y-90297676D02*
X197990476Y-90392914D01*
X197990476Y-90392914D02*
X197895238Y-90440533D01*
X190038095Y-87154819D02*
X189561905Y-87154819D01*
X189561905Y-87154819D02*
X189514286Y-87631009D01*
X189514286Y-87631009D02*
X189561905Y-87583390D01*
X189561905Y-87583390D02*
X189657143Y-87535771D01*
X189657143Y-87535771D02*
X189895238Y-87535771D01*
X189895238Y-87535771D02*
X189990476Y-87583390D01*
X189990476Y-87583390D02*
X190038095Y-87631009D01*
X190038095Y-87631009D02*
X190085714Y-87726247D01*
X190085714Y-87726247D02*
X190085714Y-87964342D01*
X190085714Y-87964342D02*
X190038095Y-88059580D01*
X190038095Y-88059580D02*
X189990476Y-88107200D01*
X189990476Y-88107200D02*
X189895238Y-88154819D01*
X189895238Y-88154819D02*
X189657143Y-88154819D01*
X189657143Y-88154819D02*
X189561905Y-88107200D01*
X189561905Y-88107200D02*
X189514286Y-88059580D01*
X194990476Y-87154819D02*
X194800000Y-87154819D01*
X194800000Y-87154819D02*
X194704762Y-87202438D01*
X194704762Y-87202438D02*
X194657143Y-87250057D01*
X194657143Y-87250057D02*
X194561905Y-87392914D01*
X194561905Y-87392914D02*
X194514286Y-87583390D01*
X194514286Y-87583390D02*
X194514286Y-87964342D01*
X194514286Y-87964342D02*
X194561905Y-88059580D01*
X194561905Y-88059580D02*
X194609524Y-88107200D01*
X194609524Y-88107200D02*
X194704762Y-88154819D01*
X194704762Y-88154819D02*
X194895238Y-88154819D01*
X194895238Y-88154819D02*
X194990476Y-88107200D01*
X194990476Y-88107200D02*
X195038095Y-88059580D01*
X195038095Y-88059580D02*
X195085714Y-87964342D01*
X195085714Y-87964342D02*
X195085714Y-87726247D01*
X195085714Y-87726247D02*
X195038095Y-87631009D01*
X195038095Y-87631009D02*
X194990476Y-87583390D01*
X194990476Y-87583390D02*
X194895238Y-87535771D01*
X194895238Y-87535771D02*
X194704762Y-87535771D01*
X194704762Y-87535771D02*
X194609524Y-87583390D01*
X194609524Y-87583390D02*
X194561905Y-87631009D01*
X194561905Y-87631009D02*
X194514286Y-87726247D01*
X199514286Y-67750057D02*
X199561905Y-67702438D01*
X199561905Y-67702438D02*
X199657143Y-67654819D01*
X199657143Y-67654819D02*
X199895238Y-67654819D01*
X199895238Y-67654819D02*
X199990476Y-67702438D01*
X199990476Y-67702438D02*
X200038095Y-67750057D01*
X200038095Y-67750057D02*
X200085714Y-67845295D01*
X200085714Y-67845295D02*
X200085714Y-67940533D01*
X200085714Y-67940533D02*
X200038095Y-68083390D01*
X200038095Y-68083390D02*
X199466667Y-68654819D01*
X199466667Y-68654819D02*
X200085714Y-68654819D01*
X194466667Y-67654819D02*
X195085714Y-67654819D01*
X195085714Y-67654819D02*
X194752381Y-68035771D01*
X194752381Y-68035771D02*
X194895238Y-68035771D01*
X194895238Y-68035771D02*
X194990476Y-68083390D01*
X194990476Y-68083390D02*
X195038095Y-68131009D01*
X195038095Y-68131009D02*
X195085714Y-68226247D01*
X195085714Y-68226247D02*
X195085714Y-68464342D01*
X195085714Y-68464342D02*
X195038095Y-68559580D01*
X195038095Y-68559580D02*
X194990476Y-68607200D01*
X194990476Y-68607200D02*
X194895238Y-68654819D01*
X194895238Y-68654819D02*
X194609524Y-68654819D01*
X194609524Y-68654819D02*
X194514286Y-68607200D01*
X194514286Y-68607200D02*
X194466667Y-68559580D01*
X205085714Y-68654819D02*
X204514286Y-68654819D01*
X204800000Y-68654819D02*
X204800000Y-67654819D01*
X204800000Y-67654819D02*
X204704762Y-67797676D01*
X204704762Y-67797676D02*
X204609524Y-67892914D01*
X204609524Y-67892914D02*
X204514286Y-67940533D01*
X189990476Y-67988152D02*
X189990476Y-68654819D01*
X189752381Y-67607200D02*
X189514286Y-68321485D01*
X189514286Y-68321485D02*
X190133333Y-68321485D01*
X199466667Y-87154819D02*
X200133333Y-87154819D01*
X200133333Y-87154819D02*
X199704762Y-88154819D01*
X204704762Y-87583390D02*
X204609524Y-87535771D01*
X204609524Y-87535771D02*
X204561905Y-87488152D01*
X204561905Y-87488152D02*
X204514286Y-87392914D01*
X204514286Y-87392914D02*
X204514286Y-87345295D01*
X204514286Y-87345295D02*
X204561905Y-87250057D01*
X204561905Y-87250057D02*
X204609524Y-87202438D01*
X204609524Y-87202438D02*
X204704762Y-87154819D01*
X204704762Y-87154819D02*
X204895238Y-87154819D01*
X204895238Y-87154819D02*
X204990476Y-87202438D01*
X204990476Y-87202438D02*
X205038095Y-87250057D01*
X205038095Y-87250057D02*
X205085714Y-87345295D01*
X205085714Y-87345295D02*
X205085714Y-87392914D01*
X205085714Y-87392914D02*
X205038095Y-87488152D01*
X205038095Y-87488152D02*
X204990476Y-87535771D01*
X204990476Y-87535771D02*
X204895238Y-87583390D01*
X204895238Y-87583390D02*
X204704762Y-87583390D01*
X204704762Y-87583390D02*
X204609524Y-87631009D01*
X204609524Y-87631009D02*
X204561905Y-87678628D01*
X204561905Y-87678628D02*
X204514286Y-87773866D01*
X204514286Y-87773866D02*
X204514286Y-87964342D01*
X204514286Y-87964342D02*
X204561905Y-88059580D01*
X204561905Y-88059580D02*
X204609524Y-88107200D01*
X204609524Y-88107200D02*
X204704762Y-88154819D01*
X204704762Y-88154819D02*
X204895238Y-88154819D01*
X204895238Y-88154819D02*
X204990476Y-88107200D01*
X204990476Y-88107200D02*
X205038095Y-88059580D01*
X205038095Y-88059580D02*
X205085714Y-87964342D01*
X205085714Y-87964342D02*
X205085714Y-87773866D01*
X205085714Y-87773866D02*
X205038095Y-87678628D01*
X205038095Y-87678628D02*
X204990476Y-87631009D01*
X204990476Y-87631009D02*
X204895238Y-87583390D01*
X137204819Y-82423333D02*
X137919104Y-82423333D01*
X137919104Y-82423333D02*
X138061961Y-82470952D01*
X138061961Y-82470952D02*
X138157200Y-82566190D01*
X138157200Y-82566190D02*
X138204819Y-82709047D01*
X138204819Y-82709047D02*
X138204819Y-82804285D01*
X137204819Y-81470952D02*
X137204819Y-81947142D01*
X137204819Y-81947142D02*
X137681009Y-81994761D01*
X137681009Y-81994761D02*
X137633390Y-81947142D01*
X137633390Y-81947142D02*
X137585771Y-81851904D01*
X137585771Y-81851904D02*
X137585771Y-81613809D01*
X137585771Y-81613809D02*
X137633390Y-81518571D01*
X137633390Y-81518571D02*
X137681009Y-81470952D01*
X137681009Y-81470952D02*
X137776247Y-81423333D01*
X137776247Y-81423333D02*
X138014342Y-81423333D01*
X138014342Y-81423333D02*
X138109580Y-81470952D01*
X138109580Y-81470952D02*
X138157200Y-81518571D01*
X138157200Y-81518571D02*
X138204819Y-81613809D01*
X138204819Y-81613809D02*
X138204819Y-81851904D01*
X138204819Y-81851904D02*
X138157200Y-81947142D01*
X138157200Y-81947142D02*
X138109580Y-81994761D01*
X193788095Y-124824819D02*
X193788095Y-125634342D01*
X193788095Y-125634342D02*
X193835714Y-125729580D01*
X193835714Y-125729580D02*
X193883333Y-125777200D01*
X193883333Y-125777200D02*
X193978571Y-125824819D01*
X193978571Y-125824819D02*
X194169047Y-125824819D01*
X194169047Y-125824819D02*
X194264285Y-125777200D01*
X194264285Y-125777200D02*
X194311904Y-125729580D01*
X194311904Y-125729580D02*
X194359523Y-125634342D01*
X194359523Y-125634342D02*
X194359523Y-124824819D01*
X194788095Y-124920057D02*
X194835714Y-124872438D01*
X194835714Y-124872438D02*
X194930952Y-124824819D01*
X194930952Y-124824819D02*
X195169047Y-124824819D01*
X195169047Y-124824819D02*
X195264285Y-124872438D01*
X195264285Y-124872438D02*
X195311904Y-124920057D01*
X195311904Y-124920057D02*
X195359523Y-125015295D01*
X195359523Y-125015295D02*
X195359523Y-125110533D01*
X195359523Y-125110533D02*
X195311904Y-125253390D01*
X195311904Y-125253390D02*
X194740476Y-125824819D01*
X194740476Y-125824819D02*
X195359523Y-125824819D01*
D13*
X140280595Y-45842419D02*
X140280595Y-46651942D01*
X140280595Y-46651942D02*
X140328214Y-46747180D01*
X140328214Y-46747180D02*
X140375833Y-46794800D01*
X140375833Y-46794800D02*
X140471071Y-46842419D01*
X140471071Y-46842419D02*
X140661547Y-46842419D01*
X140661547Y-46842419D02*
X140756785Y-46794800D01*
X140756785Y-46794800D02*
X140804404Y-46747180D01*
X140804404Y-46747180D02*
X140852023Y-46651942D01*
X140852023Y-46651942D02*
X140852023Y-45842419D01*
X141232976Y-45842419D02*
X141852023Y-45842419D01*
X141852023Y-45842419D02*
X141518690Y-46223371D01*
X141518690Y-46223371D02*
X141661547Y-46223371D01*
X141661547Y-46223371D02*
X141756785Y-46270990D01*
X141756785Y-46270990D02*
X141804404Y-46318609D01*
X141804404Y-46318609D02*
X141852023Y-46413847D01*
X141852023Y-46413847D02*
X141852023Y-46651942D01*
X141852023Y-46651942D02*
X141804404Y-46747180D01*
X141804404Y-46747180D02*
X141756785Y-46794800D01*
X141756785Y-46794800D02*
X141661547Y-46842419D01*
X141661547Y-46842419D02*
X141375833Y-46842419D01*
X141375833Y-46842419D02*
X141280595Y-46794800D01*
X141280595Y-46794800D02*
X141232976Y-46747180D01*
D12*
X203859580Y-98566666D02*
X203907200Y-98614285D01*
X203907200Y-98614285D02*
X203954819Y-98757142D01*
X203954819Y-98757142D02*
X203954819Y-98852380D01*
X203954819Y-98852380D02*
X203907200Y-98995237D01*
X203907200Y-98995237D02*
X203811961Y-99090475D01*
X203811961Y-99090475D02*
X203716723Y-99138094D01*
X203716723Y-99138094D02*
X203526247Y-99185713D01*
X203526247Y-99185713D02*
X203383390Y-99185713D01*
X203383390Y-99185713D02*
X203192914Y-99138094D01*
X203192914Y-99138094D02*
X203097676Y-99090475D01*
X203097676Y-99090475D02*
X203002438Y-98995237D01*
X203002438Y-98995237D02*
X202954819Y-98852380D01*
X202954819Y-98852380D02*
X202954819Y-98757142D01*
X202954819Y-98757142D02*
X203002438Y-98614285D01*
X203002438Y-98614285D02*
X203050057Y-98566666D01*
X203050057Y-98185713D02*
X203002438Y-98138094D01*
X203002438Y-98138094D02*
X202954819Y-98042856D01*
X202954819Y-98042856D02*
X202954819Y-97804761D01*
X202954819Y-97804761D02*
X203002438Y-97709523D01*
X203002438Y-97709523D02*
X203050057Y-97661904D01*
X203050057Y-97661904D02*
X203145295Y-97614285D01*
X203145295Y-97614285D02*
X203240533Y-97614285D01*
X203240533Y-97614285D02*
X203383390Y-97661904D01*
X203383390Y-97661904D02*
X203954819Y-98233332D01*
X203954819Y-98233332D02*
X203954819Y-97614285D01*
X141345833Y-116524819D02*
X141012500Y-116048628D01*
X140774405Y-116524819D02*
X140774405Y-115524819D01*
X140774405Y-115524819D02*
X141155357Y-115524819D01*
X141155357Y-115524819D02*
X141250595Y-115572438D01*
X141250595Y-115572438D02*
X141298214Y-115620057D01*
X141298214Y-115620057D02*
X141345833Y-115715295D01*
X141345833Y-115715295D02*
X141345833Y-115858152D01*
X141345833Y-115858152D02*
X141298214Y-115953390D01*
X141298214Y-115953390D02*
X141250595Y-116001009D01*
X141250595Y-116001009D02*
X141155357Y-116048628D01*
X141155357Y-116048628D02*
X140774405Y-116048628D01*
X141679167Y-115524819D02*
X142298214Y-115524819D01*
X142298214Y-115524819D02*
X141964881Y-115905771D01*
X141964881Y-115905771D02*
X142107738Y-115905771D01*
X142107738Y-115905771D02*
X142202976Y-115953390D01*
X142202976Y-115953390D02*
X142250595Y-116001009D01*
X142250595Y-116001009D02*
X142298214Y-116096247D01*
X142298214Y-116096247D02*
X142298214Y-116334342D01*
X142298214Y-116334342D02*
X142250595Y-116429580D01*
X142250595Y-116429580D02*
X142202976Y-116477200D01*
X142202976Y-116477200D02*
X142107738Y-116524819D01*
X142107738Y-116524819D02*
X141822024Y-116524819D01*
X141822024Y-116524819D02*
X141726786Y-116477200D01*
X141726786Y-116477200D02*
X141679167Y-116429580D01*
X176004819Y-54413094D02*
X175004819Y-54413094D01*
X175004819Y-54413094D02*
X175004819Y-54174999D01*
X175004819Y-54174999D02*
X175052438Y-54032142D01*
X175052438Y-54032142D02*
X175147676Y-53936904D01*
X175147676Y-53936904D02*
X175242914Y-53889285D01*
X175242914Y-53889285D02*
X175433390Y-53841666D01*
X175433390Y-53841666D02*
X175576247Y-53841666D01*
X175576247Y-53841666D02*
X175766723Y-53889285D01*
X175766723Y-53889285D02*
X175861961Y-53936904D01*
X175861961Y-53936904D02*
X175957200Y-54032142D01*
X175957200Y-54032142D02*
X176004819Y-54174999D01*
X176004819Y-54174999D02*
X176004819Y-54413094D01*
X176004819Y-52889285D02*
X176004819Y-53460713D01*
X176004819Y-53174999D02*
X175004819Y-53174999D01*
X175004819Y-53174999D02*
X175147676Y-53270237D01*
X175147676Y-53270237D02*
X175242914Y-53365475D01*
X175242914Y-53365475D02*
X175290533Y-53460713D01*
X173024819Y-58179166D02*
X172548628Y-58512499D01*
X173024819Y-58750594D02*
X172024819Y-58750594D01*
X172024819Y-58750594D02*
X172024819Y-58369642D01*
X172024819Y-58369642D02*
X172072438Y-58274404D01*
X172072438Y-58274404D02*
X172120057Y-58226785D01*
X172120057Y-58226785D02*
X172215295Y-58179166D01*
X172215295Y-58179166D02*
X172358152Y-58179166D01*
X172358152Y-58179166D02*
X172453390Y-58226785D01*
X172453390Y-58226785D02*
X172501009Y-58274404D01*
X172501009Y-58274404D02*
X172548628Y-58369642D01*
X172548628Y-58369642D02*
X172548628Y-58750594D01*
X173024819Y-57226785D02*
X173024819Y-57798213D01*
X173024819Y-57512499D02*
X172024819Y-57512499D01*
X172024819Y-57512499D02*
X172167676Y-57607737D01*
X172167676Y-57607737D02*
X172262914Y-57702975D01*
X172262914Y-57702975D02*
X172310533Y-57798213D01*
X183884819Y-96079166D02*
X183408628Y-96412499D01*
X183884819Y-96650594D02*
X182884819Y-96650594D01*
X182884819Y-96650594D02*
X182884819Y-96269642D01*
X182884819Y-96269642D02*
X182932438Y-96174404D01*
X182932438Y-96174404D02*
X182980057Y-96126785D01*
X182980057Y-96126785D02*
X183075295Y-96079166D01*
X183075295Y-96079166D02*
X183218152Y-96079166D01*
X183218152Y-96079166D02*
X183313390Y-96126785D01*
X183313390Y-96126785D02*
X183361009Y-96174404D01*
X183361009Y-96174404D02*
X183408628Y-96269642D01*
X183408628Y-96269642D02*
X183408628Y-96650594D01*
X182884819Y-95222023D02*
X182884819Y-95412499D01*
X182884819Y-95412499D02*
X182932438Y-95507737D01*
X182932438Y-95507737D02*
X182980057Y-95555356D01*
X182980057Y-95555356D02*
X183122914Y-95650594D01*
X183122914Y-95650594D02*
X183313390Y-95698213D01*
X183313390Y-95698213D02*
X183694342Y-95698213D01*
X183694342Y-95698213D02*
X183789580Y-95650594D01*
X183789580Y-95650594D02*
X183837200Y-95602975D01*
X183837200Y-95602975D02*
X183884819Y-95507737D01*
X183884819Y-95507737D02*
X183884819Y-95317261D01*
X183884819Y-95317261D02*
X183837200Y-95222023D01*
X183837200Y-95222023D02*
X183789580Y-95174404D01*
X183789580Y-95174404D02*
X183694342Y-95126785D01*
X183694342Y-95126785D02*
X183456247Y-95126785D01*
X183456247Y-95126785D02*
X183361009Y-95174404D01*
X183361009Y-95174404D02*
X183313390Y-95222023D01*
X183313390Y-95222023D02*
X183265771Y-95317261D01*
X183265771Y-95317261D02*
X183265771Y-95507737D01*
X183265771Y-95507737D02*
X183313390Y-95602975D01*
X183313390Y-95602975D02*
X183361009Y-95650594D01*
X183361009Y-95650594D02*
X183456247Y-95698213D01*
X214009580Y-96266666D02*
X214057200Y-96314285D01*
X214057200Y-96314285D02*
X214104819Y-96457142D01*
X214104819Y-96457142D02*
X214104819Y-96552380D01*
X214104819Y-96552380D02*
X214057200Y-96695237D01*
X214057200Y-96695237D02*
X213961961Y-96790475D01*
X213961961Y-96790475D02*
X213866723Y-96838094D01*
X213866723Y-96838094D02*
X213676247Y-96885713D01*
X213676247Y-96885713D02*
X213533390Y-96885713D01*
X213533390Y-96885713D02*
X213342914Y-96838094D01*
X213342914Y-96838094D02*
X213247676Y-96790475D01*
X213247676Y-96790475D02*
X213152438Y-96695237D01*
X213152438Y-96695237D02*
X213104819Y-96552380D01*
X213104819Y-96552380D02*
X213104819Y-96457142D01*
X213104819Y-96457142D02*
X213152438Y-96314285D01*
X213152438Y-96314285D02*
X213200057Y-96266666D01*
X214104819Y-95314285D02*
X214104819Y-95885713D01*
X214104819Y-95599999D02*
X213104819Y-95599999D01*
X213104819Y-95599999D02*
X213247676Y-95695237D01*
X213247676Y-95695237D02*
X213342914Y-95790475D01*
X213342914Y-95790475D02*
X213390533Y-95885713D01*
X202284819Y-94454166D02*
X201808628Y-94787499D01*
X202284819Y-95025594D02*
X201284819Y-95025594D01*
X201284819Y-95025594D02*
X201284819Y-94644642D01*
X201284819Y-94644642D02*
X201332438Y-94549404D01*
X201332438Y-94549404D02*
X201380057Y-94501785D01*
X201380057Y-94501785D02*
X201475295Y-94454166D01*
X201475295Y-94454166D02*
X201618152Y-94454166D01*
X201618152Y-94454166D02*
X201713390Y-94501785D01*
X201713390Y-94501785D02*
X201761009Y-94549404D01*
X201761009Y-94549404D02*
X201808628Y-94644642D01*
X201808628Y-94644642D02*
X201808628Y-95025594D01*
X201713390Y-93882737D02*
X201665771Y-93977975D01*
X201665771Y-93977975D02*
X201618152Y-94025594D01*
X201618152Y-94025594D02*
X201522914Y-94073213D01*
X201522914Y-94073213D02*
X201475295Y-94073213D01*
X201475295Y-94073213D02*
X201380057Y-94025594D01*
X201380057Y-94025594D02*
X201332438Y-93977975D01*
X201332438Y-93977975D02*
X201284819Y-93882737D01*
X201284819Y-93882737D02*
X201284819Y-93692261D01*
X201284819Y-93692261D02*
X201332438Y-93597023D01*
X201332438Y-93597023D02*
X201380057Y-93549404D01*
X201380057Y-93549404D02*
X201475295Y-93501785D01*
X201475295Y-93501785D02*
X201522914Y-93501785D01*
X201522914Y-93501785D02*
X201618152Y-93549404D01*
X201618152Y-93549404D02*
X201665771Y-93597023D01*
X201665771Y-93597023D02*
X201713390Y-93692261D01*
X201713390Y-93692261D02*
X201713390Y-93882737D01*
X201713390Y-93882737D02*
X201761009Y-93977975D01*
X201761009Y-93977975D02*
X201808628Y-94025594D01*
X201808628Y-94025594D02*
X201903866Y-94073213D01*
X201903866Y-94073213D02*
X202094342Y-94073213D01*
X202094342Y-94073213D02*
X202189580Y-94025594D01*
X202189580Y-94025594D02*
X202237200Y-93977975D01*
X202237200Y-93977975D02*
X202284819Y-93882737D01*
X202284819Y-93882737D02*
X202284819Y-93692261D01*
X202284819Y-93692261D02*
X202237200Y-93597023D01*
X202237200Y-93597023D02*
X202189580Y-93549404D01*
X202189580Y-93549404D02*
X202094342Y-93501785D01*
X202094342Y-93501785D02*
X201903866Y-93501785D01*
X201903866Y-93501785D02*
X201808628Y-93549404D01*
X201808628Y-93549404D02*
X201761009Y-93597023D01*
X201761009Y-93597023D02*
X201713390Y-93692261D01*
X179404819Y-54413094D02*
X178404819Y-54413094D01*
X178404819Y-54413094D02*
X178404819Y-54174999D01*
X178404819Y-54174999D02*
X178452438Y-54032142D01*
X178452438Y-54032142D02*
X178547676Y-53936904D01*
X178547676Y-53936904D02*
X178642914Y-53889285D01*
X178642914Y-53889285D02*
X178833390Y-53841666D01*
X178833390Y-53841666D02*
X178976247Y-53841666D01*
X178976247Y-53841666D02*
X179166723Y-53889285D01*
X179166723Y-53889285D02*
X179261961Y-53936904D01*
X179261961Y-53936904D02*
X179357200Y-54032142D01*
X179357200Y-54032142D02*
X179404819Y-54174999D01*
X179404819Y-54174999D02*
X179404819Y-54413094D01*
X178500057Y-53460713D02*
X178452438Y-53413094D01*
X178452438Y-53413094D02*
X178404819Y-53317856D01*
X178404819Y-53317856D02*
X178404819Y-53079761D01*
X178404819Y-53079761D02*
X178452438Y-52984523D01*
X178452438Y-52984523D02*
X178500057Y-52936904D01*
X178500057Y-52936904D02*
X178595295Y-52889285D01*
X178595295Y-52889285D02*
X178690533Y-52889285D01*
X178690533Y-52889285D02*
X178833390Y-52936904D01*
X178833390Y-52936904D02*
X179404819Y-53508332D01*
X179404819Y-53508332D02*
X179404819Y-52889285D01*
X137204819Y-62723333D02*
X137919104Y-62723333D01*
X137919104Y-62723333D02*
X138061961Y-62770952D01*
X138061961Y-62770952D02*
X138157200Y-62866190D01*
X138157200Y-62866190D02*
X138204819Y-63009047D01*
X138204819Y-63009047D02*
X138204819Y-63104285D01*
X137300057Y-62294761D02*
X137252438Y-62247142D01*
X137252438Y-62247142D02*
X137204819Y-62151904D01*
X137204819Y-62151904D02*
X137204819Y-61913809D01*
X137204819Y-61913809D02*
X137252438Y-61818571D01*
X137252438Y-61818571D02*
X137300057Y-61770952D01*
X137300057Y-61770952D02*
X137395295Y-61723333D01*
X137395295Y-61723333D02*
X137490533Y-61723333D01*
X137490533Y-61723333D02*
X137633390Y-61770952D01*
X137633390Y-61770952D02*
X138204819Y-62342380D01*
X138204819Y-62342380D02*
X138204819Y-61723333D01*
X195484819Y-116454166D02*
X195008628Y-116787499D01*
X195484819Y-117025594D02*
X194484819Y-117025594D01*
X194484819Y-117025594D02*
X194484819Y-116644642D01*
X194484819Y-116644642D02*
X194532438Y-116549404D01*
X194532438Y-116549404D02*
X194580057Y-116501785D01*
X194580057Y-116501785D02*
X194675295Y-116454166D01*
X194675295Y-116454166D02*
X194818152Y-116454166D01*
X194818152Y-116454166D02*
X194913390Y-116501785D01*
X194913390Y-116501785D02*
X194961009Y-116549404D01*
X194961009Y-116549404D02*
X195008628Y-116644642D01*
X195008628Y-116644642D02*
X195008628Y-117025594D01*
X194484819Y-115549404D02*
X194484819Y-116025594D01*
X194484819Y-116025594D02*
X194961009Y-116073213D01*
X194961009Y-116073213D02*
X194913390Y-116025594D01*
X194913390Y-116025594D02*
X194865771Y-115930356D01*
X194865771Y-115930356D02*
X194865771Y-115692261D01*
X194865771Y-115692261D02*
X194913390Y-115597023D01*
X194913390Y-115597023D02*
X194961009Y-115549404D01*
X194961009Y-115549404D02*
X195056247Y-115501785D01*
X195056247Y-115501785D02*
X195294342Y-115501785D01*
X195294342Y-115501785D02*
X195389580Y-115549404D01*
X195389580Y-115549404D02*
X195437200Y-115597023D01*
X195437200Y-115597023D02*
X195484819Y-115692261D01*
X195484819Y-115692261D02*
X195484819Y-115930356D01*
X195484819Y-115930356D02*
X195437200Y-116025594D01*
X195437200Y-116025594D02*
X195389580Y-116073213D01*
X210339819Y-128168333D02*
X211054104Y-128168333D01*
X211054104Y-128168333D02*
X211196961Y-128215952D01*
X211196961Y-128215952D02*
X211292200Y-128311190D01*
X211292200Y-128311190D02*
X211339819Y-128454047D01*
X211339819Y-128454047D02*
X211339819Y-128549285D01*
X211339819Y-127168333D02*
X211339819Y-127739761D01*
X211339819Y-127454047D02*
X210339819Y-127454047D01*
X210339819Y-127454047D02*
X210482676Y-127549285D01*
X210482676Y-127549285D02*
X210577914Y-127644523D01*
X210577914Y-127644523D02*
X210625533Y-127739761D01*
X137924819Y-75954166D02*
X137448628Y-76287499D01*
X137924819Y-76525594D02*
X136924819Y-76525594D01*
X136924819Y-76525594D02*
X136924819Y-76144642D01*
X136924819Y-76144642D02*
X136972438Y-76049404D01*
X136972438Y-76049404D02*
X137020057Y-76001785D01*
X137020057Y-76001785D02*
X137115295Y-75954166D01*
X137115295Y-75954166D02*
X137258152Y-75954166D01*
X137258152Y-75954166D02*
X137353390Y-76001785D01*
X137353390Y-76001785D02*
X137401009Y-76049404D01*
X137401009Y-76049404D02*
X137448628Y-76144642D01*
X137448628Y-76144642D02*
X137448628Y-76525594D01*
X137924819Y-75477975D02*
X137924819Y-75287499D01*
X137924819Y-75287499D02*
X137877200Y-75192261D01*
X137877200Y-75192261D02*
X137829580Y-75144642D01*
X137829580Y-75144642D02*
X137686723Y-75049404D01*
X137686723Y-75049404D02*
X137496247Y-75001785D01*
X137496247Y-75001785D02*
X137115295Y-75001785D01*
X137115295Y-75001785D02*
X137020057Y-75049404D01*
X137020057Y-75049404D02*
X136972438Y-75097023D01*
X136972438Y-75097023D02*
X136924819Y-75192261D01*
X136924819Y-75192261D02*
X136924819Y-75382737D01*
X136924819Y-75382737D02*
X136972438Y-75477975D01*
X136972438Y-75477975D02*
X137020057Y-75525594D01*
X137020057Y-75525594D02*
X137115295Y-75573213D01*
X137115295Y-75573213D02*
X137353390Y-75573213D01*
X137353390Y-75573213D02*
X137448628Y-75525594D01*
X137448628Y-75525594D02*
X137496247Y-75477975D01*
X137496247Y-75477975D02*
X137543866Y-75382737D01*
X137543866Y-75382737D02*
X137543866Y-75192261D01*
X137543866Y-75192261D02*
X137496247Y-75097023D01*
X137496247Y-75097023D02*
X137448628Y-75049404D01*
X137448628Y-75049404D02*
X137353390Y-75001785D01*
X182704761Y-98650057D02*
X182609523Y-98602438D01*
X182609523Y-98602438D02*
X182514285Y-98507200D01*
X182514285Y-98507200D02*
X182371428Y-98364342D01*
X182371428Y-98364342D02*
X182276190Y-98316723D01*
X182276190Y-98316723D02*
X182180952Y-98316723D01*
X182228571Y-98554819D02*
X182133333Y-98507200D01*
X182133333Y-98507200D02*
X182038095Y-98411961D01*
X182038095Y-98411961D02*
X181990476Y-98221485D01*
X181990476Y-98221485D02*
X181990476Y-97888152D01*
X181990476Y-97888152D02*
X182038095Y-97697676D01*
X182038095Y-97697676D02*
X182133333Y-97602438D01*
X182133333Y-97602438D02*
X182228571Y-97554819D01*
X182228571Y-97554819D02*
X182419047Y-97554819D01*
X182419047Y-97554819D02*
X182514285Y-97602438D01*
X182514285Y-97602438D02*
X182609523Y-97697676D01*
X182609523Y-97697676D02*
X182657142Y-97888152D01*
X182657142Y-97888152D02*
X182657142Y-98221485D01*
X182657142Y-98221485D02*
X182609523Y-98411961D01*
X182609523Y-98411961D02*
X182514285Y-98507200D01*
X182514285Y-98507200D02*
X182419047Y-98554819D01*
X182419047Y-98554819D02*
X182228571Y-98554819D01*
X183609523Y-98554819D02*
X183038095Y-98554819D01*
X183323809Y-98554819D02*
X183323809Y-97554819D01*
X183323809Y-97554819D02*
X183228571Y-97697676D01*
X183228571Y-97697676D02*
X183133333Y-97792914D01*
X183133333Y-97792914D02*
X183038095Y-97840533D01*
X145386666Y-119504819D02*
X145386666Y-120219104D01*
X145386666Y-120219104D02*
X145339047Y-120361961D01*
X145339047Y-120361961D02*
X145243809Y-120457200D01*
X145243809Y-120457200D02*
X145100952Y-120504819D01*
X145100952Y-120504819D02*
X145005714Y-120504819D01*
X145767619Y-119504819D02*
X146386666Y-119504819D01*
X146386666Y-119504819D02*
X146053333Y-119885771D01*
X146053333Y-119885771D02*
X146196190Y-119885771D01*
X146196190Y-119885771D02*
X146291428Y-119933390D01*
X146291428Y-119933390D02*
X146339047Y-119981009D01*
X146339047Y-119981009D02*
X146386666Y-120076247D01*
X146386666Y-120076247D02*
X146386666Y-120314342D01*
X146386666Y-120314342D02*
X146339047Y-120409580D01*
X146339047Y-120409580D02*
X146291428Y-120457200D01*
X146291428Y-120457200D02*
X146196190Y-120504819D01*
X146196190Y-120504819D02*
X145910476Y-120504819D01*
X145910476Y-120504819D02*
X145815238Y-120457200D01*
X145815238Y-120457200D02*
X145767619Y-120409580D01*
X205420833Y-122924819D02*
X205087500Y-122448628D01*
X204849405Y-122924819D02*
X204849405Y-121924819D01*
X204849405Y-121924819D02*
X205230357Y-121924819D01*
X205230357Y-121924819D02*
X205325595Y-121972438D01*
X205325595Y-121972438D02*
X205373214Y-122020057D01*
X205373214Y-122020057D02*
X205420833Y-122115295D01*
X205420833Y-122115295D02*
X205420833Y-122258152D01*
X205420833Y-122258152D02*
X205373214Y-122353390D01*
X205373214Y-122353390D02*
X205325595Y-122401009D01*
X205325595Y-122401009D02*
X205230357Y-122448628D01*
X205230357Y-122448628D02*
X204849405Y-122448628D01*
X206277976Y-122258152D02*
X206277976Y-122924819D01*
X206039881Y-121877200D02*
X205801786Y-122591485D01*
X205801786Y-122591485D02*
X206420833Y-122591485D01*
X196524819Y-94454166D02*
X196048628Y-94787499D01*
X196524819Y-95025594D02*
X195524819Y-95025594D01*
X195524819Y-95025594D02*
X195524819Y-94644642D01*
X195524819Y-94644642D02*
X195572438Y-94549404D01*
X195572438Y-94549404D02*
X195620057Y-94501785D01*
X195620057Y-94501785D02*
X195715295Y-94454166D01*
X195715295Y-94454166D02*
X195858152Y-94454166D01*
X195858152Y-94454166D02*
X195953390Y-94501785D01*
X195953390Y-94501785D02*
X196001009Y-94549404D01*
X196001009Y-94549404D02*
X196048628Y-94644642D01*
X196048628Y-94644642D02*
X196048628Y-95025594D01*
X195524819Y-94120832D02*
X195524819Y-93454166D01*
X195524819Y-93454166D02*
X196524819Y-93882737D01*
X191324819Y-94830357D02*
X190848628Y-95163690D01*
X191324819Y-95401785D02*
X190324819Y-95401785D01*
X190324819Y-95401785D02*
X190324819Y-95020833D01*
X190324819Y-95020833D02*
X190372438Y-94925595D01*
X190372438Y-94925595D02*
X190420057Y-94877976D01*
X190420057Y-94877976D02*
X190515295Y-94830357D01*
X190515295Y-94830357D02*
X190658152Y-94830357D01*
X190658152Y-94830357D02*
X190753390Y-94877976D01*
X190753390Y-94877976D02*
X190801009Y-94925595D01*
X190801009Y-94925595D02*
X190848628Y-95020833D01*
X190848628Y-95020833D02*
X190848628Y-95401785D01*
X191324819Y-93877976D02*
X191324819Y-94449404D01*
X191324819Y-94163690D02*
X190324819Y-94163690D01*
X190324819Y-94163690D02*
X190467676Y-94258928D01*
X190467676Y-94258928D02*
X190562914Y-94354166D01*
X190562914Y-94354166D02*
X190610533Y-94449404D01*
X191324819Y-92925595D02*
X191324819Y-93497023D01*
X191324819Y-93211309D02*
X190324819Y-93211309D01*
X190324819Y-93211309D02*
X190467676Y-93306547D01*
X190467676Y-93306547D02*
X190562914Y-93401785D01*
X190562914Y-93401785D02*
X190610533Y-93497023D01*
D14*
%TO.C,R2*%
X176777500Y-58242224D02*
X176777500Y-57732776D01*
X177822500Y-58242224D02*
X177822500Y-57732776D01*
%TO.C,J6*%
X190670000Y-55300000D02*
X193210000Y-55300000D01*
X191580000Y-56300000D02*
X202140000Y-56300000D01*
X191580000Y-61600000D02*
X191580000Y-56300000D01*
X192320000Y-61600000D02*
X191580000Y-61600000D01*
X194020000Y-53690000D02*
X194620000Y-53690000D01*
X194320000Y-54290000D02*
X194020000Y-53690000D01*
X194620000Y-53690000D02*
X194320000Y-54290000D01*
X195320000Y-55300000D02*
X198400000Y-55300000D01*
X196320000Y-61600000D02*
X197400000Y-61600000D01*
X202140000Y-56300000D02*
X202140000Y-61600000D01*
X202140000Y-61600000D02*
X201400000Y-61600000D01*
X203050000Y-55300000D02*
X200510000Y-55300000D01*
X190670000Y-54490000D02*
X203050000Y-54490000D01*
X203050000Y-63310000D01*
X190670000Y-63310000D01*
X190670000Y-54490000D01*
X193320000Y-54490000D02*
X195320000Y-54490000D01*
X195320000Y-56300000D01*
X193320000Y-56300000D01*
X193320000Y-54490000D01*
X198400000Y-54490000D02*
X200400000Y-54490000D01*
X200400000Y-56300000D01*
X198400000Y-56300000D01*
X198400000Y-54490000D01*
X196306842Y-61615821D02*
G75*
G02*
X192320000Y-61600000I-1986842J1665821D01*
G01*
X201386842Y-61615821D02*
G75*
G02*
X197400000Y-61600000I-1986842J1665821D01*
G01*
%TO.C,J4*%
X164712500Y-120292500D02*
X166712500Y-120292500D01*
X164712500Y-121542500D02*
X164712500Y-120292500D01*
X166312500Y-121642500D02*
X169312500Y-121642500D01*
X166312500Y-122992500D02*
X167062500Y-122992500D01*
X166312500Y-127292500D02*
X166312500Y-122992500D01*
X166562500Y-122642500D02*
X166312500Y-121642500D01*
X167062500Y-122642500D02*
X166562500Y-122642500D01*
X167062500Y-122992500D02*
X167062500Y-122642500D01*
X167062500Y-127292500D02*
X166312500Y-127292500D01*
X168562500Y-122642500D02*
X168562500Y-122992500D01*
X168562500Y-122992500D02*
X169312500Y-122992500D01*
X169062500Y-122642500D02*
X168562500Y-122642500D01*
X169312500Y-121642500D02*
X169062500Y-122642500D01*
X169312500Y-122992500D02*
X169312500Y-127292500D01*
X169312500Y-127292500D02*
X168562500Y-127292500D01*
X170122500Y-121642500D02*
X173122500Y-121642500D01*
X170122500Y-122992500D02*
X170872500Y-122992500D01*
X170122500Y-127292500D02*
X170122500Y-122992500D01*
X170372500Y-122642500D02*
X170122500Y-121642500D01*
X170872500Y-122642500D02*
X170372500Y-122642500D01*
X170872500Y-122992500D02*
X170872500Y-122642500D01*
X170872500Y-127292500D02*
X170122500Y-127292500D01*
X172372500Y-122642500D02*
X172372500Y-122992500D01*
X172372500Y-122992500D02*
X173122500Y-122992500D01*
X172872500Y-122642500D02*
X172372500Y-122642500D01*
X173122500Y-121642500D02*
X172872500Y-122642500D01*
X173122500Y-122992500D02*
X173122500Y-127292500D01*
X173122500Y-127292500D02*
X172372500Y-127292500D01*
X165102500Y-120682500D02*
X174332500Y-120682500D01*
X174332500Y-128152500D01*
X165102500Y-128152500D01*
X165102500Y-120682500D01*
X167062500Y-127292500D02*
G75*
G02*
X168562147Y-127292344I750000J-1700000D01*
G01*
X170872500Y-127292500D02*
G75*
G02*
X172372147Y-127292344I750000J-1700000D01*
G01*
%TO.C,R10*%
X189277500Y-93932776D02*
X189277500Y-94442224D01*
X190322500Y-93932776D02*
X190322500Y-94442224D01*
%TO.C,TR1*%
X185180000Y-67080000D02*
X185180000Y-89320000D01*
X185180000Y-67080000D02*
X209420000Y-67080000D01*
X188300000Y-69700000D02*
X188300000Y-86700000D01*
X188800000Y-69700000D02*
X188300000Y-69700000D01*
X188800000Y-86700000D02*
X188300000Y-86700000D01*
X193800000Y-86700000D02*
X190800000Y-86700000D01*
X198800000Y-69700000D02*
X190800000Y-69700000D01*
X198800000Y-86700000D02*
X195800000Y-86700000D01*
X200800000Y-69700000D02*
X203300000Y-69700000D01*
X203800000Y-86700000D02*
X200800000Y-86700000D01*
X205800000Y-86700000D02*
X206300000Y-86700000D01*
X206300000Y-69700000D02*
X206300000Y-86700000D01*
X209420000Y-89320000D02*
X185180000Y-89320000D01*
X209420000Y-89320000D02*
X209420000Y-67080000D01*
%TO.C,J5*%
X130050000Y-78690000D02*
X134350000Y-78690000D01*
X130050000Y-79440000D02*
X130050000Y-78690000D01*
X130050000Y-81690000D02*
X130050000Y-80940000D01*
X130050000Y-82500000D02*
X134350000Y-82500000D01*
X130050000Y-83250000D02*
X130050000Y-82500000D01*
X130050000Y-85500000D02*
X130050000Y-84750000D01*
X134350000Y-78690000D02*
X134350000Y-79440000D01*
X134350000Y-79440000D02*
X134700000Y-79440000D01*
X134350000Y-80940000D02*
X134350000Y-81690000D01*
X134350000Y-81690000D02*
X130050000Y-81690000D01*
X134350000Y-82500000D02*
X134350000Y-83250000D01*
X134350000Y-83250000D02*
X134700000Y-83250000D01*
X134350000Y-84750000D02*
X134350000Y-85500000D01*
X134350000Y-85500000D02*
X130050000Y-85500000D01*
X134700000Y-78940000D02*
X135700000Y-78690000D01*
X134700000Y-79440000D02*
X134700000Y-78940000D01*
X134700000Y-80940000D02*
X134350000Y-80940000D01*
X134700000Y-81440000D02*
X134700000Y-80940000D01*
X134700000Y-82750000D02*
X135700000Y-82500000D01*
X134700000Y-83250000D02*
X134700000Y-82750000D01*
X134700000Y-84750000D02*
X134350000Y-84750000D01*
X134700000Y-85250000D02*
X134700000Y-84750000D01*
X135700000Y-78690000D02*
X135700000Y-81690000D01*
X135700000Y-81690000D02*
X134700000Y-81440000D01*
X135700000Y-82500000D02*
X135700000Y-85500000D01*
X135700000Y-85500000D02*
X134700000Y-85250000D01*
X135800000Y-77090000D02*
X137050000Y-77090000D01*
X137050000Y-77090000D02*
X137050000Y-79090000D01*
X136660000Y-77480000D02*
X129190000Y-77480000D01*
X129190000Y-86710000D01*
X136660000Y-86710000D01*
X136660000Y-77480000D01*
X130050000Y-79440000D02*
G75*
G02*
X130050156Y-80939647I-1700000J-750000D01*
G01*
X130050000Y-83250000D02*
G75*
G02*
X130050156Y-84749647I-1700000J-750000D01*
G01*
%TO.C,U2*%
X192240000Y-120410000D02*
X196860000Y-120410000D01*
X192240000Y-120640000D02*
X192240000Y-120410000D01*
X192240000Y-124530000D02*
X192240000Y-124300000D01*
X196860000Y-120410000D02*
X196860000Y-120640000D01*
X196860000Y-124300000D02*
X196860000Y-124530000D01*
X196860000Y-124530000D02*
X192240000Y-124530000D01*
X197700000Y-123180000D02*
X197360000Y-122710000D01*
X198040000Y-122710000D01*
X197700000Y-123180000D01*
G36*
X197700000Y-123180000D02*
G01*
X197360000Y-122710000D01*
X198040000Y-122710000D01*
X197700000Y-123180000D01*
G37*
%TO.C,U3*%
X140912500Y-56125000D02*
X168982500Y-56125000D01*
X141042500Y-105305000D02*
X141042500Y-58765000D01*
X168982500Y-56125000D02*
X168982500Y-105305000D01*
X168982500Y-105305000D02*
X141042500Y-105305000D01*
%TO.C,C2*%
X192240000Y-103404437D02*
X192240000Y-112860000D01*
X192240000Y-112860000D02*
X196290000Y-112860000D01*
X193304437Y-102340000D02*
X192240000Y-103404437D01*
X193304437Y-102340000D02*
X196290000Y-102340000D01*
X199960000Y-100850000D02*
X199960000Y-102100000D01*
X200585000Y-101475000D02*
X199335000Y-101475000D01*
X201695563Y-102340000D02*
X198710000Y-102340000D01*
X201695563Y-102340000D02*
X202760000Y-103404437D01*
X202760000Y-103404437D02*
X202760000Y-112860000D01*
X202760000Y-112860000D02*
X198710000Y-112860000D01*
%TO.C,R3*%
X141257776Y-116977500D02*
X141767224Y-116977500D01*
X141257776Y-118022500D02*
X141767224Y-118022500D01*
%TO.C,D1*%
X172940000Y-51815000D02*
X172940000Y-54675000D01*
X174860000Y-51815000D02*
X172940000Y-51815000D01*
X174860000Y-54675000D02*
X174860000Y-51815000D01*
%TO.C,R1*%
X173477500Y-58267224D02*
X173477500Y-57757776D01*
X174522500Y-58267224D02*
X174522500Y-57757776D01*
%TO.C,R6*%
X181477500Y-95657776D02*
X181477500Y-96167224D01*
X182522500Y-95657776D02*
X182522500Y-96167224D01*
%TO.C,C1*%
X205890000Y-93754437D02*
X205890000Y-99510000D01*
X205890000Y-99510000D02*
X208240000Y-99510000D01*
X206954437Y-92690000D02*
X205890000Y-93754437D01*
X206954437Y-92690000D02*
X208240000Y-92690000D01*
X211147500Y-91662500D02*
X211147500Y-92450000D01*
X211541250Y-92056250D02*
X210753750Y-92056250D01*
X211645563Y-92690000D02*
X210360000Y-92690000D01*
X211645563Y-92690000D02*
X212710000Y-93754437D01*
X212710000Y-93754437D02*
X212710000Y-99510000D01*
X212710000Y-99510000D02*
X210360000Y-99510000D01*
%TO.C,R8*%
X199877500Y-94032776D02*
X199877500Y-94542224D01*
X200922500Y-94032776D02*
X200922500Y-94542224D01*
%TO.C,D2*%
X176340000Y-51815000D02*
X176340000Y-54675000D01*
X178260000Y-51815000D02*
X176340000Y-51815000D01*
X178260000Y-54675000D02*
X178260000Y-51815000D01*
%TO.C,J2*%
X130050000Y-55170000D02*
X134350000Y-55170000D01*
X130050000Y-55920000D02*
X130050000Y-55170000D01*
X130050000Y-58170000D02*
X130050000Y-57420000D01*
X130050000Y-58980000D02*
X134350000Y-58980000D01*
X130050000Y-59730000D02*
X130050000Y-58980000D01*
X130050000Y-61980000D02*
X130050000Y-61230000D01*
X130050000Y-62790000D02*
X134350000Y-62790000D01*
X130050000Y-63540000D02*
X130050000Y-62790000D01*
X130050000Y-65790000D02*
X130050000Y-65040000D01*
X130050000Y-66600000D02*
X134350000Y-66600000D01*
X130050000Y-67350000D02*
X130050000Y-66600000D01*
X130050000Y-69600000D02*
X130050000Y-68850000D01*
X134350000Y-55170000D02*
X134350000Y-55920000D01*
X134350000Y-55920000D02*
X134700000Y-55920000D01*
X134350000Y-57420000D02*
X134350000Y-58170000D01*
X134350000Y-58170000D02*
X130050000Y-58170000D01*
X134350000Y-58980000D02*
X134350000Y-59730000D01*
X134350000Y-59730000D02*
X134700000Y-59730000D01*
X134350000Y-61230000D02*
X134350000Y-61980000D01*
X134350000Y-61980000D02*
X130050000Y-61980000D01*
X134350000Y-62790000D02*
X134350000Y-63540000D01*
X134350000Y-63540000D02*
X134700000Y-63540000D01*
X134350000Y-65040000D02*
X134350000Y-65790000D01*
X134350000Y-65790000D02*
X130050000Y-65790000D01*
X134350000Y-66600000D02*
X134350000Y-67350000D01*
X134350000Y-67350000D02*
X134700000Y-67350000D01*
X134350000Y-68850000D02*
X134350000Y-69600000D01*
X134350000Y-69600000D02*
X130050000Y-69600000D01*
X134700000Y-55420000D02*
X135700000Y-55170000D01*
X134700000Y-55920000D02*
X134700000Y-55420000D01*
X134700000Y-57420000D02*
X134350000Y-57420000D01*
X134700000Y-57920000D02*
X134700000Y-57420000D01*
X134700000Y-59230000D02*
X135700000Y-58980000D01*
X134700000Y-59730000D02*
X134700000Y-59230000D01*
X134700000Y-61230000D02*
X134350000Y-61230000D01*
X134700000Y-61730000D02*
X134700000Y-61230000D01*
X134700000Y-63040000D02*
X135700000Y-62790000D01*
X134700000Y-63540000D02*
X134700000Y-63040000D01*
X134700000Y-65040000D02*
X134350000Y-65040000D01*
X134700000Y-65540000D02*
X134700000Y-65040000D01*
X134700000Y-66850000D02*
X135700000Y-66600000D01*
X134700000Y-67350000D02*
X134700000Y-66850000D01*
X134700000Y-68850000D02*
X134350000Y-68850000D01*
X134700000Y-69350000D02*
X134700000Y-68850000D01*
X135700000Y-55170000D02*
X135700000Y-58170000D01*
X135700000Y-58170000D02*
X134700000Y-57920000D01*
X135700000Y-58980000D02*
X135700000Y-61980000D01*
X135700000Y-61980000D02*
X134700000Y-61730000D01*
X135700000Y-62790000D02*
X135700000Y-65790000D01*
X135700000Y-65790000D02*
X134700000Y-65540000D01*
X135700000Y-66600000D02*
X135700000Y-69600000D01*
X135700000Y-69600000D02*
X134700000Y-69350000D01*
X135800000Y-53570000D02*
X137050000Y-53570000D01*
X137050000Y-53570000D02*
X137050000Y-55570000D01*
X136660000Y-53960000D02*
X129190000Y-53960000D01*
X129190000Y-70810000D01*
X136660000Y-70810000D01*
X136660000Y-53960000D01*
X130050000Y-55920000D02*
G75*
G02*
X130050156Y-57419647I-1700000J-750000D01*
G01*
X130050000Y-59730000D02*
G75*
G02*
X130050156Y-61229647I-1700000J-750000D01*
G01*
X130050000Y-63540000D02*
G75*
G02*
X130050156Y-65039647I-1700000J-750000D01*
G01*
X130050000Y-67350000D02*
G75*
G02*
X130050156Y-68849647I-1700000J-750000D01*
G01*
%TO.C,R5*%
X193077500Y-116032776D02*
X193077500Y-116542224D01*
X194122500Y-116032776D02*
X194122500Y-116542224D01*
%TO.C,J1*%
X211790000Y-117190000D02*
X217530000Y-117190000D01*
X211790000Y-129610000D02*
X211790000Y-117190000D01*
X211790000Y-129610000D02*
X217530000Y-129610000D01*
X213560000Y-116530000D02*
X214060000Y-117030000D01*
X213560000Y-116530000D02*
X214560000Y-116530000D01*
X214060000Y-117030000D02*
X214560000Y-116530000D01*
X220280000Y-117190000D02*
X225010000Y-117190000D01*
X220280000Y-129610000D02*
X225010000Y-129610000D01*
X225010000Y-129610000D02*
X225010000Y-117190000D01*
%TO.C,R9*%
X138377500Y-76042224D02*
X138377500Y-75532776D01*
X139422500Y-76042224D02*
X139422500Y-75532776D01*
%TO.C,Q1*%
X182102500Y-98940000D02*
X183622500Y-98940000D01*
X182102500Y-98990000D02*
X182102500Y-98940000D01*
X182102500Y-100890000D02*
X182102500Y-100110000D01*
X182102500Y-102060000D02*
X182102500Y-102010000D01*
X183622500Y-98940000D02*
X183622500Y-99940000D01*
X183622500Y-101060000D02*
X183622500Y-102060000D01*
X183622500Y-102060000D02*
X182102500Y-102060000D01*
X181802500Y-100450000D02*
X181322500Y-100450000D01*
X181562500Y-100120000D01*
X181802500Y-100450000D01*
G36*
X181802500Y-100450000D02*
G01*
X181322500Y-100450000D01*
X181562500Y-100120000D01*
X181802500Y-100450000D01*
G37*
%TO.C,J3*%
X136900000Y-120750000D02*
X138900000Y-120750000D01*
X136900000Y-122000000D02*
X136900000Y-120750000D01*
X138500000Y-122100000D02*
X141500000Y-122100000D01*
X138500000Y-123450000D02*
X139250000Y-123450000D01*
X138500000Y-127750000D02*
X138500000Y-123450000D01*
X138750000Y-123100000D02*
X138500000Y-122100000D01*
X139250000Y-123100000D02*
X138750000Y-123100000D01*
X139250000Y-123450000D02*
X139250000Y-123100000D01*
X139250000Y-127750000D02*
X138500000Y-127750000D01*
X140750000Y-123100000D02*
X140750000Y-123450000D01*
X140750000Y-123450000D02*
X141500000Y-123450000D01*
X141250000Y-123100000D02*
X140750000Y-123100000D01*
X141500000Y-122100000D02*
X141250000Y-123100000D01*
X141500000Y-123450000D02*
X141500000Y-127750000D01*
X141500000Y-127750000D02*
X140750000Y-127750000D01*
X142310000Y-122100000D02*
X145310000Y-122100000D01*
X142310000Y-123450000D02*
X143060000Y-123450000D01*
X142310000Y-127750000D02*
X142310000Y-123450000D01*
X142560000Y-123100000D02*
X142310000Y-122100000D01*
X143060000Y-123100000D02*
X142560000Y-123100000D01*
X143060000Y-123450000D02*
X143060000Y-123100000D01*
X143060000Y-127750000D02*
X142310000Y-127750000D01*
X144560000Y-123100000D02*
X144560000Y-123450000D01*
X144560000Y-123450000D02*
X145310000Y-123450000D01*
X145060000Y-123100000D02*
X144560000Y-123100000D01*
X145310000Y-122100000D02*
X145060000Y-123100000D01*
X145310000Y-123450000D02*
X145310000Y-127750000D01*
X145310000Y-127750000D02*
X144560000Y-127750000D01*
X146120000Y-122100000D02*
X149120000Y-122100000D01*
X146120000Y-123450000D02*
X146870000Y-123450000D01*
X146120000Y-127750000D02*
X146120000Y-123450000D01*
X146370000Y-123100000D02*
X146120000Y-122100000D01*
X146870000Y-123100000D02*
X146370000Y-123100000D01*
X146870000Y-123450000D02*
X146870000Y-123100000D01*
X146870000Y-127750000D02*
X146120000Y-127750000D01*
X148370000Y-123100000D02*
X148370000Y-123450000D01*
X148370000Y-123450000D02*
X149120000Y-123450000D01*
X148870000Y-123100000D02*
X148370000Y-123100000D01*
X149120000Y-122100000D02*
X148870000Y-123100000D01*
X149120000Y-123450000D02*
X149120000Y-127750000D01*
X149120000Y-127750000D02*
X148370000Y-127750000D01*
X149930000Y-122100000D02*
X152930000Y-122100000D01*
X149930000Y-123450000D02*
X150680000Y-123450000D01*
X149930000Y-127750000D02*
X149930000Y-123450000D01*
X150180000Y-123100000D02*
X149930000Y-122100000D01*
X150680000Y-123100000D02*
X150180000Y-123100000D01*
X150680000Y-123450000D02*
X150680000Y-123100000D01*
X150680000Y-127750000D02*
X149930000Y-127750000D01*
X152180000Y-123100000D02*
X152180000Y-123450000D01*
X152180000Y-123450000D02*
X152930000Y-123450000D01*
X152680000Y-123100000D02*
X152180000Y-123100000D01*
X152930000Y-122100000D02*
X152680000Y-123100000D01*
X152930000Y-123450000D02*
X152930000Y-127750000D01*
X152930000Y-127750000D02*
X152180000Y-127750000D01*
X137290000Y-121140000D02*
X154140000Y-121140000D01*
X154140000Y-128610000D01*
X137290000Y-128610000D01*
X137290000Y-121140000D01*
X139250000Y-127750000D02*
G75*
G02*
X140749647Y-127749844I750000J-1700000D01*
G01*
X143060000Y-127750000D02*
G75*
G02*
X144559647Y-127749844I750000J-1700000D01*
G01*
X146870000Y-127750000D02*
G75*
G02*
X148369647Y-127749844I750000J-1700000D01*
G01*
X150680000Y-127750000D02*
G75*
G02*
X152179647Y-127749844I750000J-1700000D01*
G01*
%TO.C,R4*%
X205332776Y-123377500D02*
X205842224Y-123377500D01*
X205332776Y-124422500D02*
X205842224Y-124422500D01*
%TO.C,R7*%
X196977500Y-94542224D02*
X196977500Y-94032776D01*
X198022500Y-94542224D02*
X198022500Y-94032776D01*
%TO.C,R11*%
X191777500Y-94442224D02*
X191777500Y-93932776D01*
X192822500Y-94442224D02*
X192822500Y-93932776D01*
%TD*%
M02*
