%TF.GenerationSoftware,KiCad,Pcbnew,9.0.7*%
%TF.CreationDate,2026-07-07T23:03:13+02:00*%
%TF.ProjectId,Routeur_solaire,526f7574-6575-4725-9f73-6f6c61697265,rev?*%
%TF.SameCoordinates,Original*%
%TF.FileFunction,Paste,Top*%
%TF.FilePolarity,Positive*%
%FSLAX46Y46*%
G04 Gerber Fmt 4.6, Leading zero omitted, Abs format (unit mm)*
G04 Created by KiCad (PCBNEW 9.0.7) date 2026-07-07 23:03:13*
%MOMM*%
%LPD*%
G01*
G04 APERTURE LIST*
G04 Aperture macros list*
%AMRoundRect*
0 Rectangle with rounded corners*
0 $1 Rounding radius*
0 $2 $3 $4 $5 $6 $7 $8 $9 X,Y pos of 4 corners*
0 Add a 4 corners polygon primitive as box body*
4,1,4,$2,$3,$4,$5,$6,$7,$8,$9,$2,$3,0*
0 Add four circle primitives for the rounded corners*
1,1,$1+$1,$2,$3*
1,1,$1+$1,$4,$5*
1,1,$1+$1,$6,$7*
1,1,$1+$1,$8,$9*
0 Add four rect primitives between the rounded corners*
20,1,$1+$1,$2,$3,$4,$5,0*
20,1,$1+$1,$4,$5,$6,$7,0*
20,1,$1+$1,$6,$7,$8,$9,0*
20,1,$1+$1,$8,$9,$2,$3,0*%
G04 Aperture macros list end*
%ADD10C,0.100000*%
%ADD11RoundRect,0.237500X0.237500X-0.250000X0.237500X0.250000X-0.237500X0.250000X-0.237500X-0.250000X0*%
%ADD12RoundRect,0.237500X-0.237500X0.250000X-0.237500X-0.250000X0.237500X-0.250000X0.237500X0.250000X0*%
%ADD13RoundRect,0.150000X0.750000X0.150000X-0.750000X0.150000X-0.750000X-0.150000X0.750000X-0.150000X0*%
%ADD14RoundRect,0.250000X-0.700000X1.950000X-0.700000X-1.950000X0.700000X-1.950000X0.700000X1.950000X0*%
%ADD15RoundRect,0.237500X-0.250000X-0.237500X0.250000X-0.237500X0.250000X0.237500X-0.250000X0.237500X0*%
%ADD16RoundRect,0.250000X-0.450000X0.325000X-0.450000X-0.325000X0.450000X-0.325000X0.450000X0.325000X0*%
%ADD17RoundRect,0.250000X-0.550000X1.500000X-0.550000X-1.500000X0.550000X-1.500000X0.550000X1.500000X0*%
%ADD18RoundRect,0.150000X-0.587500X-0.150000X0.587500X-0.150000X0.587500X0.150000X-0.587500X0.150000X0*%
G04 APERTURE END LIST*
D10*
X180000000Y-50800000D02*
X180200000Y-75100000D01*
X180200000Y-75100000D02*
X222400000Y-75100000D01*
D11*
%TO.C,R2*%
X177300000Y-58900000D03*
X177300000Y-57075000D03*
%TD*%
D12*
%TO.C,R10*%
X189800000Y-93275000D03*
X189800000Y-95100000D03*
%TD*%
D13*
%TO.C,U2*%
X197700000Y-123740000D03*
X197700000Y-121200000D03*
X191400000Y-121200000D03*
X191400000Y-123740000D03*
%TD*%
D14*
%TO.C,C2*%
X197500000Y-103250000D03*
X197500000Y-111950000D03*
%TD*%
D15*
%TO.C,R3*%
X140600000Y-117500000D03*
X142425000Y-117500000D03*
%TD*%
D16*
%TO.C,D1*%
X173900000Y-52650000D03*
X173900000Y-54700000D03*
%TD*%
D11*
%TO.C,R1*%
X174000000Y-58925000D03*
X174000000Y-57100000D03*
%TD*%
D12*
%TO.C,R6*%
X182000000Y-95000000D03*
X182000000Y-96825000D03*
%TD*%
D17*
%TO.C,C1*%
X209300000Y-93400000D03*
X209300000Y-98800000D03*
%TD*%
D12*
%TO.C,R8*%
X200400000Y-93375000D03*
X200400000Y-95200000D03*
%TD*%
D16*
%TO.C,D2*%
X177300000Y-52650000D03*
X177300000Y-54700000D03*
%TD*%
D12*
%TO.C,R5*%
X193600000Y-115375000D03*
X193600000Y-117200000D03*
%TD*%
D11*
%TO.C,R9*%
X138900000Y-76700000D03*
X138900000Y-74875000D03*
%TD*%
D18*
%TO.C,Q1*%
X181925000Y-99550000D03*
X181925000Y-101450000D03*
X183800000Y-100500000D03*
%TD*%
D15*
%TO.C,R4*%
X204675000Y-123900000D03*
X206500000Y-123900000D03*
%TD*%
D11*
%TO.C,R7*%
X197500000Y-95200000D03*
X197500000Y-93375000D03*
%TD*%
%TO.C,R11*%
X192300000Y-95100000D03*
X192300000Y-93275000D03*
%TD*%
M02*
