%TF.GenerationSoftware,KiCad,Pcbnew,9.0.7*%
%TF.CreationDate,2026-07-07T23:03:13+02:00*%
%TF.ProjectId,Routeur_solaire,526f7574-6575-4725-9f73-6f6c61697265,rev?*%
%TF.SameCoordinates,Original*%
%TF.FileFunction,Soldermask,Bot*%
%TF.FilePolarity,Negative*%
%FSLAX46Y46*%
G04 Gerber Fmt 4.6, Leading zero omitted, Abs format (unit mm)*
G04 Created by KiCad (PCBNEW 9.0.7) date 2026-07-07 23:03:13*
%MOMM*%
%LPD*%
G01*
G04 APERTURE LIST*
G04 Aperture macros list*
%AMRoundRect*
0 Rectangle with rounded corners*
0 $1 Rounding radius*
0 $2 $3 $4 $5 $6 $7 $8 $9 X,Y pos of 4 corners*
0 Add a 4 corners polygon primitive as box body*
4,1,4,$2,$3,$4,$5,$6,$7,$8,$9,$2,$3,0*
0 Add four circle primitives for the rounded corners*
1,1,$1+$1,$2,$3*
1,1,$1+$1,$4,$5*
1,1,$1+$1,$6,$7*
1,1,$1+$1,$8,$9*
0 Add four rect primitives between the rounded corners*
20,1,$1+$1,$2,$3,$4,$5,0*
20,1,$1+$1,$4,$5,$6,$7,0*
20,1,$1+$1,$6,$7,$8,$9,0*
20,1,$1+$1,$8,$9,$2,$3,0*%
G04 Aperture macros list end*
%ADD10RoundRect,0.249999X-0.790001X-1.550001X0.790001X-1.550001X0.790001X1.550001X-0.790001X1.550001X0*%
%ADD11O,2.080000X3.600000*%
%ADD12RoundRect,0.250000X-0.650000X-1.550000X0.650000X-1.550000X0.650000X1.550000X-0.650000X1.550000X0*%
%ADD13O,1.800000X3.600000*%
%ADD14R,2.000000X2.000000*%
%ADD15C,2.000000*%
%ADD16RoundRect,0.250000X-1.550000X0.650000X-1.550000X-0.650000X1.550000X-0.650000X1.550000X0.650000X0*%
%ADD17O,3.600000X1.800000*%
%ADD18R,1.800000X1.800000*%
%ADD19C,1.800000*%
%ADD20C,2.300000*%
%ADD21R,1.520000X1.520000*%
%ADD22C,1.520000*%
G04 APERTURE END LIST*
D10*
%TO.C,J6*%
X194320000Y-59400000D03*
D11*
X199400000Y-59400000D03*
%TD*%
D12*
%TO.C,J4*%
X167812500Y-125042500D03*
D13*
X171622500Y-125042500D03*
%TD*%
D14*
%TO.C,TR1*%
X204800000Y-70700000D03*
D15*
X199800000Y-70700000D03*
X189800000Y-70700000D03*
X189800000Y-85700000D03*
X194800000Y-85700000D03*
X199800000Y-85700000D03*
X204800000Y-85700000D03*
%TD*%
D16*
%TO.C,J5*%
X132300000Y-80190000D03*
D17*
X132300000Y-84000000D03*
%TD*%
D18*
%TO.C,U3*%
X142312500Y-58315000D03*
D19*
X142312500Y-60855000D03*
X142312500Y-63395000D03*
X142312500Y-65935000D03*
X142312500Y-68475000D03*
X142312500Y-71015000D03*
X142312500Y-73555000D03*
X142312500Y-76095000D03*
X142312500Y-78635000D03*
X142312500Y-81175000D03*
X142312500Y-83715000D03*
X142312500Y-86255000D03*
X142312500Y-88795000D03*
X142312500Y-91335000D03*
X142312500Y-93875000D03*
X142312500Y-96415000D03*
X142312500Y-98955000D03*
X142312500Y-101495000D03*
X142312500Y-104035000D03*
X167712500Y-104035000D03*
X167712500Y-101495000D03*
X167712500Y-98955000D03*
X167712500Y-96415000D03*
X167712500Y-93875000D03*
X167712500Y-91335000D03*
X167712500Y-88795000D03*
X167712500Y-86255000D03*
X167712500Y-83715000D03*
X167712500Y-81175000D03*
X167712500Y-78635000D03*
X167712500Y-76095000D03*
X167712500Y-73555000D03*
X167712500Y-71015000D03*
X167712500Y-68475000D03*
X167712500Y-65935000D03*
X167712500Y-63395000D03*
X167712500Y-60855000D03*
X167712500Y-58315000D03*
%TD*%
D16*
%TO.C,J2*%
X132300000Y-56670000D03*
D17*
X132300000Y-60480000D03*
X132300000Y-64290000D03*
X132300000Y-68100000D03*
%TD*%
D20*
%TO.C,J1*%
X218900000Y-129400000D03*
X218900000Y-117400000D03*
D21*
X214060000Y-120850000D03*
D22*
X216600000Y-121870000D03*
X214060000Y-122890000D03*
X216600000Y-123910000D03*
X214060000Y-124930000D03*
X216600000Y-125950000D03*
%TD*%
D12*
%TO.C,J3*%
X140000000Y-125500000D03*
D13*
X143810000Y-125500000D03*
X147620000Y-125500000D03*
X151430000Y-125500000D03*
%TD*%
M02*
