%TF.GenerationSoftware,KiCad,Pcbnew,9.0.7*%
%TF.CreationDate,2026-07-07T23:03:13+02:00*%
%TF.ProjectId,Routeur_solaire,526f7574-6575-4725-9f73-6f6c61697265,rev?*%
%TF.SameCoordinates,Original*%
%TF.FileFunction,Copper,L2,Bot*%
%TF.FilePolarity,Positive*%
%FSLAX46Y46*%
G04 Gerber Fmt 4.6, Leading zero omitted, Abs format (unit mm)*
G04 Created by KiCad (PCBNEW 9.0.7) date 2026-07-07 23:03:13*
%MOMM*%
%LPD*%
G01*
G04 APERTURE LIST*
G04 Aperture macros list*
%AMRoundRect*
0 Rectangle with rounded corners*
0 $1 Rounding radius*
0 $2 $3 $4 $5 $6 $7 $8 $9 X,Y pos of 4 corners*
0 Add a 4 corners polygon primitive as box body*
4,1,4,$2,$3,$4,$5,$6,$7,$8,$9,$2,$3,0*
0 Add four circle primitives for the rounded corners*
1,1,$1+$1,$2,$3*
1,1,$1+$1,$4,$5*
1,1,$1+$1,$6,$7*
1,1,$1+$1,$8,$9*
0 Add four rect primitives between the rounded corners*
20,1,$1+$1,$2,$3,$4,$5,0*
20,1,$1+$1,$4,$5,$6,$7,0*
20,1,$1+$1,$6,$7,$8,$9,0*
20,1,$1+$1,$8,$9,$2,$3,0*%
G04 Aperture macros list end*
%TA.AperFunction,ComponentPad*%
%ADD10RoundRect,0.249999X-0.790001X-1.550001X0.790001X-1.550001X0.790001X1.550001X-0.790001X1.550001X0*%
%TD*%
%TA.AperFunction,ComponentPad*%
%ADD11O,2.080000X3.600000*%
%TD*%
%TA.AperFunction,ComponentPad*%
%ADD12RoundRect,0.250000X-0.650000X-1.550000X0.650000X-1.550000X0.650000X1.550000X-0.650000X1.550000X0*%
%TD*%
%TA.AperFunction,ComponentPad*%
%ADD13O,1.800000X3.600000*%
%TD*%
%TA.AperFunction,ComponentPad*%
%ADD14R,2.000000X2.000000*%
%TD*%
%TA.AperFunction,ComponentPad*%
%ADD15C,2.000000*%
%TD*%
%TA.AperFunction,ComponentPad*%
%ADD16RoundRect,0.250000X-1.550000X0.650000X-1.550000X-0.650000X1.550000X-0.650000X1.550000X0.650000X0*%
%TD*%
%TA.AperFunction,ComponentPad*%
%ADD17O,3.600000X1.800000*%
%TD*%
%TA.AperFunction,ComponentPad*%
%ADD18R,1.800000X1.800000*%
%TD*%
%TA.AperFunction,ComponentPad*%
%ADD19C,1.800000*%
%TD*%
%TA.AperFunction,ComponentPad*%
%ADD20R,1.520000X1.520000*%
%TD*%
%TA.AperFunction,ComponentPad*%
%ADD21C,1.520000*%
%TD*%
%TA.AperFunction,ViaPad*%
%ADD22C,1.200000*%
%TD*%
%TA.AperFunction,ViaPad*%
%ADD23C,0.600000*%
%TD*%
%TA.AperFunction,Conductor*%
%ADD24C,0.400000*%
%TD*%
G04 APERTURE END LIST*
D10*
%TO.P,J6,1,Pin_1*%
%TO.N,Net-(J6-Pin_1)*%
X194320000Y-59400000D03*
D11*
%TO.P,J6,2,Pin_2*%
%TO.N,Net-(J6-Pin_2)*%
X199400000Y-59400000D03*
%TD*%
D12*
%TO.P,J4,1,Pin_1*%
%TO.N,+5V*%
X167812500Y-125042500D03*
D13*
%TO.P,J4,2,Pin_2*%
%TO.N,Net-(J4-Pin_2)*%
X171622500Y-125042500D03*
%TD*%
D14*
%TO.P,TR1,1*%
%TO.N,Net-(J6-Pin_2)*%
X204800000Y-70700000D03*
D15*
%TO.P,TR1,2*%
%TO.N,N/C*%
X199800000Y-70700000D03*
%TO.P,TR1,4*%
%TO.N,Net-(J6-Pin_1)*%
X189800000Y-70700000D03*
%TO.P,TR1,5*%
%TO.N,Net-(R10-Pad1)*%
X189800000Y-85700000D03*
%TO.P,TR1,6*%
%TO.N,/Neutre*%
X194800000Y-85700000D03*
%TO.P,TR1,7*%
%TO.N,unconnected-(TR1-Pad7)*%
X199800000Y-85700000D03*
%TO.P,TR1,8*%
%TO.N,unconnected-(TR1-Pad8)*%
X204800000Y-85700000D03*
%TD*%
D16*
%TO.P,J5,1,Pin_1*%
%TO.N,/Neutre*%
X132300000Y-80190000D03*
D17*
%TO.P,J5,2,Pin_2*%
%TO.N,/I220*%
X132300000Y-84000000D03*
%TD*%
D18*
%TO.P,U3,1,3.3V*%
%TO.N,+3.3V*%
X142312500Y-58315000D03*
D19*
%TO.P,U3,2,EN*%
%TO.N,unconnected-(U3-EN-Pad2)*%
X142312500Y-60855000D03*
%TO.P,U3,3,GPIO36/SVP*%
%TO.N,unconnected-(U3-GPIO36{slash}SVP-Pad3)*%
X142312500Y-63395000D03*
%TO.P,U3,4,GPIO39*%
%TO.N,unconnected-(U3-GPIO39-Pad4)*%
X142312500Y-65935000D03*
%TO.P,U3,5,GPIO34*%
%TO.N,unconnected-(U3-GPIO34-Pad5)*%
X142312500Y-68475000D03*
%TO.P,U3,6,GPIO35*%
%TO.N,/Neutre*%
X142312500Y-71015000D03*
%TO.P,U3,7,GPIO32*%
%TO.N,/V220*%
X142312500Y-73555000D03*
%TO.P,U3,8,GPIO33*%
%TO.N,/I220*%
X142312500Y-76095000D03*
%TO.P,U3,9,GPIO25*%
%TO.N,unconnected-(U3-GPIO25-Pad9)*%
X142312500Y-78635000D03*
%TO.P,U3,10,GPIO26*%
%TO.N,/linky*%
X142312500Y-81175000D03*
%TO.P,U3,11,GPIO27*%
%TO.N,unconnected-(U3-GPIO27-Pad11)*%
X142312500Y-83715000D03*
%TO.P,U3,12,GPIO14*%
%TO.N,unconnected-(U3-GPIO14-Pad12)*%
X142312500Y-86255000D03*
%TO.P,U3,13,GPIO12*%
%TO.N,unconnected-(U3-GPIO12-Pad13)*%
X142312500Y-88795000D03*
%TO.P,U3,14,GND*%
%TO.N,GND*%
X142312500Y-91335000D03*
%TO.P,U3,15,GPIO13*%
%TO.N,/temp*%
X142312500Y-93875000D03*
%TO.P,U3,16,GPIO9*%
%TO.N,unconnected-(U3-GPIO9-Pad16)*%
X142312500Y-96415000D03*
%TO.P,U3,17,GPIO10*%
%TO.N,unconnected-(U3-GPIO10-Pad17)*%
X142312500Y-98955000D03*
%TO.P,U3,18,GPIO11*%
%TO.N,unconnected-(U3-GPIO11-Pad18)*%
X142312500Y-101495000D03*
%TO.P,U3,19,+5V*%
%TO.N,+5V*%
X142312500Y-104035000D03*
%TO.P,U3,20,GPIO6/CLK*%
%TO.N,unconnected-(U3-GPIO6{slash}CLK-Pad20)*%
X167712500Y-104035000D03*
%TO.P,U3,21,GPIO7/D0*%
%TO.N,unconnected-(U3-GPIO7{slash}D0-Pad21)*%
X167712500Y-101495000D03*
%TO.P,U3,22,GPIO8/D2*%
%TO.N,unconnected-(U3-GPIO8{slash}D2-Pad22)*%
X167712500Y-98955000D03*
%TO.P,U3,23,GPIO15*%
%TO.N,unconnected-(U3-GPIO15-Pad23)*%
X167712500Y-96415000D03*
%TO.P,U3,24,GPIO2*%
%TO.N,unconnected-(U3-GPIO2-Pad24)*%
X167712500Y-93875000D03*
%TO.P,U3,25,GPIO0*%
%TO.N,unconnected-(U3-GPIO0-Pad25)*%
X167712500Y-91335000D03*
%TO.P,U3,26,GPIO4*%
%TO.N,unconnected-(U3-GPIO4-Pad26)*%
X167712500Y-88795000D03*
%TO.P,U3,27,GPIO16*%
%TO.N,unconnected-(U3-GPIO16-Pad27)*%
X167712500Y-86255000D03*
%TO.P,U3,28,GPIO17*%
%TO.N,/fan*%
X167712500Y-83715000D03*
%TO.P,U3,29,GPIO5*%
%TO.N,unconnected-(U3-GPIO5-Pad29)*%
X167712500Y-81175000D03*
%TO.P,U3,30,GPIO18*%
%TO.N,/jaune*%
X167712500Y-78635000D03*
%TO.P,U3,31,GPIO19*%
%TO.N,/vert*%
X167712500Y-76095000D03*
%TO.P,U3,32,GND*%
%TO.N,GND*%
X167712500Y-73555000D03*
%TO.P,U3,33,GPIO21*%
%TO.N,unconnected-(U3-GPIO21-Pad33)*%
X167712500Y-71015000D03*
%TO.P,U3,34,GPIO3/RX0*%
%TO.N,unconnected-(U3-GPIO3{slash}RX0-Pad34)*%
X167712500Y-68475000D03*
%TO.P,U3,35,GPIO1/TX0*%
%TO.N,unconnected-(U3-GPIO1{slash}TX0-Pad35)*%
X167712500Y-65935000D03*
%TO.P,U3,36,GPIO22*%
%TO.N,/pwm*%
X167712500Y-63395000D03*
%TO.P,U3,37,GPIO23*%
%TO.N,/Zc*%
X167712500Y-60855000D03*
%TO.P,U3,38,GND*%
%TO.N,GND*%
X167712500Y-58315000D03*
%TD*%
D16*
%TO.P,J2,1,Pin_1*%
%TO.N,+3.3V*%
X132300000Y-56670000D03*
D17*
%TO.P,J2,2,Pin_2*%
%TO.N,GND*%
X132300000Y-60480000D03*
%TO.P,J2,3,Pin_3*%
%TO.N,/Zc*%
X132300000Y-64290000D03*
%TO.P,J2,4,Pin_4*%
%TO.N,/pwm*%
X132300000Y-68100000D03*
%TD*%
D20*
%TO.P,J1,1*%
%TO.N,unconnected-(J1-Pad1)*%
X214060000Y-120850000D03*
D21*
%TO.P,J1,2*%
%TO.N,unconnected-(J1-Pad2)*%
X216600000Y-121870000D03*
%TO.P,J1,3*%
%TO.N,Net-(J1-Pad3)*%
X214060000Y-122890000D03*
%TO.P,J1,4*%
%TO.N,Net-(J1-Pad4)*%
X216600000Y-123910000D03*
%TO.P,J1,5*%
%TO.N,unconnected-(J1-Pad5)*%
X214060000Y-124930000D03*
%TO.P,J1,6*%
%TO.N,unconnected-(J1-Pad6)*%
X216600000Y-125950000D03*
%TD*%
D12*
%TO.P,J3,1,Pin_1*%
%TO.N,+3.3V*%
X140000000Y-125500000D03*
D13*
%TO.P,J3,2,Pin_2*%
%TO.N,/temp*%
X143810000Y-125500000D03*
%TO.P,J3,3,Pin_3*%
%TO.N,unconnected-(J3-Pin_3-Pad3)*%
X147620000Y-125500000D03*
%TO.P,J3,4,Pin_4*%
%TO.N,GND*%
X151430000Y-125500000D03*
%TD*%
D22*
%TO.N,Net-(J4-Pin_2)*%
X172600000Y-117400000D03*
D23*
X175300000Y-114700000D03*
D22*
X175300000Y-114700000D03*
%TO.N,GND*%
X178650003Y-101450000D03*
X189510000Y-112010000D03*
D23*
X200400000Y-112100000D03*
D22*
X200400000Y-112000000D03*
%TD*%
D24*
%TO.N,Net-(J4-Pin_2)*%
X175300000Y-114700000D02*
X172600000Y-117400000D01*
%TO.N,GND*%
X176050000Y-101450000D02*
X170500000Y-107000000D01*
X177650000Y-101450000D02*
X178950000Y-101450000D01*
X200400000Y-112100000D02*
X200300000Y-112000000D01*
X167712500Y-73555000D02*
X165345000Y-73555000D01*
X170500000Y-107000000D02*
X151430000Y-107000000D01*
X177650000Y-101450000D02*
X176050000Y-101450000D01*
X178650003Y-101450000D02*
X176050000Y-101450000D01*
X151430000Y-107000000D02*
X151430000Y-95200000D01*
X189500000Y-112000000D02*
X178950000Y-101450000D01*
X151430000Y-95200000D02*
X147565000Y-91335000D01*
X147565000Y-91335000D02*
X142312500Y-91335000D01*
X165345000Y-73555000D02*
X147565000Y-91335000D01*
X151430000Y-125500000D02*
X151430000Y-107000000D01*
X200300000Y-112000000D02*
X189500000Y-112000000D01*
%TD*%
%TA.AperFunction,NonConductor*%
G36*
X221943291Y-51120185D02*
G01*
X221989046Y-51172989D01*
X222000252Y-51224351D01*
X222028447Y-74627272D01*
X222008843Y-74694335D01*
X221956094Y-74740153D01*
X221904743Y-74751421D01*
X180774553Y-74849702D01*
X180707467Y-74830177D01*
X180661586Y-74777483D01*
X180650257Y-74725446D01*
X180650322Y-74694335D01*
X180658923Y-70531491D01*
X186799500Y-70531491D01*
X186799500Y-70868508D01*
X186837231Y-71203381D01*
X186837233Y-71203397D01*
X186912223Y-71531953D01*
X186912227Y-71531965D01*
X187023532Y-71850054D01*
X187169752Y-72153683D01*
X187169754Y-72153686D01*
X187349054Y-72439039D01*
X187424114Y-72533161D01*
X187542977Y-72682212D01*
X187559175Y-72702523D01*
X187797477Y-72940825D01*
X188060961Y-73150946D01*
X188346314Y-73330246D01*
X188649949Y-73476469D01*
X188786834Y-73524367D01*
X188968034Y-73587772D01*
X188968046Y-73587776D01*
X189296606Y-73662767D01*
X189631492Y-73700499D01*
X189631493Y-73700500D01*
X189631496Y-73700500D01*
X189968507Y-73700500D01*
X189968507Y-73700499D01*
X190303394Y-73662767D01*
X190631954Y-73587776D01*
X190950051Y-73476469D01*
X191253686Y-73330246D01*
X191539039Y-73150946D01*
X191802523Y-72940825D01*
X192040825Y-72702523D01*
X192250946Y-72439039D01*
X192430246Y-72153686D01*
X192576469Y-71850051D01*
X192687776Y-71531954D01*
X192762767Y-71203394D01*
X192800500Y-70868504D01*
X192800500Y-70531496D01*
X192800499Y-70531491D01*
X196799500Y-70531491D01*
X196799500Y-70868508D01*
X196837231Y-71203381D01*
X196837233Y-71203397D01*
X196912223Y-71531953D01*
X196912227Y-71531965D01*
X197023532Y-71850054D01*
X197169752Y-72153683D01*
X197169754Y-72153686D01*
X197349054Y-72439039D01*
X197424114Y-72533161D01*
X197542977Y-72682212D01*
X197559175Y-72702523D01*
X197797477Y-72940825D01*
X198060961Y-73150946D01*
X198346314Y-73330246D01*
X198649949Y-73476469D01*
X198786834Y-73524367D01*
X198968034Y-73587772D01*
X198968046Y-73587776D01*
X199296606Y-73662767D01*
X199631492Y-73700499D01*
X199631493Y-73700500D01*
X199631496Y-73700500D01*
X199968507Y-73700500D01*
X199968507Y-73700499D01*
X200303394Y-73662767D01*
X200631954Y-73587776D01*
X200950051Y-73476469D01*
X201253686Y-73330246D01*
X201539039Y-73150946D01*
X201802523Y-72940825D01*
X201945769Y-72797578D01*
X202007088Y-72764096D01*
X202076780Y-72769080D01*
X202132712Y-72810950D01*
X202132714Y-72810951D01*
X202132714Y-72810952D01*
X202284254Y-73013387D01*
X202284270Y-73013405D01*
X202486594Y-73215729D01*
X202486612Y-73215745D01*
X202715682Y-73387224D01*
X202715690Y-73387229D01*
X202966833Y-73524364D01*
X202966832Y-73524364D01*
X202966836Y-73524365D01*
X202966839Y-73524367D01*
X203234954Y-73624369D01*
X203234960Y-73624370D01*
X203234962Y-73624371D01*
X203514566Y-73685195D01*
X203514568Y-73685195D01*
X203514572Y-73685196D01*
X203728552Y-73700500D01*
X205871448Y-73700500D01*
X206085428Y-73685196D01*
X206188538Y-73662766D01*
X206365037Y-73624371D01*
X206365037Y-73624370D01*
X206365046Y-73624369D01*
X206633161Y-73524367D01*
X206884315Y-73387226D01*
X207113395Y-73215739D01*
X207315739Y-73013395D01*
X207487226Y-72784315D01*
X207624367Y-72533161D01*
X207724369Y-72265046D01*
X207748594Y-72153686D01*
X207785195Y-71985433D01*
X207785195Y-71985432D01*
X207785196Y-71985428D01*
X207800500Y-71771448D01*
X207800500Y-69628552D01*
X207785196Y-69414572D01*
X207748594Y-69246316D01*
X207724371Y-69134962D01*
X207724370Y-69134960D01*
X207724369Y-69134954D01*
X207624367Y-68866839D01*
X207495544Y-68630919D01*
X207487229Y-68615690D01*
X207487224Y-68615682D01*
X207315745Y-68386612D01*
X207315729Y-68386594D01*
X207113405Y-68184270D01*
X207113387Y-68184254D01*
X206884317Y-68012775D01*
X206884309Y-68012770D01*
X206633166Y-67875635D01*
X206633167Y-67875635D01*
X206463155Y-67812224D01*
X206365046Y-67775631D01*
X206365043Y-67775630D01*
X206365037Y-67775628D01*
X206085433Y-67714804D01*
X205871450Y-67699500D01*
X205871448Y-67699500D01*
X203728552Y-67699500D01*
X203728549Y-67699500D01*
X203514566Y-67714804D01*
X203234962Y-67775628D01*
X202966833Y-67875635D01*
X202715690Y-68012770D01*
X202715682Y-68012775D01*
X202486612Y-68184254D01*
X202486594Y-68184270D01*
X202284270Y-68386594D01*
X202284260Y-68386606D01*
X202132714Y-68589048D01*
X202076780Y-68630919D01*
X202007089Y-68635903D01*
X201945766Y-68602418D01*
X201802522Y-68459174D01*
X201711509Y-68386594D01*
X201539039Y-68249054D01*
X201253686Y-68069754D01*
X201253683Y-68069752D01*
X200950054Y-67923532D01*
X200631965Y-67812227D01*
X200631953Y-67812223D01*
X200303397Y-67737233D01*
X200303381Y-67737231D01*
X199968508Y-67699500D01*
X199968504Y-67699500D01*
X199631496Y-67699500D01*
X199631491Y-67699500D01*
X199296618Y-67737231D01*
X199296602Y-67737233D01*
X198968046Y-67812223D01*
X198968034Y-67812227D01*
X198649945Y-67923532D01*
X198346316Y-68069752D01*
X198060962Y-68249053D01*
X197797477Y-68459174D01*
X197559174Y-68697477D01*
X197349053Y-68960962D01*
X197169752Y-69246316D01*
X197023532Y-69549945D01*
X196912227Y-69868034D01*
X196912223Y-69868046D01*
X196837233Y-70196602D01*
X196837231Y-70196618D01*
X196799500Y-70531491D01*
X192800499Y-70531491D01*
X192762767Y-70196606D01*
X192687776Y-69868046D01*
X192576469Y-69549949D01*
X192430246Y-69246314D01*
X192250946Y-68960961D01*
X192040825Y-68697477D01*
X191802523Y-68459175D01*
X191539039Y-68249054D01*
X191253686Y-68069754D01*
X191253683Y-68069752D01*
X190950054Y-67923532D01*
X190631965Y-67812227D01*
X190631953Y-67812223D01*
X190303397Y-67737233D01*
X190303381Y-67737231D01*
X189968508Y-67699500D01*
X189968504Y-67699500D01*
X189631496Y-67699500D01*
X189631491Y-67699500D01*
X189296618Y-67737231D01*
X189296602Y-67737233D01*
X188968046Y-67812223D01*
X188968034Y-67812227D01*
X188649945Y-67923532D01*
X188346316Y-68069752D01*
X188060962Y-68249053D01*
X187797477Y-68459174D01*
X187559174Y-68697477D01*
X187349053Y-68960962D01*
X187169752Y-69246316D01*
X187023532Y-69549945D01*
X186912227Y-69868034D01*
X186912223Y-69868046D01*
X186837233Y-70196602D01*
X186837231Y-70196618D01*
X186799500Y-70531491D01*
X180658923Y-70531491D01*
X180685301Y-57763977D01*
X191279500Y-57763977D01*
X191279500Y-61036022D01*
X191289876Y-61213234D01*
X191344950Y-61509470D01*
X191344952Y-61509480D01*
X191439013Y-61795708D01*
X191439018Y-61795720D01*
X191570393Y-62066866D01*
X191570395Y-62066869D01*
X191570396Y-62066871D01*
X191651409Y-62189219D01*
X191736746Y-62318096D01*
X191935093Y-62544906D01*
X192047973Y-62643620D01*
X192161905Y-62743255D01*
X192413129Y-62909604D01*
X192684284Y-63040984D01*
X192778225Y-63071855D01*
X192970519Y-63135047D01*
X192970523Y-63135047D01*
X192970530Y-63135050D01*
X193266761Y-63190123D01*
X193443978Y-63200500D01*
X195196022Y-63200500D01*
X195373239Y-63190123D01*
X195669470Y-63135050D01*
X195669477Y-63135047D01*
X195669480Y-63135047D01*
X195758991Y-63105631D01*
X195955716Y-63040984D01*
X196226871Y-62909604D01*
X196478095Y-62743255D01*
X196704906Y-62544906D01*
X196903255Y-62318095D01*
X196960872Y-62231079D01*
X197014296Y-62186051D01*
X197083584Y-62177054D01*
X197146737Y-62206945D01*
X197151942Y-62211858D01*
X197370781Y-62430697D01*
X197637778Y-62643620D01*
X197796346Y-62743255D01*
X197926940Y-62825313D01*
X198234602Y-62973475D01*
X198234611Y-62973478D01*
X198234618Y-62973482D01*
X198234624Y-62973484D01*
X198556943Y-63086269D01*
X198556955Y-63086273D01*
X198889895Y-63162264D01*
X199229245Y-63200499D01*
X199229246Y-63200500D01*
X199229249Y-63200500D01*
X199570754Y-63200500D01*
X199570754Y-63200499D01*
X199910105Y-63162264D01*
X200243045Y-63086273D01*
X200565382Y-62973482D01*
X200698023Y-62909606D01*
X200873059Y-62825313D01*
X200873059Y-62825312D01*
X200873065Y-62825310D01*
X201162222Y-62643620D01*
X201429219Y-62430697D01*
X201670697Y-62189219D01*
X201883620Y-61922222D01*
X202065310Y-61633065D01*
X202213482Y-61325382D01*
X202326273Y-61003045D01*
X202402264Y-60670105D01*
X202440500Y-60330751D01*
X202440500Y-58469249D01*
X202402264Y-58129895D01*
X202326273Y-57796955D01*
X202314733Y-57763977D01*
X202213484Y-57474624D01*
X202213475Y-57474602D01*
X202065313Y-57166940D01*
X202065310Y-57166935D01*
X201883620Y-56877778D01*
X201670697Y-56610781D01*
X201429219Y-56369303D01*
X201162222Y-56156380D01*
X200873065Y-55974690D01*
X200873066Y-55974690D01*
X200873059Y-55974686D01*
X200565397Y-55826524D01*
X200565375Y-55826515D01*
X200243056Y-55713730D01*
X200243044Y-55713726D01*
X199910108Y-55637736D01*
X199910092Y-55637734D01*
X199570755Y-55599500D01*
X199570751Y-55599500D01*
X199229249Y-55599500D01*
X199229244Y-55599500D01*
X198889907Y-55637734D01*
X198889891Y-55637736D01*
X198556955Y-55713726D01*
X198556943Y-55713730D01*
X198234624Y-55826515D01*
X198234602Y-55826524D01*
X197926940Y-55974686D01*
X197637779Y-56156379D01*
X197370781Y-56369302D01*
X197151942Y-56588141D01*
X197090619Y-56621626D01*
X197020927Y-56616642D01*
X196964994Y-56574770D01*
X196960872Y-56568920D01*
X196903255Y-56481905D01*
X196804783Y-56369303D01*
X196704906Y-56255093D01*
X196478096Y-56056746D01*
X196478095Y-56056745D01*
X196226871Y-55890396D01*
X196226869Y-55890395D01*
X196226866Y-55890393D01*
X195955720Y-55759018D01*
X195955716Y-55759016D01*
X195955712Y-55759014D01*
X195955708Y-55759013D01*
X195669480Y-55664952D01*
X195669470Y-55664950D01*
X195373234Y-55609876D01*
X195196022Y-55599500D01*
X193443978Y-55599500D01*
X193266765Y-55609876D01*
X192970529Y-55664950D01*
X192970519Y-55664952D01*
X192684291Y-55759013D01*
X192684279Y-55759018D01*
X192413133Y-55890393D01*
X192161903Y-56056746D01*
X191935093Y-56255093D01*
X191736746Y-56481903D01*
X191570393Y-56733133D01*
X191439018Y-57004279D01*
X191439013Y-57004291D01*
X191344952Y-57290519D01*
X191344950Y-57290529D01*
X191289876Y-57586765D01*
X191279500Y-57763977D01*
X180685301Y-57763977D01*
X180698813Y-51224242D01*
X180718636Y-51157245D01*
X180771535Y-51111599D01*
X180822813Y-51100500D01*
X221876252Y-51100500D01*
X221943291Y-51120185D01*
G37*
%TD.AperFunction*%
%TA.AperFunction,Conductor*%
%TO.N,GND*%
G36*
X178636347Y-51120185D02*
G01*
X178682102Y-51172989D01*
X178693307Y-51224753D01*
X178681987Y-56703890D01*
X178679805Y-57759833D01*
X178679805Y-57759834D01*
X178679665Y-57827418D01*
X178653427Y-70527347D01*
X178653186Y-70644119D01*
X178644826Y-74690142D01*
X178644826Y-74690146D01*
X178644760Y-74721268D01*
X178649890Y-74868842D01*
X178649890Y-74868843D01*
X178690658Y-75152063D01*
X178701991Y-75204117D01*
X178715570Y-75257038D01*
X178738681Y-75347104D01*
X178839319Y-75614964D01*
X178977053Y-75865775D01*
X179055793Y-75970435D01*
X179149080Y-76094432D01*
X179194958Y-76147123D01*
X179194967Y-76147133D01*
X179267739Y-76219558D01*
X179397753Y-76348953D01*
X179627228Y-76519885D01*
X179878694Y-76656421D01*
X180147032Y-76755779D01*
X180213804Y-76775212D01*
X180214097Y-76775299D01*
X180214123Y-76775305D01*
X180214138Y-76775310D01*
X180493885Y-76835465D01*
X180779345Y-76855196D01*
X221906870Y-76756921D01*
X221973952Y-76776445D01*
X222019833Y-76829139D01*
X222031162Y-76880771D01*
X222098747Y-132975351D01*
X222079143Y-133042414D01*
X222026394Y-133088232D01*
X221974747Y-133099500D01*
X124324500Y-133099500D01*
X124257461Y-133079815D01*
X124211706Y-133027011D01*
X124200500Y-132975500D01*
X124200500Y-129289778D01*
X217499500Y-129289778D01*
X217499500Y-129510221D01*
X217533985Y-129727952D01*
X217602103Y-129937603D01*
X217602104Y-129937606D01*
X217702187Y-130134025D01*
X217831752Y-130312358D01*
X217831756Y-130312363D01*
X217987636Y-130468243D01*
X217987641Y-130468247D01*
X218143192Y-130581260D01*
X218165978Y-130597815D01*
X218294375Y-130663237D01*
X218362393Y-130697895D01*
X218362396Y-130697896D01*
X218467221Y-130731955D01*
X218572049Y-130766015D01*
X218789778Y-130800500D01*
X218789779Y-130800500D01*
X219010221Y-130800500D01*
X219010222Y-130800500D01*
X219227951Y-130766015D01*
X219437606Y-130697895D01*
X219634022Y-130597815D01*
X219812365Y-130468242D01*
X219968242Y-130312365D01*
X220097815Y-130134022D01*
X220197895Y-129937606D01*
X220266015Y-129727951D01*
X220300500Y-129510222D01*
X220300500Y-129289778D01*
X220266015Y-129072049D01*
X220197895Y-128862394D01*
X220197895Y-128862393D01*
X220163237Y-128794375D01*
X220097815Y-128665978D01*
X220081260Y-128643192D01*
X219968247Y-128487641D01*
X219968243Y-128487636D01*
X219812363Y-128331756D01*
X219812358Y-128331752D01*
X219634025Y-128202187D01*
X219634024Y-128202186D01*
X219634022Y-128202185D01*
X219571096Y-128170122D01*
X219437606Y-128102104D01*
X219437603Y-128102103D01*
X219227952Y-128033985D01*
X219100603Y-128013815D01*
X219010222Y-127999500D01*
X218789778Y-127999500D01*
X218717201Y-128010995D01*
X218572047Y-128033985D01*
X218362396Y-128102103D01*
X218362393Y-128102104D01*
X218165974Y-128202187D01*
X217987641Y-128331752D01*
X217987636Y-128331756D01*
X217831756Y-128487636D01*
X217831752Y-128487641D01*
X217702187Y-128665974D01*
X217602104Y-128862393D01*
X217602103Y-128862396D01*
X217533985Y-129072047D01*
X217499500Y-129289778D01*
X124200500Y-129289778D01*
X124200500Y-123885777D01*
X138099500Y-123885777D01*
X138099500Y-127114208D01*
X138099501Y-127114223D01*
X138109904Y-127246413D01*
X138109905Y-127246420D01*
X138164902Y-127464678D01*
X138164903Y-127464681D01*
X138257991Y-127669622D01*
X138257997Y-127669632D01*
X138386174Y-127854645D01*
X138386178Y-127854650D01*
X138386181Y-127854654D01*
X138545346Y-128013819D01*
X138545350Y-128013822D01*
X138545354Y-128013825D01*
X138672776Y-128102103D01*
X138730374Y-128142007D01*
X138935317Y-128235096D01*
X138935321Y-128235097D01*
X139153579Y-128290094D01*
X139153581Y-128290094D01*
X139153588Y-128290096D01*
X139285783Y-128300500D01*
X140714216Y-128300499D01*
X140846412Y-128290096D01*
X141064683Y-128235096D01*
X141269626Y-128142007D01*
X141454654Y-128013819D01*
X141613819Y-127854654D01*
X141742007Y-127669626D01*
X141835096Y-127464683D01*
X141880416Y-127284825D01*
X141915884Y-127224630D01*
X141978267Y-127193164D01*
X142047759Y-127200420D01*
X142102296Y-127244095D01*
X142108044Y-127253126D01*
X142226400Y-127458126D01*
X142378060Y-127655774D01*
X142378066Y-127655781D01*
X142554218Y-127831933D01*
X142554225Y-127831939D01*
X142751873Y-127983599D01*
X142967623Y-128108162D01*
X142967638Y-128108169D01*
X143066825Y-128149253D01*
X143197793Y-128203502D01*
X143438435Y-128267982D01*
X143685435Y-128300500D01*
X143685442Y-128300500D01*
X143934558Y-128300500D01*
X143934565Y-128300500D01*
X144181565Y-128267982D01*
X144422207Y-128203502D01*
X144652373Y-128108164D01*
X144868127Y-127983599D01*
X145065776Y-127831938D01*
X145241938Y-127655776D01*
X145393599Y-127458127D01*
X145518164Y-127242373D01*
X145600439Y-127043742D01*
X145644280Y-126989339D01*
X145710574Y-126967274D01*
X145778273Y-126984553D01*
X145825884Y-127035690D01*
X145829561Y-127043743D01*
X145911830Y-127242361D01*
X145911837Y-127242376D01*
X146036400Y-127458126D01*
X146188060Y-127655774D01*
X146188066Y-127655781D01*
X146364218Y-127831933D01*
X146364225Y-127831939D01*
X146561873Y-127983599D01*
X146777623Y-128108162D01*
X146777638Y-128108169D01*
X146876825Y-128149253D01*
X147007793Y-128203502D01*
X147248435Y-128267982D01*
X147495435Y-128300500D01*
X147495442Y-128300500D01*
X147744558Y-128300500D01*
X147744565Y-128300500D01*
X147991565Y-128267982D01*
X148232207Y-128203502D01*
X148462373Y-128108164D01*
X148678127Y-127983599D01*
X148875776Y-127831938D01*
X149051938Y-127655776D01*
X149203599Y-127458127D01*
X149328164Y-127242373D01*
X149423502Y-127012207D01*
X149487982Y-126771565D01*
X149520500Y-126524565D01*
X149520500Y-124489818D01*
X150030000Y-124489818D01*
X150030000Y-125250000D01*
X150881518Y-125250000D01*
X150870889Y-125268409D01*
X150830000Y-125421009D01*
X150830000Y-125578991D01*
X150870889Y-125731591D01*
X150881518Y-125750000D01*
X150030000Y-125750000D01*
X150030000Y-126510181D01*
X150064473Y-126727835D01*
X150132567Y-126937410D01*
X150232613Y-127133760D01*
X150362142Y-127312041D01*
X150517958Y-127467857D01*
X150696239Y-127597386D01*
X150892589Y-127697432D01*
X151102163Y-127765526D01*
X151179999Y-127777854D01*
X151180000Y-127777854D01*
X151180000Y-126048482D01*
X151198409Y-126059111D01*
X151351009Y-126100000D01*
X151508991Y-126100000D01*
X151661591Y-126059111D01*
X151680000Y-126048482D01*
X151680000Y-127777854D01*
X151757834Y-127765526D01*
X151757837Y-127765526D01*
X151967410Y-127697432D01*
X152163760Y-127597386D01*
X152342041Y-127467857D01*
X152497857Y-127312041D01*
X152627386Y-127133760D01*
X152727432Y-126937410D01*
X152795526Y-126727835D01*
X152830000Y-126510181D01*
X152830000Y-125750000D01*
X151978482Y-125750000D01*
X151989111Y-125731591D01*
X152030000Y-125578991D01*
X152030000Y-125421009D01*
X151989111Y-125268409D01*
X151978482Y-125250000D01*
X152830000Y-125250000D01*
X152830000Y-124489818D01*
X152795526Y-124272164D01*
X152727432Y-124062589D01*
X152627386Y-123866239D01*
X152497857Y-123687958D01*
X152342038Y-123532139D01*
X152333815Y-123526165D01*
X152333814Y-123526163D01*
X152199084Y-123428277D01*
X165912000Y-123428277D01*
X165912000Y-126656708D01*
X165912001Y-126656723D01*
X165922404Y-126788913D01*
X165922405Y-126788920D01*
X165977402Y-127007178D01*
X165977403Y-127007181D01*
X166070491Y-127212122D01*
X166070497Y-127212132D01*
X166198674Y-127397145D01*
X166198678Y-127397150D01*
X166198681Y-127397154D01*
X166357846Y-127556319D01*
X166357850Y-127556322D01*
X166357854Y-127556325D01*
X166450696Y-127620646D01*
X166542874Y-127684507D01*
X166747817Y-127777596D01*
X166747821Y-127777597D01*
X166966079Y-127832594D01*
X166966081Y-127832594D01*
X166966088Y-127832596D01*
X167098283Y-127843000D01*
X168526716Y-127842999D01*
X168658912Y-127832596D01*
X168877183Y-127777596D01*
X169082126Y-127684507D01*
X169267154Y-127556319D01*
X169426319Y-127397154D01*
X169554507Y-127212126D01*
X169647596Y-127007183D01*
X169692916Y-126827325D01*
X169728384Y-126767130D01*
X169790767Y-126735664D01*
X169860259Y-126742920D01*
X169914796Y-126786595D01*
X169920544Y-126795626D01*
X170038900Y-127000626D01*
X170190560Y-127198274D01*
X170190566Y-127198281D01*
X170366718Y-127374433D01*
X170366725Y-127374439D01*
X170564373Y-127526099D01*
X170780123Y-127650662D01*
X170780138Y-127650669D01*
X170879325Y-127691753D01*
X171010293Y-127746002D01*
X171250935Y-127810482D01*
X171497935Y-127843000D01*
X171497942Y-127843000D01*
X171747058Y-127843000D01*
X171747065Y-127843000D01*
X171994065Y-127810482D01*
X172234707Y-127746002D01*
X172464873Y-127650664D01*
X172680627Y-127526099D01*
X172878276Y-127374438D01*
X173054438Y-127198276D01*
X173206099Y-127000627D01*
X173330664Y-126784873D01*
X173426002Y-126554707D01*
X173490482Y-126314065D01*
X173523000Y-126067065D01*
X173523000Y-124017935D01*
X173490482Y-123770935D01*
X173426002Y-123530293D01*
X173371753Y-123399325D01*
X173330669Y-123300138D01*
X173330662Y-123300123D01*
X173206099Y-123084373D01*
X173054439Y-122886725D01*
X173054433Y-122886718D01*
X172878281Y-122710566D01*
X172878274Y-122710560D01*
X172680626Y-122558900D01*
X172464876Y-122434337D01*
X172464861Y-122434330D01*
X172234707Y-122338998D01*
X172174599Y-122322892D01*
X171994065Y-122274518D01*
X171994064Y-122274517D01*
X171994061Y-122274517D01*
X171747075Y-122242001D01*
X171747070Y-122242000D01*
X171747065Y-122242000D01*
X171497935Y-122242000D01*
X171497929Y-122242000D01*
X171497924Y-122242001D01*
X171250938Y-122274517D01*
X171010292Y-122338998D01*
X170780138Y-122434330D01*
X170780123Y-122434337D01*
X170564373Y-122558900D01*
X170366725Y-122710560D01*
X170366718Y-122710566D01*
X170190566Y-122886718D01*
X170190560Y-122886725D01*
X170038900Y-123084373D01*
X169920544Y-123289373D01*
X169869977Y-123337589D01*
X169801370Y-123350812D01*
X169736505Y-123324844D01*
X169695977Y-123267930D01*
X169692916Y-123257671D01*
X169647597Y-123077821D01*
X169647596Y-123077818D01*
X169619699Y-123016401D01*
X169554507Y-122872874D01*
X169522797Y-122827103D01*
X169426325Y-122687854D01*
X169426322Y-122687850D01*
X169426319Y-122687846D01*
X169267154Y-122528681D01*
X169267150Y-122528678D01*
X169267145Y-122528674D01*
X169082132Y-122400497D01*
X169082130Y-122400495D01*
X169082126Y-122400493D01*
X168911274Y-122322889D01*
X168877181Y-122307403D01*
X168877178Y-122307402D01*
X168658920Y-122252405D01*
X168658913Y-122252404D01*
X168614847Y-122248936D01*
X168526717Y-122242000D01*
X168526715Y-122242000D01*
X167098291Y-122242000D01*
X167098276Y-122242001D01*
X166966086Y-122252404D01*
X166966079Y-122252405D01*
X166747821Y-122307402D01*
X166747818Y-122307403D01*
X166542877Y-122400491D01*
X166542867Y-122400497D01*
X166357854Y-122528674D01*
X166357842Y-122528684D01*
X166198684Y-122687842D01*
X166198674Y-122687854D01*
X166070497Y-122872867D01*
X166070491Y-122872877D01*
X165977403Y-123077818D01*
X165977402Y-123077821D01*
X165922405Y-123296079D01*
X165922404Y-123296086D01*
X165912000Y-123428277D01*
X152199084Y-123428277D01*
X152163763Y-123402615D01*
X151967410Y-123302567D01*
X151757836Y-123234473D01*
X151680000Y-123222144D01*
X151680000Y-124951517D01*
X151661591Y-124940889D01*
X151508991Y-124900000D01*
X151351009Y-124900000D01*
X151198409Y-124940889D01*
X151180000Y-124951517D01*
X151180000Y-123222144D01*
X151102164Y-123234473D01*
X151102161Y-123234473D01*
X150892589Y-123302567D01*
X150696239Y-123402613D01*
X150517958Y-123532142D01*
X150362142Y-123687958D01*
X150232613Y-123866239D01*
X150132567Y-124062589D01*
X150064473Y-124272164D01*
X150030000Y-124489818D01*
X149520500Y-124489818D01*
X149520500Y-124475435D01*
X149487982Y-124228435D01*
X149423502Y-123987793D01*
X149365598Y-123848000D01*
X149328169Y-123757638D01*
X149328162Y-123757623D01*
X149203599Y-123541873D01*
X149051939Y-123344225D01*
X149051933Y-123344218D01*
X148875781Y-123168066D01*
X148875774Y-123168060D01*
X148678126Y-123016400D01*
X148462376Y-122891837D01*
X148462361Y-122891830D01*
X148232207Y-122796498D01*
X147991561Y-122732017D01*
X147744575Y-122699501D01*
X147744570Y-122699500D01*
X147744565Y-122699500D01*
X147495435Y-122699500D01*
X147495429Y-122699500D01*
X147495424Y-122699501D01*
X147248438Y-122732017D01*
X147007792Y-122796498D01*
X146777638Y-122891830D01*
X146777623Y-122891837D01*
X146561873Y-123016400D01*
X146364225Y-123168060D01*
X146364218Y-123168066D01*
X146188066Y-123344218D01*
X146188060Y-123344225D01*
X146036400Y-123541873D01*
X145911837Y-123757623D01*
X145911830Y-123757638D01*
X145829561Y-123956256D01*
X145785720Y-124010660D01*
X145719426Y-124032725D01*
X145651727Y-124015446D01*
X145604116Y-123964309D01*
X145600439Y-123956256D01*
X145518169Y-123757638D01*
X145518162Y-123757623D01*
X145393599Y-123541873D01*
X145241939Y-123344225D01*
X145241933Y-123344218D01*
X145065781Y-123168066D01*
X145065774Y-123168060D01*
X144868126Y-123016400D01*
X144652376Y-122891837D01*
X144652361Y-122891830D01*
X144422207Y-122796498D01*
X144181561Y-122732017D01*
X143934575Y-122699501D01*
X143934570Y-122699500D01*
X143934565Y-122699500D01*
X143685435Y-122699500D01*
X143685429Y-122699500D01*
X143685424Y-122699501D01*
X143438438Y-122732017D01*
X143197792Y-122796498D01*
X142967638Y-122891830D01*
X142967623Y-122891837D01*
X142751873Y-123016400D01*
X142554225Y-123168060D01*
X142554218Y-123168066D01*
X142378066Y-123344218D01*
X142378060Y-123344225D01*
X142226400Y-123541873D01*
X142108044Y-123746873D01*
X142057477Y-123795089D01*
X141988870Y-123808312D01*
X141924005Y-123782344D01*
X141883477Y-123725430D01*
X141880416Y-123715171D01*
X141835097Y-123535321D01*
X141835096Y-123535318D01*
X141833653Y-123532142D01*
X141742007Y-123330374D01*
X141691638Y-123257671D01*
X141613825Y-123145354D01*
X141613822Y-123145350D01*
X141613819Y-123145346D01*
X141454654Y-122986181D01*
X141454650Y-122986178D01*
X141454645Y-122986174D01*
X141269632Y-122857997D01*
X141269630Y-122857995D01*
X141269626Y-122857993D01*
X141064683Y-122764904D01*
X141064681Y-122764903D01*
X141064678Y-122764902D01*
X140846420Y-122709905D01*
X140846413Y-122709904D01*
X140802347Y-122706436D01*
X140714217Y-122699500D01*
X140714215Y-122699500D01*
X139285791Y-122699500D01*
X139285776Y-122699501D01*
X139153586Y-122709904D01*
X139153579Y-122709905D01*
X138935321Y-122764902D01*
X138935318Y-122764903D01*
X138730377Y-122857991D01*
X138730367Y-122857997D01*
X138545354Y-122986174D01*
X138545342Y-122986184D01*
X138386184Y-123145342D01*
X138386174Y-123145354D01*
X138257997Y-123330367D01*
X138257991Y-123330377D01*
X138164903Y-123535318D01*
X138164902Y-123535321D01*
X138109905Y-123753579D01*
X138109904Y-123753586D01*
X138099500Y-123885777D01*
X124200500Y-123885777D01*
X124200500Y-120031966D01*
X212299500Y-120031966D01*
X212299500Y-121668028D01*
X212299501Y-121668034D01*
X212310113Y-121787415D01*
X212366089Y-121983045D01*
X212430755Y-122106842D01*
X212444346Y-122175377D01*
X212435407Y-122211705D01*
X212389358Y-122322876D01*
X212389354Y-122322889D01*
X212389353Y-122322892D01*
X212368560Y-122400491D01*
X212329622Y-122545810D01*
X212299500Y-122774603D01*
X212299500Y-123005396D01*
X212320917Y-123168066D01*
X212329623Y-123234193D01*
X212357328Y-123337589D01*
X212389353Y-123457110D01*
X212477665Y-123670313D01*
X212477669Y-123670323D01*
X212580251Y-123848000D01*
X212596724Y-123915900D01*
X212580251Y-123972000D01*
X212477669Y-124149676D01*
X212477665Y-124149686D01*
X212389353Y-124362889D01*
X212329623Y-124585808D01*
X212299500Y-124814603D01*
X212299500Y-125045396D01*
X212310849Y-125131592D01*
X212329623Y-125274193D01*
X212358748Y-125382889D01*
X212389353Y-125497110D01*
X212477665Y-125710313D01*
X212477669Y-125710323D01*
X212593056Y-125910179D01*
X212733544Y-126093267D01*
X212733550Y-126093274D01*
X212896725Y-126256449D01*
X212896732Y-126256455D01*
X213079820Y-126396943D01*
X213279676Y-126512330D01*
X213279677Y-126512330D01*
X213279680Y-126512332D01*
X213377408Y-126552812D01*
X213492889Y-126600646D01*
X213492890Y-126600646D01*
X213492892Y-126600647D01*
X213715807Y-126660377D01*
X213944611Y-126690500D01*
X213944618Y-126690500D01*
X214175382Y-126690500D01*
X214175389Y-126690500D01*
X214404193Y-126660377D01*
X214627108Y-126600647D01*
X214800065Y-126529005D01*
X214869533Y-126521537D01*
X214932013Y-126552812D01*
X214962078Y-126596114D01*
X215017665Y-126730313D01*
X215017669Y-126730323D01*
X215133056Y-126930179D01*
X215273544Y-127113267D01*
X215273550Y-127113274D01*
X215436725Y-127276449D01*
X215436732Y-127276455D01*
X215619820Y-127416943D01*
X215819676Y-127532330D01*
X215819677Y-127532330D01*
X215819680Y-127532332D01*
X215961821Y-127591208D01*
X216032889Y-127620646D01*
X216032890Y-127620646D01*
X216032892Y-127620647D01*
X216255807Y-127680377D01*
X216484611Y-127710500D01*
X216484618Y-127710500D01*
X216715382Y-127710500D01*
X216715389Y-127710500D01*
X216944193Y-127680377D01*
X217167108Y-127620647D01*
X217380320Y-127532332D01*
X217580180Y-127416943D01*
X217763269Y-127276454D01*
X217926454Y-127113269D01*
X218066943Y-126930180D01*
X218182332Y-126730320D01*
X218270647Y-126517108D01*
X218330377Y-126294193D01*
X218360500Y-126065389D01*
X218360500Y-125834611D01*
X218330377Y-125605807D01*
X218270647Y-125382892D01*
X218182332Y-125169680D01*
X218079747Y-124991998D01*
X218063275Y-124924100D01*
X218079747Y-124868002D01*
X218182332Y-124690320D01*
X218270647Y-124477108D01*
X218330377Y-124254193D01*
X218360500Y-124025389D01*
X218360500Y-123794611D01*
X218330377Y-123565807D01*
X218270647Y-123342892D01*
X218268450Y-123337589D01*
X218235347Y-123257671D01*
X218182332Y-123129680D01*
X218079747Y-122951998D01*
X218063275Y-122884100D01*
X218079747Y-122828002D01*
X218182332Y-122650320D01*
X218270647Y-122437108D01*
X218330377Y-122214193D01*
X218360500Y-121985389D01*
X218360500Y-121754611D01*
X218330377Y-121525807D01*
X218270647Y-121302892D01*
X218182332Y-121089680D01*
X218066943Y-120889820D01*
X217926454Y-120706731D01*
X217926449Y-120706725D01*
X217763274Y-120543550D01*
X217763267Y-120543544D01*
X217580179Y-120403056D01*
X217380323Y-120287669D01*
X217380313Y-120287665D01*
X217167110Y-120199353D01*
X217055650Y-120169488D01*
X216944193Y-120139623D01*
X216889436Y-120132414D01*
X216715396Y-120109500D01*
X216715389Y-120109500D01*
X216484611Y-120109500D01*
X216484603Y-120109500D01*
X216255810Y-120139622D01*
X216144349Y-120169488D01*
X216032892Y-120199353D01*
X216032890Y-120199353D01*
X216032889Y-120199354D01*
X216032883Y-120199356D01*
X215991950Y-120216311D01*
X215922481Y-120223779D01*
X215860002Y-120192503D01*
X215824350Y-120132414D01*
X215820499Y-120101749D01*
X215820499Y-120031971D01*
X215820499Y-120031964D01*
X215809886Y-119912582D01*
X215753909Y-119716951D01*
X215659698Y-119536593D01*
X215607684Y-119472803D01*
X215531109Y-119378890D01*
X215373409Y-119250304D01*
X215373410Y-119250304D01*
X215373407Y-119250302D01*
X215193049Y-119156091D01*
X215193048Y-119156090D01*
X215193045Y-119156089D01*
X215075829Y-119122550D01*
X214997418Y-119100114D01*
X214997415Y-119100113D01*
X214997413Y-119100113D01*
X214931102Y-119094217D01*
X214878037Y-119089500D01*
X214878032Y-119089500D01*
X213241971Y-119089500D01*
X213241965Y-119089500D01*
X213241964Y-119089501D01*
X213230316Y-119090536D01*
X213122584Y-119100113D01*
X212926954Y-119156089D01*
X212836772Y-119203196D01*
X212746593Y-119250302D01*
X212746591Y-119250303D01*
X212746590Y-119250304D01*
X212588890Y-119378890D01*
X212460304Y-119536590D01*
X212366089Y-119716954D01*
X212310114Y-119912583D01*
X212310113Y-119912586D01*
X212299500Y-120031966D01*
X124200500Y-120031966D01*
X124200500Y-117274038D01*
X170999500Y-117274038D01*
X170999500Y-117525961D01*
X171038910Y-117774785D01*
X171116760Y-118014383D01*
X171231132Y-118238848D01*
X171379201Y-118442649D01*
X171379205Y-118442654D01*
X171557345Y-118620794D01*
X171557350Y-118620798D01*
X171663466Y-118697895D01*
X171761155Y-118768870D01*
X171904184Y-118841747D01*
X171985616Y-118883239D01*
X171985618Y-118883239D01*
X171985621Y-118883241D01*
X172225215Y-118961090D01*
X172474038Y-119000500D01*
X172474039Y-119000500D01*
X172725961Y-119000500D01*
X172725962Y-119000500D01*
X172974785Y-118961090D01*
X173214379Y-118883241D01*
X173438845Y-118768870D01*
X173642656Y-118620793D01*
X173820793Y-118442656D01*
X173968870Y-118238845D01*
X174083241Y-118014379D01*
X174161090Y-117774785D01*
X174199598Y-117531654D01*
X174229527Y-117468520D01*
X174234372Y-117463390D01*
X174407984Y-117289778D01*
X217499500Y-117289778D01*
X217499500Y-117510221D01*
X217533985Y-117727952D01*
X217602103Y-117937603D01*
X217602104Y-117937606D01*
X217702187Y-118134025D01*
X217831752Y-118312358D01*
X217831756Y-118312363D01*
X217987636Y-118468243D01*
X217987641Y-118468247D01*
X218143192Y-118581260D01*
X218165978Y-118597815D01*
X218294375Y-118663237D01*
X218362393Y-118697895D01*
X218362396Y-118697896D01*
X218467221Y-118731955D01*
X218572049Y-118766015D01*
X218789778Y-118800500D01*
X218789779Y-118800500D01*
X219010221Y-118800500D01*
X219010222Y-118800500D01*
X219227951Y-118766015D01*
X219437606Y-118697895D01*
X219634022Y-118597815D01*
X219812365Y-118468242D01*
X219968242Y-118312365D01*
X220097815Y-118134022D01*
X220197895Y-117937606D01*
X220266015Y-117727951D01*
X220300500Y-117510222D01*
X220300500Y-117289778D01*
X220266015Y-117072049D01*
X220197895Y-116862394D01*
X220197895Y-116862393D01*
X220158774Y-116785616D01*
X220097815Y-116665978D01*
X220021657Y-116561155D01*
X219968247Y-116487641D01*
X219968243Y-116487636D01*
X219812363Y-116331756D01*
X219812358Y-116331752D01*
X219634025Y-116202187D01*
X219634024Y-116202186D01*
X219634022Y-116202185D01*
X219571096Y-116170122D01*
X219437606Y-116102104D01*
X219437603Y-116102103D01*
X219227952Y-116033985D01*
X219119086Y-116016742D01*
X219010222Y-115999500D01*
X218789778Y-115999500D01*
X218717201Y-116010995D01*
X218572047Y-116033985D01*
X218362396Y-116102103D01*
X218362393Y-116102104D01*
X218165974Y-116202187D01*
X217987641Y-116331752D01*
X217987636Y-116331756D01*
X217831756Y-116487636D01*
X217831752Y-116487641D01*
X217702187Y-116665974D01*
X217602104Y-116862393D01*
X217602103Y-116862396D01*
X217533985Y-117072047D01*
X217499500Y-117289778D01*
X174407984Y-117289778D01*
X175363374Y-116334388D01*
X175424695Y-116300905D01*
X175431644Y-116299599D01*
X175674785Y-116261090D01*
X175914379Y-116183241D01*
X176138845Y-116068870D01*
X176342656Y-115920793D01*
X176520793Y-115742656D01*
X176668870Y-115538845D01*
X176783241Y-115314379D01*
X176861090Y-115074785D01*
X176900500Y-114825962D01*
X176900500Y-114574038D01*
X176861090Y-114325215D01*
X176783241Y-114085621D01*
X176783239Y-114085618D01*
X176783239Y-114085616D01*
X176741747Y-114004184D01*
X176668870Y-113861155D01*
X176649952Y-113835117D01*
X176520798Y-113657350D01*
X176520794Y-113657345D01*
X176342654Y-113479205D01*
X176342649Y-113479201D01*
X176138848Y-113331132D01*
X176138847Y-113331131D01*
X176138845Y-113331130D01*
X176068747Y-113295413D01*
X175914383Y-113216760D01*
X175674785Y-113138910D01*
X175425962Y-113099500D01*
X175174038Y-113099500D01*
X175049626Y-113119205D01*
X174925214Y-113138910D01*
X174685616Y-113216760D01*
X174461151Y-113331132D01*
X174257350Y-113479201D01*
X174257345Y-113479205D01*
X174079205Y-113657345D01*
X174079201Y-113657350D01*
X173931132Y-113861151D01*
X173816760Y-114085616D01*
X173738909Y-114325214D01*
X173700402Y-114568342D01*
X173670473Y-114631477D01*
X173665610Y-114636625D01*
X172536625Y-115765610D01*
X172475302Y-115799095D01*
X172468342Y-115800402D01*
X172225214Y-115838909D01*
X171985616Y-115916760D01*
X171761151Y-116031132D01*
X171557350Y-116179201D01*
X171557345Y-116179205D01*
X171379205Y-116357345D01*
X171379201Y-116357350D01*
X171231132Y-116561151D01*
X171116760Y-116785616D01*
X171038910Y-117025214D01*
X170999500Y-117274038D01*
X124200500Y-117274038D01*
X124200500Y-79475777D01*
X129499500Y-79475777D01*
X129499500Y-80904208D01*
X129499501Y-80904223D01*
X129509904Y-81036413D01*
X129509905Y-81036420D01*
X129564902Y-81254678D01*
X129564903Y-81254681D01*
X129657991Y-81459622D01*
X129657997Y-81459632D01*
X129786174Y-81644645D01*
X129786178Y-81644650D01*
X129786181Y-81644654D01*
X129945346Y-81803819D01*
X129945350Y-81803822D01*
X129945354Y-81803825D01*
X130084603Y-81900297D01*
X130130374Y-81932007D01*
X130335317Y-82025096D01*
X130335321Y-82025097D01*
X130515171Y-82070416D01*
X130575369Y-82105884D01*
X130606835Y-82168267D01*
X130599579Y-82237759D01*
X130555904Y-82292296D01*
X130546873Y-82298044D01*
X130341873Y-82416400D01*
X130144225Y-82568060D01*
X130144218Y-82568066D01*
X129968066Y-82744218D01*
X129968060Y-82744225D01*
X129816400Y-82941873D01*
X129691837Y-83157623D01*
X129691830Y-83157638D01*
X129596498Y-83387792D01*
X129532017Y-83628438D01*
X129499501Y-83875424D01*
X129499500Y-83875441D01*
X129499500Y-84124558D01*
X129499501Y-84124575D01*
X129532017Y-84371561D01*
X129596498Y-84612207D01*
X129691830Y-84842361D01*
X129691837Y-84842376D01*
X129816400Y-85058126D01*
X129968060Y-85255774D01*
X129968066Y-85255781D01*
X130144218Y-85431933D01*
X130144225Y-85431939D01*
X130341873Y-85583599D01*
X130557623Y-85708162D01*
X130557638Y-85708169D01*
X130656825Y-85749253D01*
X130787793Y-85803502D01*
X131028435Y-85867982D01*
X131275435Y-85900500D01*
X131275442Y-85900500D01*
X133324558Y-85900500D01*
X133324565Y-85900500D01*
X133571565Y-85867982D01*
X133812207Y-85803502D01*
X134042373Y-85708164D01*
X134258127Y-85583599D01*
X134455776Y-85431938D01*
X134631938Y-85255776D01*
X134783599Y-85058127D01*
X134908164Y-84842373D01*
X135003502Y-84612207D01*
X135067982Y-84371565D01*
X135100500Y-84124565D01*
X135100500Y-83875435D01*
X135067982Y-83628435D01*
X135003502Y-83387793D01*
X134908164Y-83157627D01*
X134783599Y-82941873D01*
X134631938Y-82744224D01*
X134631933Y-82744218D01*
X134455781Y-82568066D01*
X134455774Y-82568060D01*
X134258126Y-82416400D01*
X134053126Y-82298044D01*
X134004911Y-82247477D01*
X133991687Y-82178870D01*
X134017655Y-82114006D01*
X134074569Y-82073477D01*
X134084808Y-82070420D01*
X134264683Y-82025096D01*
X134469626Y-81932007D01*
X134654654Y-81803819D01*
X134813819Y-81644654D01*
X134942007Y-81459626D01*
X135035096Y-81254683D01*
X135090096Y-81036412D01*
X135100500Y-80904217D01*
X135100499Y-79475784D01*
X135090096Y-79343588D01*
X135035096Y-79125317D01*
X134942007Y-78920374D01*
X134830598Y-78759565D01*
X134813825Y-78735354D01*
X134813822Y-78735350D01*
X134813819Y-78735346D01*
X134654654Y-78576181D01*
X134654650Y-78576178D01*
X134654645Y-78576174D01*
X134469632Y-78447997D01*
X134469630Y-78447995D01*
X134469626Y-78447993D01*
X134264683Y-78354904D01*
X134264681Y-78354903D01*
X134264678Y-78354902D01*
X134046420Y-78299905D01*
X134046413Y-78299904D01*
X134002347Y-78296436D01*
X133914217Y-78289500D01*
X133914215Y-78289500D01*
X130685791Y-78289500D01*
X130685776Y-78289501D01*
X130553586Y-78299904D01*
X130553579Y-78299905D01*
X130335321Y-78354902D01*
X130335318Y-78354903D01*
X130130377Y-78447991D01*
X130130367Y-78447997D01*
X129945354Y-78576174D01*
X129945342Y-78576184D01*
X129786184Y-78735342D01*
X129786174Y-78735354D01*
X129657997Y-78920367D01*
X129657991Y-78920377D01*
X129564903Y-79125318D01*
X129564902Y-79125321D01*
X129509905Y-79343579D01*
X129509904Y-79343586D01*
X129499500Y-79475777D01*
X124200500Y-79475777D01*
X124200500Y-64165441D01*
X129499500Y-64165441D01*
X129499500Y-64414558D01*
X129499501Y-64414575D01*
X129532017Y-64661561D01*
X129596498Y-64902207D01*
X129691830Y-65132361D01*
X129691837Y-65132376D01*
X129816400Y-65348126D01*
X129968060Y-65545774D01*
X129968066Y-65545781D01*
X130144218Y-65721933D01*
X130144225Y-65721939D01*
X130341873Y-65873599D01*
X130557623Y-65998162D01*
X130557638Y-65998169D01*
X130756256Y-66080439D01*
X130810660Y-66124280D01*
X130832725Y-66190574D01*
X130815446Y-66258273D01*
X130764309Y-66305884D01*
X130756256Y-66309561D01*
X130557638Y-66391830D01*
X130557623Y-66391837D01*
X130341873Y-66516400D01*
X130144225Y-66668060D01*
X130144218Y-66668066D01*
X129968066Y-66844218D01*
X129968060Y-66844225D01*
X129816400Y-67041873D01*
X129691837Y-67257623D01*
X129691830Y-67257638D01*
X129596498Y-67487792D01*
X129532017Y-67728438D01*
X129499501Y-67975424D01*
X129499500Y-67975441D01*
X129499500Y-68224558D01*
X129499501Y-68224575D01*
X129532017Y-68471561D01*
X129596498Y-68712207D01*
X129691830Y-68942361D01*
X129691837Y-68942376D01*
X129816400Y-69158126D01*
X129968060Y-69355774D01*
X129968066Y-69355781D01*
X130144218Y-69531933D01*
X130144225Y-69531939D01*
X130341873Y-69683599D01*
X130557623Y-69808162D01*
X130557638Y-69808169D01*
X130656825Y-69849253D01*
X130787793Y-69903502D01*
X131028435Y-69967982D01*
X131275435Y-70000500D01*
X131275442Y-70000500D01*
X133324558Y-70000500D01*
X133324565Y-70000500D01*
X133571565Y-69967982D01*
X133812207Y-69903502D01*
X134042373Y-69808164D01*
X134258127Y-69683599D01*
X134455776Y-69531938D01*
X134631938Y-69355776D01*
X134783599Y-69158127D01*
X134908164Y-68942373D01*
X135003502Y-68712207D01*
X135067982Y-68471565D01*
X135100500Y-68224565D01*
X135100500Y-67975435D01*
X135067982Y-67728435D01*
X135003502Y-67487793D01*
X134908164Y-67257627D01*
X134883736Y-67215317D01*
X134783599Y-67041873D01*
X134631939Y-66844225D01*
X134631933Y-66844218D01*
X134455781Y-66668066D01*
X134455774Y-66668060D01*
X134258126Y-66516400D01*
X134042376Y-66391837D01*
X134042361Y-66391830D01*
X133893543Y-66330188D01*
X133843742Y-66309560D01*
X133789339Y-66265720D01*
X133767274Y-66199426D01*
X133784553Y-66131727D01*
X133835690Y-66084116D01*
X133843734Y-66080442D01*
X134042373Y-65998164D01*
X134258127Y-65873599D01*
X134455776Y-65721938D01*
X134631938Y-65545776D01*
X134783599Y-65348127D01*
X134908164Y-65132373D01*
X135003502Y-64902207D01*
X135067982Y-64661565D01*
X135100500Y-64414565D01*
X135100500Y-64165435D01*
X135067982Y-63918435D01*
X135003502Y-63677793D01*
X134908164Y-63447627D01*
X134783599Y-63231873D01*
X134631938Y-63034224D01*
X134631933Y-63034218D01*
X134455781Y-62858066D01*
X134455774Y-62858060D01*
X134258126Y-62706400D01*
X134042376Y-62581837D01*
X134042361Y-62581830D01*
X133812207Y-62486498D01*
X133571561Y-62422017D01*
X133324575Y-62389501D01*
X133324570Y-62389500D01*
X133324565Y-62389500D01*
X131275435Y-62389500D01*
X131275429Y-62389500D01*
X131275424Y-62389501D01*
X131028438Y-62422017D01*
X130787792Y-62486498D01*
X130557638Y-62581830D01*
X130557623Y-62581837D01*
X130341873Y-62706400D01*
X130144225Y-62858060D01*
X130144218Y-62858066D01*
X129968066Y-63034218D01*
X129968060Y-63034225D01*
X129816400Y-63231873D01*
X129691837Y-63447623D01*
X129691830Y-63447638D01*
X129596498Y-63677792D01*
X129532017Y-63918438D01*
X129499501Y-64165424D01*
X129499500Y-64165441D01*
X124200500Y-64165441D01*
X124200500Y-60230000D01*
X130022145Y-60230000D01*
X131751518Y-60230000D01*
X131740889Y-60248409D01*
X131700000Y-60401009D01*
X131700000Y-60558991D01*
X131740889Y-60711591D01*
X131751518Y-60730000D01*
X130022145Y-60730000D01*
X130034473Y-60807835D01*
X130034473Y-60807838D01*
X130102567Y-61017410D01*
X130202613Y-61213760D01*
X130332142Y-61392041D01*
X130487958Y-61547857D01*
X130666239Y-61677386D01*
X130862589Y-61777432D01*
X131072164Y-61845526D01*
X131289819Y-61880000D01*
X132050000Y-61880000D01*
X132050000Y-61028482D01*
X132068409Y-61039111D01*
X132221009Y-61080000D01*
X132378991Y-61080000D01*
X132531591Y-61039111D01*
X132550000Y-61028482D01*
X132550000Y-61880000D01*
X133310181Y-61880000D01*
X133527835Y-61845526D01*
X133737410Y-61777432D01*
X133933760Y-61677386D01*
X134112041Y-61547857D01*
X134267857Y-61392041D01*
X134397386Y-61213760D01*
X134497432Y-61017410D01*
X134565526Y-60807838D01*
X134565526Y-60807835D01*
X134577855Y-60730000D01*
X132848482Y-60730000D01*
X132859111Y-60711591D01*
X132900000Y-60558991D01*
X132900000Y-60401009D01*
X132859111Y-60248409D01*
X132848482Y-60230000D01*
X134577855Y-60230000D01*
X134565526Y-60152164D01*
X134565526Y-60152161D01*
X134497432Y-59942589D01*
X134397386Y-59746239D01*
X134267857Y-59567958D01*
X134112041Y-59412142D01*
X133933760Y-59282613D01*
X133737410Y-59182567D01*
X133527835Y-59114473D01*
X133310181Y-59080000D01*
X132550000Y-59080000D01*
X132550000Y-59931517D01*
X132531591Y-59920889D01*
X132378991Y-59880000D01*
X132221009Y-59880000D01*
X132068409Y-59920889D01*
X132050000Y-59931517D01*
X132050000Y-59080000D01*
X131289819Y-59080000D01*
X131072164Y-59114473D01*
X130862589Y-59182567D01*
X130666239Y-59282613D01*
X130487958Y-59412142D01*
X130332142Y-59567958D01*
X130202613Y-59746239D01*
X130102567Y-59942589D01*
X130034473Y-60152161D01*
X130034473Y-60152164D01*
X130022145Y-60230000D01*
X124200500Y-60230000D01*
X124200500Y-55955777D01*
X129499500Y-55955777D01*
X129499500Y-57384208D01*
X129499501Y-57384223D01*
X129509904Y-57516413D01*
X129509905Y-57516420D01*
X129564902Y-57734678D01*
X129564903Y-57734681D01*
X129657991Y-57939622D01*
X129657997Y-57939632D01*
X129786174Y-58124645D01*
X129786178Y-58124650D01*
X129786181Y-58124654D01*
X129945346Y-58283819D01*
X129945350Y-58283822D01*
X129945354Y-58283825D01*
X129990353Y-58315000D01*
X130130374Y-58412007D01*
X130335317Y-58505096D01*
X130335321Y-58505097D01*
X130553579Y-58560094D01*
X130553581Y-58560094D01*
X130553588Y-58560096D01*
X130685783Y-58570500D01*
X133914216Y-58570499D01*
X134046412Y-58560096D01*
X134264683Y-58505096D01*
X134469626Y-58412007D01*
X134654654Y-58283819D01*
X134813819Y-58124654D01*
X134942007Y-57939626D01*
X135035096Y-57734683D01*
X135090096Y-57516412D01*
X135100500Y-57384217D01*
X135100500Y-57356966D01*
X140412000Y-57356966D01*
X140412000Y-59273028D01*
X140412001Y-59273034D01*
X140422613Y-59392415D01*
X140478589Y-59588045D01*
X140478590Y-59588047D01*
X140478591Y-59588049D01*
X140572802Y-59768407D01*
X140572804Y-59768409D01*
X140619762Y-59825999D01*
X140646871Y-59890396D01*
X140634862Y-59959225D01*
X140631048Y-59966358D01*
X140604339Y-60012621D01*
X140604330Y-60012638D01*
X140508998Y-60242792D01*
X140444517Y-60483438D01*
X140412001Y-60730424D01*
X140412000Y-60730441D01*
X140412000Y-60979558D01*
X140412001Y-60979575D01*
X140444517Y-61226561D01*
X140508998Y-61467207D01*
X140604330Y-61697361D01*
X140604337Y-61697376D01*
X140728900Y-61913126D01*
X140833553Y-62049514D01*
X140858747Y-62114683D01*
X140844708Y-62183128D01*
X140833553Y-62200486D01*
X140728900Y-62336873D01*
X140604337Y-62552623D01*
X140604330Y-62552638D01*
X140508998Y-62782792D01*
X140444517Y-63023438D01*
X140412001Y-63270424D01*
X140412000Y-63270441D01*
X140412000Y-63519558D01*
X140412001Y-63519575D01*
X140444517Y-63766561D01*
X140508998Y-64007207D01*
X140604330Y-64237361D01*
X140604337Y-64237376D01*
X140728900Y-64453126D01*
X140833553Y-64589514D01*
X140858747Y-64654683D01*
X140844708Y-64723128D01*
X140833553Y-64740486D01*
X140728900Y-64876873D01*
X140604337Y-65092623D01*
X140604330Y-65092638D01*
X140508998Y-65322792D01*
X140444517Y-65563438D01*
X140412001Y-65810424D01*
X140412000Y-65810441D01*
X140412000Y-66059558D01*
X140412001Y-66059575D01*
X140444517Y-66306561D01*
X140508998Y-66547207D01*
X140604330Y-66777361D01*
X140604337Y-66777376D01*
X140728900Y-66993126D01*
X140833553Y-67129514D01*
X140858747Y-67194683D01*
X140844708Y-67263128D01*
X140833553Y-67280486D01*
X140728900Y-67416873D01*
X140604337Y-67632623D01*
X140604330Y-67632638D01*
X140508998Y-67862792D01*
X140444517Y-68103438D01*
X140412001Y-68350424D01*
X140412000Y-68350441D01*
X140412000Y-68599558D01*
X140412001Y-68599575D01*
X140444517Y-68846561D01*
X140508998Y-69087207D01*
X140604330Y-69317361D01*
X140604337Y-69317376D01*
X140728900Y-69533126D01*
X140833553Y-69669514D01*
X140858747Y-69734683D01*
X140844708Y-69803128D01*
X140833553Y-69820486D01*
X140728900Y-69956873D01*
X140604337Y-70172623D01*
X140604330Y-70172638D01*
X140508998Y-70402792D01*
X140444517Y-70643438D01*
X140412001Y-70890424D01*
X140412000Y-70890441D01*
X140412000Y-71139558D01*
X140412001Y-71139575D01*
X140444517Y-71386561D01*
X140508998Y-71627207D01*
X140604330Y-71857361D01*
X140604337Y-71857376D01*
X140728900Y-72073126D01*
X140833553Y-72209514D01*
X140858747Y-72274683D01*
X140844708Y-72343128D01*
X140833553Y-72360486D01*
X140728900Y-72496873D01*
X140604337Y-72712623D01*
X140604330Y-72712638D01*
X140508998Y-72942792D01*
X140444517Y-73183438D01*
X140412001Y-73430424D01*
X140412000Y-73430441D01*
X140412000Y-73679558D01*
X140412001Y-73679575D01*
X140444517Y-73926561D01*
X140508998Y-74167207D01*
X140604330Y-74397361D01*
X140604337Y-74397376D01*
X140728900Y-74613126D01*
X140833553Y-74749514D01*
X140858747Y-74814683D01*
X140844708Y-74883128D01*
X140833553Y-74900486D01*
X140728900Y-75036873D01*
X140604337Y-75252623D01*
X140604330Y-75252638D01*
X140508998Y-75482792D01*
X140444517Y-75723438D01*
X140412001Y-75970424D01*
X140412000Y-75970441D01*
X140412000Y-76219558D01*
X140412001Y-76219575D01*
X140444517Y-76466561D01*
X140508998Y-76707207D01*
X140604330Y-76937361D01*
X140604337Y-76937376D01*
X140728900Y-77153126D01*
X140833553Y-77289514D01*
X140858747Y-77354683D01*
X140844708Y-77423128D01*
X140833553Y-77440486D01*
X140728900Y-77576873D01*
X140604337Y-77792623D01*
X140604330Y-77792638D01*
X140508998Y-78022792D01*
X140444517Y-78263438D01*
X140412001Y-78510424D01*
X140412000Y-78510441D01*
X140412000Y-78759558D01*
X140412001Y-78759575D01*
X140444517Y-79006561D01*
X140508998Y-79247207D01*
X140604330Y-79477361D01*
X140604337Y-79477376D01*
X140728900Y-79693126D01*
X140833553Y-79829514D01*
X140858747Y-79894683D01*
X140844708Y-79963128D01*
X140833553Y-79980486D01*
X140728900Y-80116873D01*
X140604337Y-80332623D01*
X140604330Y-80332638D01*
X140508998Y-80562792D01*
X140444517Y-80803438D01*
X140412001Y-81050424D01*
X140412000Y-81050441D01*
X140412000Y-81299558D01*
X140412001Y-81299575D01*
X140444517Y-81546561D01*
X140508998Y-81787207D01*
X140604330Y-82017361D01*
X140604337Y-82017376D01*
X140728900Y-82233126D01*
X140833553Y-82369514D01*
X140858747Y-82434683D01*
X140844708Y-82503128D01*
X140833553Y-82520486D01*
X140728900Y-82656873D01*
X140604337Y-82872623D01*
X140604330Y-82872638D01*
X140508998Y-83102792D01*
X140444517Y-83343438D01*
X140412001Y-83590424D01*
X140412000Y-83590441D01*
X140412000Y-83839558D01*
X140412001Y-83839575D01*
X140444517Y-84086561D01*
X140508998Y-84327207D01*
X140604330Y-84557361D01*
X140604337Y-84557376D01*
X140728900Y-84773126D01*
X140833553Y-84909514D01*
X140858747Y-84974683D01*
X140844708Y-85043128D01*
X140833553Y-85060486D01*
X140728900Y-85196873D01*
X140604337Y-85412623D01*
X140604330Y-85412638D01*
X140508998Y-85642792D01*
X140444517Y-85883438D01*
X140412001Y-86130424D01*
X140412000Y-86130441D01*
X140412000Y-86379558D01*
X140412001Y-86379575D01*
X140444517Y-86626561D01*
X140508998Y-86867207D01*
X140604330Y-87097361D01*
X140604337Y-87097376D01*
X140728900Y-87313126D01*
X140833553Y-87449514D01*
X140858747Y-87514683D01*
X140844708Y-87583128D01*
X140833553Y-87600486D01*
X140728900Y-87736873D01*
X140604337Y-87952623D01*
X140604330Y-87952638D01*
X140508998Y-88182792D01*
X140444517Y-88423438D01*
X140412001Y-88670424D01*
X140412000Y-88670441D01*
X140412000Y-88919558D01*
X140412001Y-88919575D01*
X140444517Y-89166561D01*
X140508998Y-89407207D01*
X140604330Y-89637361D01*
X140604337Y-89637376D01*
X140728900Y-89853126D01*
X140880560Y-90050774D01*
X140880566Y-90050781D01*
X141056718Y-90226933D01*
X141056725Y-90226939D01*
X141172983Y-90316147D01*
X141214186Y-90372575D01*
X141218341Y-90442321D01*
X141197816Y-90487408D01*
X141115112Y-90601240D01*
X141015067Y-90797589D01*
X140946973Y-91007164D01*
X140912500Y-91224818D01*
X140912500Y-91445181D01*
X140946973Y-91662835D01*
X141015067Y-91872410D01*
X141115113Y-92068760D01*
X141197816Y-92182590D01*
X141221296Y-92248397D01*
X141205471Y-92316451D01*
X141172984Y-92353852D01*
X141056725Y-92443060D01*
X141056718Y-92443066D01*
X140880566Y-92619218D01*
X140880560Y-92619225D01*
X140728900Y-92816873D01*
X140604337Y-93032623D01*
X140604330Y-93032638D01*
X140508998Y-93262792D01*
X140444517Y-93503438D01*
X140412001Y-93750424D01*
X140412000Y-93750441D01*
X140412000Y-93999558D01*
X140412001Y-93999575D01*
X140444517Y-94246561D01*
X140508998Y-94487207D01*
X140604330Y-94717361D01*
X140604337Y-94717376D01*
X140728900Y-94933126D01*
X140833553Y-95069514D01*
X140858747Y-95134683D01*
X140844708Y-95203128D01*
X140833553Y-95220486D01*
X140728900Y-95356873D01*
X140604337Y-95572623D01*
X140604330Y-95572638D01*
X140508998Y-95802792D01*
X140444517Y-96043438D01*
X140412001Y-96290424D01*
X140412000Y-96290441D01*
X140412000Y-96539558D01*
X140412001Y-96539575D01*
X140444517Y-96786561D01*
X140508998Y-97027207D01*
X140604330Y-97257361D01*
X140604337Y-97257376D01*
X140728900Y-97473126D01*
X140833553Y-97609514D01*
X140858747Y-97674683D01*
X140844708Y-97743128D01*
X140833553Y-97760486D01*
X140728900Y-97896873D01*
X140604337Y-98112623D01*
X140604330Y-98112638D01*
X140508998Y-98342792D01*
X140444517Y-98583438D01*
X140412001Y-98830424D01*
X140412000Y-98830441D01*
X140412000Y-99079558D01*
X140412001Y-99079575D01*
X140444517Y-99326561D01*
X140508998Y-99567207D01*
X140604330Y-99797361D01*
X140604337Y-99797376D01*
X140728900Y-100013126D01*
X140833553Y-100149514D01*
X140858747Y-100214683D01*
X140844708Y-100283128D01*
X140833553Y-100300486D01*
X140728900Y-100436873D01*
X140604337Y-100652623D01*
X140604330Y-100652638D01*
X140508998Y-100882792D01*
X140444517Y-101123438D01*
X140412001Y-101370424D01*
X140412000Y-101370441D01*
X140412000Y-101619558D01*
X140412001Y-101619575D01*
X140444517Y-101866561D01*
X140508998Y-102107207D01*
X140604330Y-102337361D01*
X140604337Y-102337376D01*
X140728900Y-102553126D01*
X140833553Y-102689514D01*
X140858747Y-102754683D01*
X140844708Y-102823128D01*
X140833553Y-102840486D01*
X140728900Y-102976873D01*
X140604337Y-103192623D01*
X140604330Y-103192638D01*
X140508998Y-103422792D01*
X140444517Y-103663438D01*
X140412001Y-103910424D01*
X140412000Y-103910441D01*
X140412000Y-104159558D01*
X140412001Y-104159575D01*
X140444517Y-104406561D01*
X140508998Y-104647207D01*
X140604330Y-104877361D01*
X140604337Y-104877376D01*
X140728900Y-105093126D01*
X140880560Y-105290774D01*
X140880566Y-105290781D01*
X141056718Y-105466933D01*
X141056725Y-105466939D01*
X141254373Y-105618599D01*
X141470123Y-105743162D01*
X141470138Y-105743169D01*
X141569325Y-105784253D01*
X141700293Y-105838502D01*
X141940935Y-105902982D01*
X142187935Y-105935500D01*
X142187942Y-105935500D01*
X142437058Y-105935500D01*
X142437065Y-105935500D01*
X142684065Y-105902982D01*
X142924707Y-105838502D01*
X143154873Y-105743164D01*
X143370627Y-105618599D01*
X143568276Y-105466938D01*
X143744438Y-105290776D01*
X143896099Y-105093127D01*
X144020664Y-104877373D01*
X144116002Y-104647207D01*
X144180482Y-104406565D01*
X144213000Y-104159565D01*
X144213000Y-103910435D01*
X144180482Y-103663435D01*
X144116002Y-103422793D01*
X144020664Y-103192627D01*
X143896099Y-102976873D01*
X143791446Y-102840486D01*
X143766252Y-102775317D01*
X143780290Y-102706872D01*
X143791446Y-102689514D01*
X143807760Y-102668251D01*
X143896099Y-102553127D01*
X144020664Y-102337373D01*
X144116002Y-102107207D01*
X144180482Y-101866565D01*
X144213000Y-101619565D01*
X144213000Y-101370435D01*
X144180482Y-101123435D01*
X144116002Y-100882793D01*
X144020664Y-100652627D01*
X143896099Y-100436873D01*
X143791446Y-100300486D01*
X143766252Y-100235317D01*
X143780290Y-100166872D01*
X143791446Y-100149514D01*
X143807760Y-100128251D01*
X143896099Y-100013127D01*
X144020664Y-99797373D01*
X144116002Y-99567207D01*
X144180482Y-99326565D01*
X144213000Y-99079565D01*
X144213000Y-98830435D01*
X144180482Y-98583435D01*
X144116002Y-98342793D01*
X144020664Y-98112627D01*
X143896099Y-97896873D01*
X143791446Y-97760486D01*
X143766252Y-97695317D01*
X143780290Y-97626872D01*
X143791446Y-97609514D01*
X143807760Y-97588251D01*
X143896099Y-97473127D01*
X144020664Y-97257373D01*
X144116002Y-97027207D01*
X144180482Y-96786565D01*
X144213000Y-96539565D01*
X144213000Y-96290435D01*
X144180482Y-96043435D01*
X144116002Y-95802793D01*
X144020664Y-95572627D01*
X143896099Y-95356873D01*
X143791446Y-95220486D01*
X143766252Y-95155317D01*
X143780290Y-95086872D01*
X143791446Y-95069514D01*
X143807760Y-95048251D01*
X143896099Y-94933127D01*
X144020664Y-94717373D01*
X144116002Y-94487207D01*
X144180482Y-94246565D01*
X144213000Y-93999565D01*
X144213000Y-93750435D01*
X144180482Y-93503435D01*
X144116002Y-93262793D01*
X144020664Y-93032627D01*
X143896099Y-92816873D01*
X143744438Y-92619224D01*
X143744433Y-92619218D01*
X143568281Y-92443066D01*
X143568274Y-92443060D01*
X143452016Y-92353852D01*
X143410813Y-92297424D01*
X143406658Y-92227678D01*
X143427184Y-92182590D01*
X143509886Y-92068760D01*
X143609932Y-91872410D01*
X143678026Y-91662835D01*
X143712500Y-91445181D01*
X143712500Y-91224818D01*
X143678026Y-91007164D01*
X143609932Y-90797589D01*
X143509884Y-90601236D01*
X143427184Y-90487408D01*
X143403704Y-90421602D01*
X143419530Y-90353548D01*
X143452016Y-90316147D01*
X143503199Y-90276873D01*
X143568276Y-90226938D01*
X143744438Y-90050776D01*
X143896099Y-89853127D01*
X144020664Y-89637373D01*
X144116002Y-89407207D01*
X144180482Y-89166565D01*
X144213000Y-88919565D01*
X144213000Y-88670435D01*
X144180482Y-88423435D01*
X144116002Y-88182793D01*
X144020664Y-87952627D01*
X143896099Y-87736873D01*
X143791446Y-87600486D01*
X143766252Y-87535317D01*
X143780290Y-87466872D01*
X143791446Y-87449514D01*
X143854819Y-87366924D01*
X143896099Y-87313127D01*
X144020664Y-87097373D01*
X144116002Y-86867207D01*
X144180482Y-86626565D01*
X144213000Y-86379565D01*
X144213000Y-86130435D01*
X144180482Y-85883435D01*
X144116002Y-85642793D01*
X144061753Y-85511825D01*
X144020669Y-85412638D01*
X144020662Y-85412623D01*
X143896099Y-85196873D01*
X143791446Y-85060486D01*
X143766252Y-84995317D01*
X143780290Y-84926872D01*
X143791446Y-84909514D01*
X143807760Y-84888251D01*
X143896099Y-84773127D01*
X144020664Y-84557373D01*
X144116002Y-84327207D01*
X144180482Y-84086565D01*
X144213000Y-83839565D01*
X144213000Y-83590435D01*
X144180482Y-83343435D01*
X144116002Y-83102793D01*
X144020664Y-82872627D01*
X143946531Y-82744225D01*
X143896099Y-82656873D01*
X143791446Y-82520486D01*
X143766252Y-82455317D01*
X143780290Y-82386872D01*
X143791446Y-82369514D01*
X143807760Y-82348251D01*
X143896099Y-82233127D01*
X144020664Y-82017373D01*
X144116002Y-81787207D01*
X144180482Y-81546565D01*
X144213000Y-81299565D01*
X144213000Y-81050435D01*
X144180482Y-80803435D01*
X144116002Y-80562793D01*
X144020664Y-80332627D01*
X143896099Y-80116873D01*
X143791446Y-79980486D01*
X143766252Y-79915317D01*
X143780290Y-79846872D01*
X143791446Y-79829514D01*
X143807760Y-79808251D01*
X143896099Y-79693127D01*
X144020664Y-79477373D01*
X144021326Y-79475776D01*
X144023394Y-79470781D01*
X144116002Y-79247207D01*
X144180482Y-79006565D01*
X144213000Y-78759565D01*
X144213000Y-78510435D01*
X144180482Y-78263435D01*
X144116002Y-78022793D01*
X144020664Y-77792627D01*
X143896099Y-77576873D01*
X143791446Y-77440486D01*
X143766252Y-77375317D01*
X143780290Y-77306872D01*
X143791446Y-77289514D01*
X143807760Y-77268251D01*
X143896099Y-77153127D01*
X144020664Y-76937373D01*
X144116002Y-76707207D01*
X144180482Y-76466565D01*
X144213000Y-76219565D01*
X144213000Y-75970435D01*
X144180482Y-75723435D01*
X144116002Y-75482793D01*
X144059795Y-75347098D01*
X144020669Y-75252638D01*
X144020662Y-75252623D01*
X143896099Y-75036873D01*
X143791446Y-74900486D01*
X143766252Y-74835317D01*
X143780290Y-74766872D01*
X143791446Y-74749514D01*
X143837003Y-74690142D01*
X143896099Y-74613127D01*
X144020664Y-74397373D01*
X144116002Y-74167207D01*
X144180482Y-73926565D01*
X144213000Y-73679565D01*
X144213000Y-73430435D01*
X144180482Y-73183435D01*
X144116002Y-72942793D01*
X144020664Y-72712627D01*
X143896099Y-72496873D01*
X143791446Y-72360486D01*
X143766252Y-72295317D01*
X143780290Y-72226872D01*
X143791446Y-72209514D01*
X143807760Y-72188251D01*
X143896099Y-72073127D01*
X144020664Y-71857373D01*
X144116002Y-71627207D01*
X144180482Y-71386565D01*
X144213000Y-71139565D01*
X144213000Y-70890435D01*
X144180482Y-70643435D01*
X144116002Y-70402793D01*
X144020664Y-70172627D01*
X143896099Y-69956873D01*
X143791446Y-69820486D01*
X143766252Y-69755317D01*
X143780290Y-69686872D01*
X143791446Y-69669514D01*
X143807760Y-69648251D01*
X143896099Y-69533127D01*
X144020664Y-69317373D01*
X144116002Y-69087207D01*
X144180482Y-68846565D01*
X144213000Y-68599565D01*
X144213000Y-68350435D01*
X144180482Y-68103435D01*
X144116002Y-67862793D01*
X144020664Y-67632627D01*
X143937044Y-67487793D01*
X143896099Y-67416873D01*
X143791446Y-67280486D01*
X143766252Y-67215317D01*
X143780290Y-67146872D01*
X143791446Y-67129514D01*
X143858695Y-67041873D01*
X143896099Y-66993127D01*
X144020664Y-66777373D01*
X144116002Y-66547207D01*
X144180482Y-66306565D01*
X144213000Y-66059565D01*
X144213000Y-65810435D01*
X144180482Y-65563435D01*
X144116002Y-65322793D01*
X144037129Y-65132376D01*
X144020669Y-65092638D01*
X144020662Y-65092623D01*
X143896099Y-64876873D01*
X143791446Y-64740486D01*
X143766252Y-64675317D01*
X143780290Y-64606872D01*
X143791446Y-64589514D01*
X143807760Y-64568251D01*
X143896099Y-64453127D01*
X144020664Y-64237373D01*
X144116002Y-64007207D01*
X144180482Y-63766565D01*
X144213000Y-63519565D01*
X144213000Y-63270435D01*
X144180482Y-63023435D01*
X144116002Y-62782793D01*
X144061753Y-62651825D01*
X144020669Y-62552638D01*
X144020662Y-62552623D01*
X143896099Y-62336873D01*
X143791446Y-62200486D01*
X143766252Y-62135317D01*
X143780290Y-62066872D01*
X143791446Y-62049514D01*
X143807760Y-62028251D01*
X143896099Y-61913127D01*
X144020664Y-61697373D01*
X144116002Y-61467207D01*
X144180482Y-61226565D01*
X144213000Y-60979565D01*
X144213000Y-60730441D01*
X165812000Y-60730441D01*
X165812000Y-60979558D01*
X165812001Y-60979575D01*
X165844517Y-61226561D01*
X165908998Y-61467207D01*
X166004330Y-61697361D01*
X166004337Y-61697376D01*
X166128900Y-61913126D01*
X166233553Y-62049514D01*
X166258747Y-62114683D01*
X166244708Y-62183128D01*
X166233553Y-62200486D01*
X166128900Y-62336873D01*
X166004337Y-62552623D01*
X166004330Y-62552638D01*
X165908998Y-62782792D01*
X165844517Y-63023438D01*
X165812001Y-63270424D01*
X165812000Y-63270441D01*
X165812000Y-63519558D01*
X165812001Y-63519575D01*
X165844517Y-63766561D01*
X165908998Y-64007207D01*
X166004330Y-64237361D01*
X166004337Y-64237376D01*
X166128900Y-64453126D01*
X166233553Y-64589514D01*
X166258747Y-64654683D01*
X166244708Y-64723128D01*
X166233553Y-64740486D01*
X166128900Y-64876873D01*
X166004337Y-65092623D01*
X166004330Y-65092638D01*
X165908998Y-65322792D01*
X165844517Y-65563438D01*
X165812001Y-65810424D01*
X165812000Y-65810441D01*
X165812000Y-66059558D01*
X165812001Y-66059575D01*
X165844517Y-66306561D01*
X165908998Y-66547207D01*
X166004330Y-66777361D01*
X166004337Y-66777376D01*
X166128900Y-66993126D01*
X166233553Y-67129514D01*
X166258747Y-67194683D01*
X166244708Y-67263128D01*
X166233553Y-67280486D01*
X166128900Y-67416873D01*
X166004337Y-67632623D01*
X166004330Y-67632638D01*
X165908998Y-67862792D01*
X165844517Y-68103438D01*
X165812001Y-68350424D01*
X165812000Y-68350441D01*
X165812000Y-68599558D01*
X165812001Y-68599575D01*
X165844517Y-68846561D01*
X165908998Y-69087207D01*
X166004330Y-69317361D01*
X166004337Y-69317376D01*
X166128900Y-69533126D01*
X166233553Y-69669514D01*
X166258747Y-69734683D01*
X166244708Y-69803128D01*
X166233553Y-69820486D01*
X166128900Y-69956873D01*
X166004337Y-70172623D01*
X166004330Y-70172638D01*
X165908998Y-70402792D01*
X165844517Y-70643438D01*
X165812001Y-70890424D01*
X165812000Y-70890441D01*
X165812000Y-71139558D01*
X165812001Y-71139575D01*
X165844517Y-71386561D01*
X165908998Y-71627207D01*
X166004330Y-71857361D01*
X166004337Y-71857376D01*
X166128900Y-72073126D01*
X166280560Y-72270774D01*
X166280566Y-72270781D01*
X166456718Y-72446933D01*
X166456725Y-72446939D01*
X166572983Y-72536147D01*
X166614186Y-72592575D01*
X166618341Y-72662321D01*
X166597816Y-72707408D01*
X166515112Y-72821240D01*
X166415067Y-73017589D01*
X166346973Y-73227164D01*
X166312500Y-73444818D01*
X166312500Y-73665181D01*
X166346973Y-73882835D01*
X166415067Y-74092410D01*
X166515113Y-74288760D01*
X166597816Y-74402590D01*
X166621296Y-74468397D01*
X166605471Y-74536451D01*
X166572984Y-74573852D01*
X166456725Y-74663060D01*
X166456718Y-74663066D01*
X166280566Y-74839218D01*
X166280560Y-74839225D01*
X166128900Y-75036873D01*
X166004337Y-75252623D01*
X166004330Y-75252638D01*
X165908998Y-75482792D01*
X165844517Y-75723438D01*
X165812001Y-75970424D01*
X165812000Y-75970441D01*
X165812000Y-76219558D01*
X165812001Y-76219575D01*
X165844517Y-76466561D01*
X165908998Y-76707207D01*
X166004330Y-76937361D01*
X166004337Y-76937376D01*
X166128900Y-77153126D01*
X166233553Y-77289514D01*
X166258747Y-77354683D01*
X166244708Y-77423128D01*
X166233553Y-77440486D01*
X166128900Y-77576873D01*
X166004337Y-77792623D01*
X166004330Y-77792638D01*
X165908998Y-78022792D01*
X165844517Y-78263438D01*
X165812001Y-78510424D01*
X165812000Y-78510441D01*
X165812000Y-78759558D01*
X165812001Y-78759575D01*
X165844517Y-79006561D01*
X165908998Y-79247207D01*
X166004330Y-79477361D01*
X166004337Y-79477376D01*
X166128900Y-79693126D01*
X166233553Y-79829514D01*
X166258747Y-79894683D01*
X166244708Y-79963128D01*
X166233553Y-79980486D01*
X166128900Y-80116873D01*
X166004337Y-80332623D01*
X166004330Y-80332638D01*
X165908998Y-80562792D01*
X165844517Y-80803438D01*
X165812001Y-81050424D01*
X165812000Y-81050441D01*
X165812000Y-81299558D01*
X165812001Y-81299575D01*
X165844517Y-81546561D01*
X165908998Y-81787207D01*
X166004330Y-82017361D01*
X166004337Y-82017376D01*
X166128900Y-82233126D01*
X166233553Y-82369514D01*
X166258747Y-82434683D01*
X166244708Y-82503128D01*
X166233553Y-82520486D01*
X166128900Y-82656873D01*
X166004337Y-82872623D01*
X166004330Y-82872638D01*
X165908998Y-83102792D01*
X165844517Y-83343438D01*
X165812001Y-83590424D01*
X165812000Y-83590441D01*
X165812000Y-83839558D01*
X165812001Y-83839575D01*
X165844517Y-84086561D01*
X165908998Y-84327207D01*
X166004330Y-84557361D01*
X166004337Y-84557376D01*
X166128900Y-84773126D01*
X166233553Y-84909514D01*
X166258747Y-84974683D01*
X166244708Y-85043128D01*
X166233553Y-85060486D01*
X166128900Y-85196873D01*
X166004337Y-85412623D01*
X166004330Y-85412638D01*
X165908998Y-85642792D01*
X165844517Y-85883438D01*
X165812001Y-86130424D01*
X165812000Y-86130441D01*
X165812000Y-86379558D01*
X165812001Y-86379575D01*
X165844517Y-86626561D01*
X165908998Y-86867207D01*
X166004330Y-87097361D01*
X166004337Y-87097376D01*
X166128900Y-87313126D01*
X166233553Y-87449514D01*
X166258747Y-87514683D01*
X166244708Y-87583128D01*
X166233553Y-87600486D01*
X166128900Y-87736873D01*
X166004337Y-87952623D01*
X166004330Y-87952638D01*
X165908998Y-88182792D01*
X165844517Y-88423438D01*
X165812001Y-88670424D01*
X165812000Y-88670441D01*
X165812000Y-88919558D01*
X165812001Y-88919575D01*
X165844517Y-89166561D01*
X165908998Y-89407207D01*
X166004330Y-89637361D01*
X166004337Y-89637376D01*
X166128900Y-89853126D01*
X166233553Y-89989514D01*
X166258747Y-90054683D01*
X166244708Y-90123128D01*
X166233553Y-90140486D01*
X166128900Y-90276873D01*
X166004337Y-90492623D01*
X166004330Y-90492638D01*
X165908998Y-90722792D01*
X165844517Y-90963438D01*
X165812001Y-91210424D01*
X165812000Y-91210441D01*
X165812000Y-91459558D01*
X165812001Y-91459575D01*
X165844517Y-91706561D01*
X165908998Y-91947207D01*
X166004330Y-92177361D01*
X166004337Y-92177376D01*
X166128900Y-92393126D01*
X166233553Y-92529514D01*
X166258747Y-92594683D01*
X166244708Y-92663128D01*
X166233553Y-92680486D01*
X166128900Y-92816873D01*
X166004337Y-93032623D01*
X166004330Y-93032638D01*
X165908998Y-93262792D01*
X165844517Y-93503438D01*
X165812001Y-93750424D01*
X165812000Y-93750441D01*
X165812000Y-93999558D01*
X165812001Y-93999575D01*
X165844517Y-94246561D01*
X165908998Y-94487207D01*
X166004330Y-94717361D01*
X166004337Y-94717376D01*
X166128900Y-94933126D01*
X166233553Y-95069514D01*
X166258747Y-95134683D01*
X166244708Y-95203128D01*
X166233553Y-95220486D01*
X166128900Y-95356873D01*
X166004337Y-95572623D01*
X166004330Y-95572638D01*
X165908998Y-95802792D01*
X165844517Y-96043438D01*
X165812001Y-96290424D01*
X165812000Y-96290441D01*
X165812000Y-96539558D01*
X165812001Y-96539575D01*
X165844517Y-96786561D01*
X165908998Y-97027207D01*
X166004330Y-97257361D01*
X166004337Y-97257376D01*
X166128900Y-97473126D01*
X166233553Y-97609514D01*
X166258747Y-97674683D01*
X166244708Y-97743128D01*
X166233553Y-97760486D01*
X166128900Y-97896873D01*
X166004337Y-98112623D01*
X166004330Y-98112638D01*
X165908998Y-98342792D01*
X165844517Y-98583438D01*
X165812001Y-98830424D01*
X165812000Y-98830441D01*
X165812000Y-99079558D01*
X165812001Y-99079575D01*
X165844517Y-99326561D01*
X165908998Y-99567207D01*
X166004330Y-99797361D01*
X166004337Y-99797376D01*
X166128900Y-100013126D01*
X166233553Y-100149514D01*
X166258747Y-100214683D01*
X166244708Y-100283128D01*
X166233553Y-100300486D01*
X166128900Y-100436873D01*
X166004337Y-100652623D01*
X166004330Y-100652638D01*
X165908998Y-100882792D01*
X165844517Y-101123438D01*
X165812001Y-101370424D01*
X165812000Y-101370441D01*
X165812000Y-101619558D01*
X165812001Y-101619575D01*
X165844517Y-101866561D01*
X165908998Y-102107207D01*
X166004330Y-102337361D01*
X166004337Y-102337376D01*
X166128900Y-102553126D01*
X166233553Y-102689514D01*
X166258747Y-102754683D01*
X166244708Y-102823128D01*
X166233553Y-102840486D01*
X166128900Y-102976873D01*
X166004337Y-103192623D01*
X166004330Y-103192638D01*
X165908998Y-103422792D01*
X165844517Y-103663438D01*
X165812001Y-103910424D01*
X165812000Y-103910441D01*
X165812000Y-104159558D01*
X165812001Y-104159575D01*
X165844517Y-104406561D01*
X165908998Y-104647207D01*
X166004330Y-104877361D01*
X166004337Y-104877376D01*
X166128900Y-105093126D01*
X166280560Y-105290774D01*
X166280566Y-105290781D01*
X166456718Y-105466933D01*
X166456725Y-105466939D01*
X166654373Y-105618599D01*
X166870123Y-105743162D01*
X166870138Y-105743169D01*
X166969325Y-105784253D01*
X167100293Y-105838502D01*
X167340935Y-105902982D01*
X167587935Y-105935500D01*
X167587942Y-105935500D01*
X167837058Y-105935500D01*
X167837065Y-105935500D01*
X168084065Y-105902982D01*
X168324707Y-105838502D01*
X168554873Y-105743164D01*
X168770627Y-105618599D01*
X168968276Y-105466938D01*
X169144438Y-105290776D01*
X169296099Y-105093127D01*
X169420664Y-104877373D01*
X169516002Y-104647207D01*
X169580482Y-104406565D01*
X169613000Y-104159565D01*
X169613000Y-103910435D01*
X169580482Y-103663435D01*
X169516002Y-103422793D01*
X169420664Y-103192627D01*
X169296099Y-102976873D01*
X169191446Y-102840486D01*
X169166252Y-102775317D01*
X169180290Y-102706872D01*
X169191446Y-102689514D01*
X169207760Y-102668251D01*
X169296099Y-102553127D01*
X169420664Y-102337373D01*
X169516002Y-102107207D01*
X169580482Y-101866565D01*
X169613000Y-101619565D01*
X169613000Y-101370435D01*
X169580482Y-101123435D01*
X169516002Y-100882793D01*
X169420664Y-100652627D01*
X169296099Y-100436873D01*
X169191446Y-100300486D01*
X169166252Y-100235317D01*
X169180290Y-100166872D01*
X169191446Y-100149514D01*
X169207760Y-100128251D01*
X169296099Y-100013127D01*
X169420664Y-99797373D01*
X169516002Y-99567207D01*
X169580482Y-99326565D01*
X169613000Y-99079565D01*
X169613000Y-98830435D01*
X169580482Y-98583435D01*
X169516002Y-98342793D01*
X169420664Y-98112627D01*
X169296099Y-97896873D01*
X169191446Y-97760486D01*
X169166252Y-97695317D01*
X169180290Y-97626872D01*
X169191446Y-97609514D01*
X169207760Y-97588251D01*
X169296099Y-97473127D01*
X169420664Y-97257373D01*
X169516002Y-97027207D01*
X169580482Y-96786565D01*
X169613000Y-96539565D01*
X169613000Y-96290435D01*
X169580482Y-96043435D01*
X169516002Y-95802793D01*
X169420664Y-95572627D01*
X169296099Y-95356873D01*
X169191446Y-95220486D01*
X169166252Y-95155317D01*
X169180290Y-95086872D01*
X169191446Y-95069514D01*
X169207760Y-95048251D01*
X169296099Y-94933127D01*
X169420664Y-94717373D01*
X169516002Y-94487207D01*
X169580482Y-94246565D01*
X169613000Y-93999565D01*
X169613000Y-93750435D01*
X169580482Y-93503435D01*
X169516002Y-93262793D01*
X169420664Y-93032627D01*
X169296099Y-92816873D01*
X169191446Y-92680486D01*
X169166252Y-92615317D01*
X169180290Y-92546872D01*
X169191446Y-92529514D01*
X169207760Y-92508251D01*
X169296099Y-92393127D01*
X169420664Y-92177373D01*
X169516002Y-91947207D01*
X169580482Y-91706565D01*
X169613000Y-91459565D01*
X169613000Y-91210435D01*
X169580482Y-90963435D01*
X169516002Y-90722793D01*
X169420664Y-90492627D01*
X169296099Y-90276873D01*
X169191446Y-90140486D01*
X169166252Y-90075317D01*
X169180290Y-90006872D01*
X169191446Y-89989514D01*
X169207760Y-89968251D01*
X169296099Y-89853127D01*
X169420664Y-89637373D01*
X169516002Y-89407207D01*
X169580482Y-89166565D01*
X169613000Y-88919565D01*
X169613000Y-88670435D01*
X169580482Y-88423435D01*
X169516002Y-88182793D01*
X169420664Y-87952627D01*
X169296099Y-87736873D01*
X169191446Y-87600486D01*
X169166252Y-87535317D01*
X169180290Y-87466872D01*
X169191446Y-87449514D01*
X169254819Y-87366924D01*
X169296099Y-87313127D01*
X169420664Y-87097373D01*
X169516002Y-86867207D01*
X169580482Y-86626565D01*
X169613000Y-86379565D01*
X169613000Y-86130435D01*
X169580482Y-85883435D01*
X169516002Y-85642793D01*
X169485383Y-85568872D01*
X187799500Y-85568872D01*
X187799500Y-85831127D01*
X187808634Y-85900500D01*
X187833730Y-86091116D01*
X187901602Y-86344418D01*
X187901605Y-86344428D01*
X188001953Y-86586690D01*
X188001958Y-86586700D01*
X188133075Y-86813803D01*
X188292718Y-87021851D01*
X188292726Y-87021860D01*
X188478140Y-87207274D01*
X188478148Y-87207281D01*
X188686196Y-87366924D01*
X188913299Y-87498041D01*
X188913309Y-87498046D01*
X189118716Y-87583128D01*
X189155581Y-87598398D01*
X189408884Y-87666270D01*
X189668880Y-87700500D01*
X189668887Y-87700500D01*
X189931113Y-87700500D01*
X189931120Y-87700500D01*
X190191116Y-87666270D01*
X190444419Y-87598398D01*
X190686697Y-87498043D01*
X190913803Y-87366924D01*
X191121851Y-87207282D01*
X191121855Y-87207277D01*
X191121860Y-87207274D01*
X191307274Y-87021860D01*
X191307277Y-87021855D01*
X191307282Y-87021851D01*
X191466924Y-86813803D01*
X191598043Y-86586697D01*
X191698398Y-86344419D01*
X191766270Y-86091116D01*
X191800500Y-85831120D01*
X191800500Y-85568880D01*
X191800499Y-85568872D01*
X192799500Y-85568872D01*
X192799500Y-85831127D01*
X192808634Y-85900500D01*
X192833730Y-86091116D01*
X192901602Y-86344418D01*
X192901605Y-86344428D01*
X193001953Y-86586690D01*
X193001958Y-86586700D01*
X193133075Y-86813803D01*
X193292718Y-87021851D01*
X193292726Y-87021860D01*
X193478140Y-87207274D01*
X193478148Y-87207281D01*
X193686196Y-87366924D01*
X193913299Y-87498041D01*
X193913309Y-87498046D01*
X194118716Y-87583128D01*
X194155581Y-87598398D01*
X194408884Y-87666270D01*
X194668880Y-87700500D01*
X194668887Y-87700500D01*
X194931113Y-87700500D01*
X194931120Y-87700500D01*
X195191116Y-87666270D01*
X195444419Y-87598398D01*
X195686697Y-87498043D01*
X195913803Y-87366924D01*
X196121851Y-87207282D01*
X196121855Y-87207277D01*
X196121860Y-87207274D01*
X196307274Y-87021860D01*
X196307277Y-87021855D01*
X196307282Y-87021851D01*
X196466924Y-86813803D01*
X196598043Y-86586697D01*
X196698398Y-86344419D01*
X196766270Y-86091116D01*
X196800500Y-85831120D01*
X196800500Y-85568880D01*
X196800499Y-85568872D01*
X197799500Y-85568872D01*
X197799500Y-85831127D01*
X197808634Y-85900500D01*
X197833730Y-86091116D01*
X197901602Y-86344418D01*
X197901605Y-86344428D01*
X198001953Y-86586690D01*
X198001958Y-86586700D01*
X198133075Y-86813803D01*
X198292718Y-87021851D01*
X198292726Y-87021860D01*
X198478140Y-87207274D01*
X198478148Y-87207281D01*
X198686196Y-87366924D01*
X198913299Y-87498041D01*
X198913309Y-87498046D01*
X199118716Y-87583128D01*
X199155581Y-87598398D01*
X199408884Y-87666270D01*
X199668880Y-87700500D01*
X199668887Y-87700500D01*
X199931113Y-87700500D01*
X199931120Y-87700500D01*
X200191116Y-87666270D01*
X200444419Y-87598398D01*
X200686697Y-87498043D01*
X200913803Y-87366924D01*
X201121851Y-87207282D01*
X201121855Y-87207277D01*
X201121860Y-87207274D01*
X201307274Y-87021860D01*
X201307277Y-87021855D01*
X201307282Y-87021851D01*
X201466924Y-86813803D01*
X201598043Y-86586697D01*
X201698398Y-86344419D01*
X201766270Y-86091116D01*
X201800500Y-85831120D01*
X201800500Y-85568880D01*
X201800499Y-85568872D01*
X202799500Y-85568872D01*
X202799500Y-85831127D01*
X202808634Y-85900500D01*
X202833730Y-86091116D01*
X202901602Y-86344418D01*
X202901605Y-86344428D01*
X203001953Y-86586690D01*
X203001958Y-86586700D01*
X203133075Y-86813803D01*
X203292718Y-87021851D01*
X203292726Y-87021860D01*
X203478140Y-87207274D01*
X203478148Y-87207281D01*
X203686196Y-87366924D01*
X203913299Y-87498041D01*
X203913309Y-87498046D01*
X204118716Y-87583128D01*
X204155581Y-87598398D01*
X204408884Y-87666270D01*
X204668880Y-87700500D01*
X204668887Y-87700500D01*
X204931113Y-87700500D01*
X204931120Y-87700500D01*
X205191116Y-87666270D01*
X205444419Y-87598398D01*
X205686697Y-87498043D01*
X205913803Y-87366924D01*
X206121851Y-87207282D01*
X206121855Y-87207277D01*
X206121860Y-87207274D01*
X206307274Y-87021860D01*
X206307277Y-87021855D01*
X206307282Y-87021851D01*
X206466924Y-86813803D01*
X206598043Y-86586697D01*
X206698398Y-86344419D01*
X206766270Y-86091116D01*
X206800500Y-85831120D01*
X206800500Y-85568880D01*
X206766270Y-85308884D01*
X206698398Y-85055581D01*
X206673436Y-84995317D01*
X206598046Y-84813309D01*
X206598041Y-84813299D01*
X206466924Y-84586196D01*
X206307281Y-84378148D01*
X206307274Y-84378140D01*
X206121860Y-84192726D01*
X206121851Y-84192718D01*
X205913803Y-84033075D01*
X205686700Y-83901958D01*
X205686690Y-83901953D01*
X205444428Y-83801605D01*
X205444421Y-83801603D01*
X205444419Y-83801602D01*
X205191116Y-83733730D01*
X205133339Y-83726123D01*
X204931127Y-83699500D01*
X204931120Y-83699500D01*
X204668880Y-83699500D01*
X204668872Y-83699500D01*
X204437772Y-83729926D01*
X204408884Y-83733730D01*
X204155581Y-83801602D01*
X204155571Y-83801605D01*
X203913309Y-83901953D01*
X203913299Y-83901958D01*
X203686196Y-84033075D01*
X203478148Y-84192718D01*
X203292718Y-84378148D01*
X203133075Y-84586196D01*
X203001958Y-84813299D01*
X203001953Y-84813309D01*
X202901605Y-85055571D01*
X202901602Y-85055581D01*
X202833730Y-85308885D01*
X202799500Y-85568872D01*
X201800499Y-85568872D01*
X201766270Y-85308884D01*
X201698398Y-85055581D01*
X201673436Y-84995317D01*
X201598046Y-84813309D01*
X201598041Y-84813299D01*
X201466924Y-84586196D01*
X201307281Y-84378148D01*
X201307274Y-84378140D01*
X201121860Y-84192726D01*
X201121851Y-84192718D01*
X200913803Y-84033075D01*
X200686700Y-83901958D01*
X200686690Y-83901953D01*
X200444428Y-83801605D01*
X200444421Y-83801603D01*
X200444419Y-83801602D01*
X200191116Y-83733730D01*
X200133339Y-83726123D01*
X199931127Y-83699500D01*
X199931120Y-83699500D01*
X199668880Y-83699500D01*
X199668872Y-83699500D01*
X199437772Y-83729926D01*
X199408884Y-83733730D01*
X199155581Y-83801602D01*
X199155571Y-83801605D01*
X198913309Y-83901953D01*
X198913299Y-83901958D01*
X198686196Y-84033075D01*
X198478148Y-84192718D01*
X198292718Y-84378148D01*
X198133075Y-84586196D01*
X198001958Y-84813299D01*
X198001953Y-84813309D01*
X197901605Y-85055571D01*
X197901602Y-85055581D01*
X197833730Y-85308885D01*
X197799500Y-85568872D01*
X196800499Y-85568872D01*
X196766270Y-85308884D01*
X196698398Y-85055581D01*
X196673436Y-84995317D01*
X196598046Y-84813309D01*
X196598041Y-84813299D01*
X196466924Y-84586196D01*
X196307281Y-84378148D01*
X196307274Y-84378140D01*
X196121860Y-84192726D01*
X196121851Y-84192718D01*
X195913803Y-84033075D01*
X195686700Y-83901958D01*
X195686690Y-83901953D01*
X195444428Y-83801605D01*
X195444421Y-83801603D01*
X195444419Y-83801602D01*
X195191116Y-83733730D01*
X195133339Y-83726123D01*
X194931127Y-83699500D01*
X194931120Y-83699500D01*
X194668880Y-83699500D01*
X194668872Y-83699500D01*
X194437772Y-83729926D01*
X194408884Y-83733730D01*
X194155581Y-83801602D01*
X194155571Y-83801605D01*
X193913309Y-83901953D01*
X193913299Y-83901958D01*
X193686196Y-84033075D01*
X193478148Y-84192718D01*
X193292718Y-84378148D01*
X193133075Y-84586196D01*
X193001958Y-84813299D01*
X193001953Y-84813309D01*
X192901605Y-85055571D01*
X192901602Y-85055581D01*
X192833730Y-85308885D01*
X192799500Y-85568872D01*
X191800499Y-85568872D01*
X191766270Y-85308884D01*
X191698398Y-85055581D01*
X191673436Y-84995317D01*
X191598046Y-84813309D01*
X191598041Y-84813299D01*
X191466924Y-84586196D01*
X191307281Y-84378148D01*
X191307274Y-84378140D01*
X191121860Y-84192726D01*
X191121851Y-84192718D01*
X190913803Y-84033075D01*
X190686700Y-83901958D01*
X190686690Y-83901953D01*
X190444428Y-83801605D01*
X190444421Y-83801603D01*
X190444419Y-83801602D01*
X190191116Y-83733730D01*
X190133339Y-83726123D01*
X189931127Y-83699500D01*
X189931120Y-83699500D01*
X189668880Y-83699500D01*
X189668872Y-83699500D01*
X189437772Y-83729926D01*
X189408884Y-83733730D01*
X189155581Y-83801602D01*
X189155571Y-83801605D01*
X188913309Y-83901953D01*
X188913299Y-83901958D01*
X188686196Y-84033075D01*
X188478148Y-84192718D01*
X188292718Y-84378148D01*
X188133075Y-84586196D01*
X188001958Y-84813299D01*
X188001953Y-84813309D01*
X187901605Y-85055571D01*
X187901602Y-85055581D01*
X187833730Y-85308885D01*
X187799500Y-85568872D01*
X169485383Y-85568872D01*
X169478932Y-85553298D01*
X169420669Y-85412638D01*
X169420662Y-85412623D01*
X169296099Y-85196873D01*
X169191446Y-85060486D01*
X169166252Y-84995317D01*
X169180290Y-84926872D01*
X169191446Y-84909514D01*
X169207760Y-84888251D01*
X169296099Y-84773127D01*
X169420664Y-84557373D01*
X169516002Y-84327207D01*
X169580482Y-84086565D01*
X169613000Y-83839565D01*
X169613000Y-83590435D01*
X169580482Y-83343435D01*
X169516002Y-83102793D01*
X169420664Y-82872627D01*
X169346531Y-82744225D01*
X169296099Y-82656873D01*
X169191446Y-82520486D01*
X169166252Y-82455317D01*
X169180290Y-82386872D01*
X169191446Y-82369514D01*
X169207760Y-82348251D01*
X169296099Y-82233127D01*
X169420664Y-82017373D01*
X169516002Y-81787207D01*
X169580482Y-81546565D01*
X169613000Y-81299565D01*
X169613000Y-81050435D01*
X169580482Y-80803435D01*
X169516002Y-80562793D01*
X169420664Y-80332627D01*
X169296099Y-80116873D01*
X169191446Y-79980486D01*
X169166252Y-79915317D01*
X169180290Y-79846872D01*
X169191446Y-79829514D01*
X169207760Y-79808251D01*
X169296099Y-79693127D01*
X169420664Y-79477373D01*
X169421326Y-79475776D01*
X169423394Y-79470781D01*
X169516002Y-79247207D01*
X169580482Y-79006565D01*
X169613000Y-78759565D01*
X169613000Y-78510435D01*
X169580482Y-78263435D01*
X169516002Y-78022793D01*
X169420664Y-77792627D01*
X169296099Y-77576873D01*
X169191446Y-77440486D01*
X169166252Y-77375317D01*
X169180290Y-77306872D01*
X169191446Y-77289514D01*
X169207760Y-77268251D01*
X169296099Y-77153127D01*
X169420664Y-76937373D01*
X169516002Y-76707207D01*
X169580482Y-76466565D01*
X169613000Y-76219565D01*
X169613000Y-75970435D01*
X169580482Y-75723435D01*
X169516002Y-75482793D01*
X169459795Y-75347098D01*
X169420669Y-75252638D01*
X169420662Y-75252623D01*
X169296099Y-75036873D01*
X169144439Y-74839225D01*
X169144433Y-74839218D01*
X168968281Y-74663066D01*
X168968274Y-74663060D01*
X168852016Y-74573852D01*
X168810813Y-74517424D01*
X168806658Y-74447678D01*
X168827184Y-74402590D01*
X168909886Y-74288760D01*
X169009932Y-74092410D01*
X169078026Y-73882835D01*
X169112500Y-73665181D01*
X169112500Y-73444818D01*
X169078026Y-73227164D01*
X169009932Y-73017589D01*
X168909884Y-72821236D01*
X168827184Y-72707408D01*
X168803704Y-72641602D01*
X168819530Y-72573548D01*
X168852016Y-72536147D01*
X168903199Y-72496873D01*
X168968276Y-72446938D01*
X169144438Y-72270776D01*
X169296099Y-72073127D01*
X169420664Y-71857373D01*
X169516002Y-71627207D01*
X169580482Y-71386565D01*
X169613000Y-71139565D01*
X169613000Y-70890435D01*
X169580482Y-70643435D01*
X169516002Y-70402793D01*
X169420664Y-70172627D01*
X169296099Y-69956873D01*
X169191446Y-69820486D01*
X169166252Y-69755317D01*
X169180290Y-69686872D01*
X169191446Y-69669514D01*
X169207760Y-69648251D01*
X169296099Y-69533127D01*
X169420664Y-69317373D01*
X169516002Y-69087207D01*
X169580482Y-68846565D01*
X169613000Y-68599565D01*
X169613000Y-68350435D01*
X169580482Y-68103435D01*
X169516002Y-67862793D01*
X169420664Y-67632627D01*
X169337044Y-67487793D01*
X169296099Y-67416873D01*
X169191446Y-67280486D01*
X169166252Y-67215317D01*
X169180290Y-67146872D01*
X169191446Y-67129514D01*
X169258695Y-67041873D01*
X169296099Y-66993127D01*
X169420664Y-66777373D01*
X169516002Y-66547207D01*
X169580482Y-66306565D01*
X169613000Y-66059565D01*
X169613000Y-65810435D01*
X169580482Y-65563435D01*
X169516002Y-65322793D01*
X169437129Y-65132376D01*
X169420669Y-65092638D01*
X169420662Y-65092623D01*
X169296099Y-64876873D01*
X169191446Y-64740486D01*
X169166252Y-64675317D01*
X169180290Y-64606872D01*
X169191446Y-64589514D01*
X169207760Y-64568251D01*
X169296099Y-64453127D01*
X169420664Y-64237373D01*
X169516002Y-64007207D01*
X169580482Y-63766565D01*
X169613000Y-63519565D01*
X169613000Y-63270435D01*
X169580482Y-63023435D01*
X169516002Y-62782793D01*
X169461753Y-62651825D01*
X169420669Y-62552638D01*
X169420662Y-62552623D01*
X169296099Y-62336873D01*
X169191446Y-62200486D01*
X169166252Y-62135317D01*
X169180290Y-62066872D01*
X169191446Y-62049514D01*
X169207760Y-62028251D01*
X169296099Y-61913127D01*
X169420664Y-61697373D01*
X169516002Y-61467207D01*
X169580482Y-61226565D01*
X169613000Y-60979565D01*
X169613000Y-60730435D01*
X169580482Y-60483435D01*
X169516002Y-60242793D01*
X169420664Y-60012627D01*
X169393951Y-59966359D01*
X169296099Y-59796873D01*
X169144439Y-59599225D01*
X169144433Y-59599218D01*
X168968281Y-59423066D01*
X168968274Y-59423060D01*
X168852016Y-59333852D01*
X168810813Y-59277424D01*
X168806658Y-59207678D01*
X168827184Y-59162590D01*
X168909886Y-59048760D01*
X169009932Y-58852410D01*
X169078026Y-58642835D01*
X169112500Y-58425181D01*
X169112500Y-58204818D01*
X169078026Y-57987164D01*
X169009932Y-57777589D01*
X168909888Y-57581243D01*
X168863565Y-57517485D01*
X168154637Y-58226413D01*
X168131833Y-58141306D01*
X168072590Y-58038694D01*
X167988806Y-57954910D01*
X167886194Y-57895667D01*
X167801083Y-57872861D01*
X168510013Y-57163932D01*
X168446256Y-57117611D01*
X168249910Y-57017567D01*
X168040335Y-56949473D01*
X167822681Y-56915000D01*
X167602319Y-56915000D01*
X167384664Y-56949473D01*
X167175089Y-57017567D01*
X166978733Y-57117616D01*
X166914985Y-57163931D01*
X166914985Y-57163932D01*
X167623914Y-57872861D01*
X167538806Y-57895667D01*
X167436194Y-57954910D01*
X167352410Y-58038694D01*
X167293167Y-58141306D01*
X167270361Y-58226414D01*
X166561432Y-57517485D01*
X166561431Y-57517485D01*
X166515116Y-57581233D01*
X166415067Y-57777589D01*
X166346973Y-57987164D01*
X166312500Y-58204818D01*
X166312500Y-58425181D01*
X166346973Y-58642835D01*
X166415067Y-58852410D01*
X166515113Y-59048760D01*
X166597816Y-59162590D01*
X166621296Y-59228397D01*
X166605471Y-59296451D01*
X166572984Y-59333852D01*
X166456725Y-59423060D01*
X166456718Y-59423066D01*
X166280566Y-59599218D01*
X166280560Y-59599225D01*
X166128900Y-59796873D01*
X166004337Y-60012623D01*
X166004330Y-60012638D01*
X165908998Y-60242792D01*
X165844517Y-60483438D01*
X165812001Y-60730424D01*
X165812000Y-60730441D01*
X144213000Y-60730441D01*
X144213000Y-60730435D01*
X144180482Y-60483435D01*
X144116002Y-60242793D01*
X144020664Y-60012627D01*
X143993950Y-59966358D01*
X143977478Y-59898459D01*
X144000330Y-59832432D01*
X144005211Y-59826030D01*
X144052198Y-59768407D01*
X144146409Y-59588049D01*
X144202386Y-59392418D01*
X144213000Y-59273037D01*
X144212999Y-57356964D01*
X144202386Y-57237582D01*
X144146409Y-57041951D01*
X144052198Y-56861593D01*
X144000184Y-56797803D01*
X143923609Y-56703890D01*
X143765909Y-56575304D01*
X143765910Y-56575304D01*
X143765907Y-56575302D01*
X143585549Y-56481091D01*
X143585548Y-56481090D01*
X143585545Y-56481089D01*
X143468329Y-56447550D01*
X143389918Y-56425114D01*
X143389915Y-56425113D01*
X143389913Y-56425113D01*
X143323602Y-56419217D01*
X143270537Y-56414500D01*
X143270532Y-56414500D01*
X141354471Y-56414500D01*
X141354465Y-56414500D01*
X141354464Y-56414501D01*
X141342816Y-56415536D01*
X141235084Y-56425113D01*
X141039454Y-56481089D01*
X140949272Y-56528196D01*
X140859093Y-56575302D01*
X140859091Y-56575303D01*
X140859090Y-56575304D01*
X140701390Y-56703890D01*
X140572804Y-56861590D01*
X140478589Y-57041954D01*
X140443688Y-57163931D01*
X140422615Y-57237581D01*
X140422614Y-57237583D01*
X140422613Y-57237586D01*
X140415107Y-57322016D01*
X140412245Y-57354214D01*
X140412000Y-57356966D01*
X135100500Y-57356966D01*
X135100499Y-55955784D01*
X135090096Y-55823588D01*
X135035096Y-55605317D01*
X134942007Y-55400374D01*
X134813819Y-55215346D01*
X134654654Y-55056181D01*
X134654650Y-55056178D01*
X134654645Y-55056174D01*
X134469632Y-54927997D01*
X134469630Y-54927995D01*
X134469626Y-54927993D01*
X134264683Y-54834904D01*
X134264681Y-54834903D01*
X134264678Y-54834902D01*
X134046420Y-54779905D01*
X134046413Y-54779904D01*
X134002347Y-54776436D01*
X133914217Y-54769500D01*
X133914215Y-54769500D01*
X130685791Y-54769500D01*
X130685776Y-54769501D01*
X130553586Y-54779904D01*
X130553579Y-54779905D01*
X130335321Y-54834902D01*
X130335318Y-54834903D01*
X130130377Y-54927991D01*
X130130367Y-54927997D01*
X129945354Y-55056174D01*
X129945342Y-55056184D01*
X129786184Y-55215342D01*
X129786174Y-55215354D01*
X129657997Y-55400367D01*
X129657991Y-55400377D01*
X129564903Y-55605318D01*
X129564902Y-55605321D01*
X129509905Y-55823579D01*
X129509904Y-55823586D01*
X129499500Y-55955777D01*
X124200500Y-55955777D01*
X124200500Y-51224500D01*
X124220185Y-51157461D01*
X124272989Y-51111706D01*
X124324500Y-51100500D01*
X178569308Y-51100500D01*
X178636347Y-51120185D01*
G37*
%TD.AperFunction*%
%TD*%
M02*
